G04 #@! TF.GenerationSoftware,KiCad,Pcbnew,5.1.10*
G04 #@! TF.CreationDate,2021-09-23T13:58:25+02:00*
G04 #@! TF.ProjectId,char-panel,63686172-2d70-4616-9e65-6c2e6b696361,rev?*
G04 #@! TF.SameCoordinates,Original*
G04 #@! TF.FileFunction,Copper,L1,Top*
G04 #@! TF.FilePolarity,Positive*
%FSLAX46Y46*%
G04 Gerber Fmt 4.6, Leading zero omitted, Abs format (unit mm)*
G04 Created by KiCad (PCBNEW 5.1.10) date 2021-09-23 13:58:25*
%MOMM*%
%LPD*%
G01*
G04 APERTURE LIST*
G04 #@! TA.AperFunction,SMDPad,CuDef*
%ADD10R,0.600000X0.800000*%
G04 #@! TD*
G04 #@! TA.AperFunction,ComponentPad*
%ADD11C,6.000000*%
G04 #@! TD*
G04 #@! TA.AperFunction,ViaPad*
%ADD12C,0.600000*%
G04 #@! TD*
G04 #@! TA.AperFunction,ViaPad*
%ADD13C,0.400000*%
G04 #@! TD*
G04 #@! TA.AperFunction,Conductor*
%ADD14C,0.250000*%
G04 #@! TD*
G04 #@! TA.AperFunction,Conductor*
%ADD15C,0.200000*%
G04 #@! TD*
G04 #@! TA.AperFunction,Conductor*
%ADD16C,0.150000*%
G04 #@! TD*
G04 APERTURE END LIST*
D10*
G04 #@! TO.P,D1,1*
G04 #@! TO.N,Board_2-Net-(D1-Pad1)*
X69500010Y-60100001D03*
G04 #@! TO.P,D1,4*
G04 #@! TO.N,Board_2-GND*
X69500010Y-58400001D03*
G04 #@! TO.P,D1,2*
G04 #@! TO.N,Board_2-+5V*
X70500010Y-60100001D03*
G04 #@! TO.P,D1,3*
G04 #@! TO.N,Board_2-Net-(D1-Pad3)*
X70500010Y-58400001D03*
G04 #@! TD*
G04 #@! TO.P,D2,1*
G04 #@! TO.N,Board_2-/end-of-row-1*
X83000010Y-61400001D03*
G04 #@! TO.P,D2,4*
G04 #@! TO.N,Board_2-GND*
X83000010Y-63100001D03*
G04 #@! TO.P,D2,2*
G04 #@! TO.N,Board_2-+5V*
X82000010Y-61400001D03*
G04 #@! TO.P,D2,3*
G04 #@! TO.N,Board_2-Net-(D10-Pad1)*
X82000010Y-63100001D03*
G04 #@! TD*
G04 #@! TO.P,D3,1*
G04 #@! TO.N,Board_2-/end-of-row-2*
X69500010Y-66100001D03*
G04 #@! TO.P,D3,4*
G04 #@! TO.N,Board_2-GND*
X69500010Y-64400001D03*
G04 #@! TO.P,D3,2*
G04 #@! TO.N,Board_2-+5V*
X70500010Y-66100001D03*
G04 #@! TO.P,D3,3*
G04 #@! TO.N,Board_2-Net-(D11-Pad1)*
X70500010Y-64400001D03*
G04 #@! TD*
G04 #@! TO.P,D4,1*
G04 #@! TO.N,Board_2-/end-of-row-3*
X83000010Y-67400001D03*
G04 #@! TO.P,D4,4*
G04 #@! TO.N,Board_2-GND*
X83000010Y-69100001D03*
G04 #@! TO.P,D4,2*
G04 #@! TO.N,Board_2-+5V*
X82000010Y-67400001D03*
G04 #@! TO.P,D4,3*
G04 #@! TO.N,Board_2-Net-(D12-Pad1)*
X82000010Y-69100001D03*
G04 #@! TD*
G04 #@! TO.P,D5,1*
G04 #@! TO.N,Board_2-/end-of-row-4*
X69500010Y-72100001D03*
G04 #@! TO.P,D5,4*
G04 #@! TO.N,Board_2-GND*
X69500010Y-70400001D03*
G04 #@! TO.P,D5,2*
G04 #@! TO.N,Board_2-+5V*
X70500010Y-72100001D03*
G04 #@! TO.P,D5,3*
G04 #@! TO.N,Board_2-Net-(D13-Pad1)*
X70500010Y-70400001D03*
G04 #@! TD*
G04 #@! TO.P,D6,1*
G04 #@! TO.N,Board_2-/end-of-row-5*
X83000010Y-73400001D03*
G04 #@! TO.P,D6,4*
G04 #@! TO.N,Board_2-GND*
X83000010Y-75100001D03*
G04 #@! TO.P,D6,2*
G04 #@! TO.N,Board_2-+5V*
X82000010Y-73400001D03*
G04 #@! TO.P,D6,3*
G04 #@! TO.N,Board_2-Net-(D14-Pad1)*
X82000010Y-75100001D03*
G04 #@! TD*
G04 #@! TO.P,D7,1*
G04 #@! TO.N,Board_2-/end-of-row-6*
X69500010Y-78100001D03*
G04 #@! TO.P,D7,4*
G04 #@! TO.N,Board_2-GND*
X69500010Y-76400001D03*
G04 #@! TO.P,D7,2*
G04 #@! TO.N,Board_2-+5V*
X70500010Y-78100001D03*
G04 #@! TO.P,D7,3*
G04 #@! TO.N,Board_2-Net-(D15-Pad1)*
X70500010Y-76400001D03*
G04 #@! TD*
G04 #@! TO.P,D8,1*
G04 #@! TO.N,Board_2-/end-of-row-7*
X83000010Y-79400001D03*
G04 #@! TO.P,D8,4*
G04 #@! TO.N,Board_2-GND*
X83000010Y-81100001D03*
G04 #@! TO.P,D8,2*
G04 #@! TO.N,Board_2-+5V*
X82000010Y-79400001D03*
G04 #@! TO.P,D8,3*
G04 #@! TO.N,Board_2-Net-(D16-Pad1)*
X82000010Y-81100001D03*
G04 #@! TD*
G04 #@! TO.P,D9,1*
G04 #@! TO.N,Board_2-Net-(D1-Pad3)*
X72000010Y-60100001D03*
G04 #@! TO.P,D9,4*
G04 #@! TO.N,Board_2-GND*
X72000010Y-58400001D03*
G04 #@! TO.P,D9,2*
G04 #@! TO.N,Board_2-+5V*
X73000010Y-60100001D03*
G04 #@! TO.P,D9,3*
G04 #@! TO.N,Board_2-Net-(D17-Pad1)*
X73000010Y-58400001D03*
G04 #@! TD*
G04 #@! TO.P,D10,1*
G04 #@! TO.N,Board_2-Net-(D10-Pad1)*
X80500010Y-61400001D03*
G04 #@! TO.P,D10,4*
G04 #@! TO.N,Board_2-GND*
X80500010Y-63100001D03*
G04 #@! TO.P,D10,2*
G04 #@! TO.N,Board_2-+5V*
X79500010Y-61400001D03*
G04 #@! TO.P,D10,3*
G04 #@! TO.N,Board_2-Net-(D10-Pad3)*
X79500010Y-63100001D03*
G04 #@! TD*
G04 #@! TO.P,D11,1*
G04 #@! TO.N,Board_2-Net-(D11-Pad1)*
X72000010Y-66100001D03*
G04 #@! TO.P,D11,4*
G04 #@! TO.N,Board_2-GND*
X72000010Y-64400001D03*
G04 #@! TO.P,D11,2*
G04 #@! TO.N,Board_2-+5V*
X73000010Y-66100001D03*
G04 #@! TO.P,D11,3*
G04 #@! TO.N,Board_2-Net-(D11-Pad3)*
X73000010Y-64400001D03*
G04 #@! TD*
G04 #@! TO.P,D12,1*
G04 #@! TO.N,Board_2-Net-(D12-Pad1)*
X80500010Y-67400001D03*
G04 #@! TO.P,D12,4*
G04 #@! TO.N,Board_2-GND*
X80500010Y-69100001D03*
G04 #@! TO.P,D12,2*
G04 #@! TO.N,Board_2-+5V*
X79500010Y-67400001D03*
G04 #@! TO.P,D12,3*
G04 #@! TO.N,Board_2-Net-(D12-Pad3)*
X79500010Y-69100001D03*
G04 #@! TD*
G04 #@! TO.P,D13,1*
G04 #@! TO.N,Board_2-Net-(D13-Pad1)*
X72000010Y-72100001D03*
G04 #@! TO.P,D13,4*
G04 #@! TO.N,Board_2-GND*
X72000010Y-70400001D03*
G04 #@! TO.P,D13,2*
G04 #@! TO.N,Board_2-+5V*
X73000010Y-72100001D03*
G04 #@! TO.P,D13,3*
G04 #@! TO.N,Board_2-Net-(D13-Pad3)*
X73000010Y-70400001D03*
G04 #@! TD*
G04 #@! TO.P,D14,1*
G04 #@! TO.N,Board_2-Net-(D14-Pad1)*
X80500010Y-73400001D03*
G04 #@! TO.P,D14,4*
G04 #@! TO.N,Board_2-GND*
X80500010Y-75100001D03*
G04 #@! TO.P,D14,2*
G04 #@! TO.N,Board_2-+5V*
X79500010Y-73400001D03*
G04 #@! TO.P,D14,3*
G04 #@! TO.N,Board_2-Net-(D14-Pad3)*
X79500010Y-75100001D03*
G04 #@! TD*
G04 #@! TO.P,D15,1*
G04 #@! TO.N,Board_2-Net-(D15-Pad1)*
X72000010Y-78100001D03*
G04 #@! TO.P,D15,4*
G04 #@! TO.N,Board_2-GND*
X72000010Y-76400001D03*
G04 #@! TO.P,D15,2*
G04 #@! TO.N,Board_2-+5V*
X73000010Y-78100001D03*
G04 #@! TO.P,D15,3*
G04 #@! TO.N,Board_2-Net-(D15-Pad3)*
X73000010Y-76400001D03*
G04 #@! TD*
G04 #@! TO.P,D16,1*
G04 #@! TO.N,Board_2-Net-(D16-Pad1)*
X80500010Y-79400001D03*
G04 #@! TO.P,D16,4*
G04 #@! TO.N,Board_2-GND*
X80500010Y-81100001D03*
G04 #@! TO.P,D16,2*
G04 #@! TO.N,Board_2-+5V*
X79500010Y-79400001D03*
G04 #@! TO.P,D16,3*
G04 #@! TO.N,Board_2-Net-(D16-Pad3)*
X79500010Y-81100001D03*
G04 #@! TD*
G04 #@! TO.P,D17,1*
G04 #@! TO.N,Board_2-Net-(D17-Pad1)*
X74500010Y-60100001D03*
G04 #@! TO.P,D17,4*
G04 #@! TO.N,Board_2-GND*
X74500010Y-58400001D03*
G04 #@! TO.P,D17,2*
G04 #@! TO.N,Board_2-+5V*
X75500010Y-60100001D03*
G04 #@! TO.P,D17,3*
G04 #@! TO.N,Board_2-Net-(D17-Pad3)*
X75500010Y-58400001D03*
G04 #@! TD*
G04 #@! TO.P,D18,1*
G04 #@! TO.N,Board_2-Net-(D10-Pad3)*
X78000010Y-61400001D03*
G04 #@! TO.P,D18,4*
G04 #@! TO.N,Board_2-GND*
X78000010Y-63100001D03*
G04 #@! TO.P,D18,2*
G04 #@! TO.N,Board_2-+5V*
X77000010Y-61400001D03*
G04 #@! TO.P,D18,3*
G04 #@! TO.N,Board_2-Net-(D18-Pad3)*
X77000010Y-63100001D03*
G04 #@! TD*
G04 #@! TO.P,D19,1*
G04 #@! TO.N,Board_2-Net-(D11-Pad3)*
X74500010Y-66100001D03*
G04 #@! TO.P,D19,4*
G04 #@! TO.N,Board_2-GND*
X74500010Y-64400001D03*
G04 #@! TO.P,D19,2*
G04 #@! TO.N,Board_2-+5V*
X75500010Y-66100001D03*
G04 #@! TO.P,D19,3*
G04 #@! TO.N,Board_2-Net-(D19-Pad3)*
X75500010Y-64400001D03*
G04 #@! TD*
G04 #@! TO.P,D20,1*
G04 #@! TO.N,Board_2-Net-(D12-Pad3)*
X78000010Y-67400001D03*
G04 #@! TO.P,D20,4*
G04 #@! TO.N,Board_2-GND*
X78000010Y-69100001D03*
G04 #@! TO.P,D20,2*
G04 #@! TO.N,Board_2-+5V*
X77000010Y-67400001D03*
G04 #@! TO.P,D20,3*
G04 #@! TO.N,Board_2-Net-(D20-Pad3)*
X77000010Y-69100001D03*
G04 #@! TD*
G04 #@! TO.P,D21,1*
G04 #@! TO.N,Board_2-Net-(D13-Pad3)*
X74500010Y-72100001D03*
G04 #@! TO.P,D21,4*
G04 #@! TO.N,Board_2-GND*
X74500010Y-70400001D03*
G04 #@! TO.P,D21,2*
G04 #@! TO.N,Board_2-+5V*
X75500010Y-72100001D03*
G04 #@! TO.P,D21,3*
G04 #@! TO.N,Board_2-Net-(D21-Pad3)*
X75500010Y-70400001D03*
G04 #@! TD*
G04 #@! TO.P,D22,1*
G04 #@! TO.N,Board_2-Net-(D14-Pad3)*
X78000010Y-73400001D03*
G04 #@! TO.P,D22,4*
G04 #@! TO.N,Board_2-GND*
X78000010Y-75100001D03*
G04 #@! TO.P,D22,2*
G04 #@! TO.N,Board_2-+5V*
X77000010Y-73400001D03*
G04 #@! TO.P,D22,3*
G04 #@! TO.N,Board_2-Net-(D22-Pad3)*
X77000010Y-75100001D03*
G04 #@! TD*
G04 #@! TO.P,D23,1*
G04 #@! TO.N,Board_2-Net-(D15-Pad3)*
X74500010Y-78100001D03*
G04 #@! TO.P,D23,4*
G04 #@! TO.N,Board_2-GND*
X74500010Y-76400001D03*
G04 #@! TO.P,D23,2*
G04 #@! TO.N,Board_2-+5V*
X75500010Y-78100001D03*
G04 #@! TO.P,D23,3*
G04 #@! TO.N,Board_2-Net-(D23-Pad3)*
X75500010Y-76400001D03*
G04 #@! TD*
G04 #@! TO.P,D24,1*
G04 #@! TO.N,Board_2-Net-(D16-Pad3)*
X78000010Y-79400001D03*
G04 #@! TO.P,D24,4*
G04 #@! TO.N,Board_2-GND*
X78000010Y-81100001D03*
G04 #@! TO.P,D24,2*
G04 #@! TO.N,Board_2-+5V*
X77000010Y-79400001D03*
G04 #@! TO.P,D24,3*
G04 #@! TO.N,Board_2-Net-(D24-Pad3)*
X77000010Y-81100001D03*
G04 #@! TD*
G04 #@! TO.P,D25,1*
G04 #@! TO.N,Board_2-Net-(D17-Pad3)*
X77000010Y-60100001D03*
G04 #@! TO.P,D25,4*
G04 #@! TO.N,Board_2-GND*
X77000010Y-58400001D03*
G04 #@! TO.P,D25,2*
G04 #@! TO.N,Board_2-+5V*
X78000010Y-60100001D03*
G04 #@! TO.P,D25,3*
G04 #@! TO.N,Board_2-Net-(D25-Pad3)*
X78000010Y-58400001D03*
G04 #@! TD*
G04 #@! TO.P,D26,1*
G04 #@! TO.N,Board_2-Net-(D18-Pad3)*
X75500010Y-61400001D03*
G04 #@! TO.P,D26,4*
G04 #@! TO.N,Board_2-GND*
X75500010Y-63100001D03*
G04 #@! TO.P,D26,2*
G04 #@! TO.N,Board_2-+5V*
X74500010Y-61400001D03*
G04 #@! TO.P,D26,3*
G04 #@! TO.N,Board_2-Net-(D26-Pad3)*
X74500010Y-63100001D03*
G04 #@! TD*
G04 #@! TO.P,D27,1*
G04 #@! TO.N,Board_2-Net-(D19-Pad3)*
X77000010Y-66100001D03*
G04 #@! TO.P,D27,4*
G04 #@! TO.N,Board_2-GND*
X77000010Y-64400001D03*
G04 #@! TO.P,D27,2*
G04 #@! TO.N,Board_2-+5V*
X78000010Y-66100001D03*
G04 #@! TO.P,D27,3*
G04 #@! TO.N,Board_2-Net-(D27-Pad3)*
X78000010Y-64400001D03*
G04 #@! TD*
G04 #@! TO.P,D28,1*
G04 #@! TO.N,Board_2-Net-(D20-Pad3)*
X75500010Y-67400001D03*
G04 #@! TO.P,D28,4*
G04 #@! TO.N,Board_2-GND*
X75500010Y-69100001D03*
G04 #@! TO.P,D28,2*
G04 #@! TO.N,Board_2-+5V*
X74500010Y-67400001D03*
G04 #@! TO.P,D28,3*
G04 #@! TO.N,Board_2-Net-(D28-Pad3)*
X74500010Y-69100001D03*
G04 #@! TD*
G04 #@! TO.P,D29,1*
G04 #@! TO.N,Board_2-Net-(D21-Pad3)*
X77000010Y-72100001D03*
G04 #@! TO.P,D29,4*
G04 #@! TO.N,Board_2-GND*
X77000010Y-70400001D03*
G04 #@! TO.P,D29,2*
G04 #@! TO.N,Board_2-+5V*
X78000010Y-72100001D03*
G04 #@! TO.P,D29,3*
G04 #@! TO.N,Board_2-Net-(D29-Pad3)*
X78000010Y-70400001D03*
G04 #@! TD*
G04 #@! TO.P,D30,1*
G04 #@! TO.N,Board_2-Net-(D22-Pad3)*
X75500010Y-73400001D03*
G04 #@! TO.P,D30,4*
G04 #@! TO.N,Board_2-GND*
X75500010Y-75100001D03*
G04 #@! TO.P,D30,2*
G04 #@! TO.N,Board_2-+5V*
X74500010Y-73400001D03*
G04 #@! TO.P,D30,3*
G04 #@! TO.N,Board_2-Net-(D30-Pad3)*
X74500010Y-75100001D03*
G04 #@! TD*
G04 #@! TO.P,D31,1*
G04 #@! TO.N,Board_2-Net-(D23-Pad3)*
X77000010Y-78100001D03*
G04 #@! TO.P,D31,4*
G04 #@! TO.N,Board_2-GND*
X77000010Y-76400001D03*
G04 #@! TO.P,D31,2*
G04 #@! TO.N,Board_2-+5V*
X78000010Y-78100001D03*
G04 #@! TO.P,D31,3*
G04 #@! TO.N,Board_2-Net-(D31-Pad3)*
X78000010Y-76400001D03*
G04 #@! TD*
G04 #@! TO.P,D32,1*
G04 #@! TO.N,Board_2-Net-(D24-Pad3)*
X75500010Y-79400001D03*
G04 #@! TO.P,D32,4*
G04 #@! TO.N,Board_2-GND*
X75500010Y-81100001D03*
G04 #@! TO.P,D32,2*
G04 #@! TO.N,Board_2-+5V*
X74500010Y-79400001D03*
G04 #@! TO.P,D32,3*
G04 #@! TO.N,Board_2-Net-(D32-Pad3)*
X74500010Y-81100001D03*
G04 #@! TD*
G04 #@! TO.P,D33,1*
G04 #@! TO.N,Board_2-Net-(D25-Pad3)*
X79500010Y-60100001D03*
G04 #@! TO.P,D33,4*
G04 #@! TO.N,Board_2-GND*
X79500010Y-58400001D03*
G04 #@! TO.P,D33,2*
G04 #@! TO.N,Board_2-+5V*
X80500010Y-60100001D03*
G04 #@! TO.P,D33,3*
G04 #@! TO.N,Board_2-Net-(D33-Pad3)*
X80500010Y-58400001D03*
G04 #@! TD*
G04 #@! TO.P,D34,1*
G04 #@! TO.N,Board_2-Net-(D26-Pad3)*
X73000010Y-61400001D03*
G04 #@! TO.P,D34,4*
G04 #@! TO.N,Board_2-GND*
X73000010Y-63100001D03*
G04 #@! TO.P,D34,2*
G04 #@! TO.N,Board_2-+5V*
X72000010Y-61400001D03*
G04 #@! TO.P,D34,3*
G04 #@! TO.N,Board_2-Net-(D34-Pad3)*
X72000010Y-63100001D03*
G04 #@! TD*
G04 #@! TO.P,D35,1*
G04 #@! TO.N,Board_2-Net-(D27-Pad3)*
X79500010Y-66100001D03*
G04 #@! TO.P,D35,4*
G04 #@! TO.N,Board_2-GND*
X79500010Y-64400001D03*
G04 #@! TO.P,D35,2*
G04 #@! TO.N,Board_2-+5V*
X80500010Y-66100001D03*
G04 #@! TO.P,D35,3*
G04 #@! TO.N,Board_2-Net-(D35-Pad3)*
X80500010Y-64400001D03*
G04 #@! TD*
G04 #@! TO.P,D36,1*
G04 #@! TO.N,Board_2-Net-(D28-Pad3)*
X73000010Y-67400001D03*
G04 #@! TO.P,D36,4*
G04 #@! TO.N,Board_2-GND*
X73000010Y-69100001D03*
G04 #@! TO.P,D36,2*
G04 #@! TO.N,Board_2-+5V*
X72000010Y-67400001D03*
G04 #@! TO.P,D36,3*
G04 #@! TO.N,Board_2-Net-(D36-Pad3)*
X72000010Y-69100001D03*
G04 #@! TD*
G04 #@! TO.P,D37,1*
G04 #@! TO.N,Board_2-Net-(D29-Pad3)*
X79500010Y-72100001D03*
G04 #@! TO.P,D37,4*
G04 #@! TO.N,Board_2-GND*
X79500010Y-70400001D03*
G04 #@! TO.P,D37,2*
G04 #@! TO.N,Board_2-+5V*
X80500010Y-72100001D03*
G04 #@! TO.P,D37,3*
G04 #@! TO.N,Board_2-Net-(D37-Pad3)*
X80500010Y-70400001D03*
G04 #@! TD*
G04 #@! TO.P,D38,1*
G04 #@! TO.N,Board_2-Net-(D30-Pad3)*
X73000010Y-73400001D03*
G04 #@! TO.P,D38,4*
G04 #@! TO.N,Board_2-GND*
X73000010Y-75100001D03*
G04 #@! TO.P,D38,2*
G04 #@! TO.N,Board_2-+5V*
X72000010Y-73400001D03*
G04 #@! TO.P,D38,3*
G04 #@! TO.N,Board_2-Net-(D38-Pad3)*
X72000010Y-75100001D03*
G04 #@! TD*
G04 #@! TO.P,D39,1*
G04 #@! TO.N,Board_2-Net-(D31-Pad3)*
X79500010Y-78100001D03*
G04 #@! TO.P,D39,4*
G04 #@! TO.N,Board_2-GND*
X79500010Y-76400001D03*
G04 #@! TO.P,D39,2*
G04 #@! TO.N,Board_2-+5V*
X80500010Y-78100001D03*
G04 #@! TO.P,D39,3*
G04 #@! TO.N,Board_2-Net-(D39-Pad3)*
X80500010Y-76400001D03*
G04 #@! TD*
G04 #@! TO.P,D40,1*
G04 #@! TO.N,Board_2-Net-(D32-Pad3)*
X73000010Y-79400001D03*
G04 #@! TO.P,D40,4*
G04 #@! TO.N,Board_2-GND*
X73000010Y-81100001D03*
G04 #@! TO.P,D40,2*
G04 #@! TO.N,Board_2-+5V*
X72000010Y-79400001D03*
G04 #@! TO.P,D40,3*
G04 #@! TO.N,Board_2-Net-(D40-Pad3)*
X72000010Y-81100001D03*
G04 #@! TD*
G04 #@! TO.P,D41,1*
G04 #@! TO.N,Board_2-Net-(D33-Pad3)*
X82000010Y-60100001D03*
G04 #@! TO.P,D41,4*
G04 #@! TO.N,Board_2-GND*
X82000010Y-58400001D03*
G04 #@! TO.P,D41,2*
G04 #@! TO.N,Board_2-+5V*
X83000010Y-60100001D03*
G04 #@! TO.P,D41,3*
G04 #@! TO.N,Board_2-/end-of-row-1*
X83000010Y-58400001D03*
G04 #@! TD*
G04 #@! TO.P,D43,1*
G04 #@! TO.N,Board_2-Net-(D35-Pad3)*
X82000010Y-66100001D03*
G04 #@! TO.P,D43,4*
G04 #@! TO.N,Board_2-GND*
X82000010Y-64400001D03*
G04 #@! TO.P,D43,2*
G04 #@! TO.N,Board_2-+5V*
X83000010Y-66100001D03*
G04 #@! TO.P,D43,3*
G04 #@! TO.N,Board_2-/end-of-row-3*
X83000010Y-64400001D03*
G04 #@! TD*
G04 #@! TO.P,D44,1*
G04 #@! TO.N,Board_2-Net-(D36-Pad3)*
X70500010Y-67400001D03*
G04 #@! TO.P,D44,4*
G04 #@! TO.N,Board_2-GND*
X70500010Y-69100001D03*
G04 #@! TO.P,D44,2*
G04 #@! TO.N,Board_2-+5V*
X69500010Y-67400001D03*
G04 #@! TO.P,D44,3*
G04 #@! TO.N,Board_2-/end-of-row-4*
X69500010Y-69100001D03*
G04 #@! TD*
G04 #@! TO.P,D45,1*
G04 #@! TO.N,Board_2-Net-(D37-Pad3)*
X82000010Y-72100001D03*
G04 #@! TO.P,D45,4*
G04 #@! TO.N,Board_2-GND*
X82000010Y-70400001D03*
G04 #@! TO.P,D45,2*
G04 #@! TO.N,Board_2-+5V*
X83000010Y-72100001D03*
G04 #@! TO.P,D45,3*
G04 #@! TO.N,Board_2-/end-of-row-5*
X83000010Y-70400001D03*
G04 #@! TD*
G04 #@! TO.P,D46,1*
G04 #@! TO.N,Board_2-Net-(D38-Pad3)*
X70500010Y-73400001D03*
G04 #@! TO.P,D46,4*
G04 #@! TO.N,Board_2-GND*
X70500010Y-75100001D03*
G04 #@! TO.P,D46,2*
G04 #@! TO.N,Board_2-+5V*
X69500010Y-73400001D03*
G04 #@! TO.P,D46,3*
G04 #@! TO.N,Board_2-/end-of-row-6*
X69500010Y-75100001D03*
G04 #@! TD*
G04 #@! TO.P,D47,1*
G04 #@! TO.N,Board_2-Net-(D39-Pad3)*
X82000010Y-78100001D03*
G04 #@! TO.P,D47,4*
G04 #@! TO.N,Board_2-GND*
X82000010Y-76400001D03*
G04 #@! TO.P,D47,2*
G04 #@! TO.N,Board_2-+5V*
X83000010Y-78100001D03*
G04 #@! TO.P,D47,3*
G04 #@! TO.N,Board_2-/end-of-row-7*
X83000010Y-76400001D03*
G04 #@! TD*
G04 #@! TO.P,D48,1*
G04 #@! TO.N,Board_2-Net-(D40-Pad3)*
X70500010Y-79400001D03*
G04 #@! TO.P,D48,4*
G04 #@! TO.N,Board_2-GND*
X70500010Y-81100001D03*
G04 #@! TO.P,D48,2*
G04 #@! TO.N,Board_2-+5V*
X69500010Y-79400001D03*
G04 #@! TO.P,D48,3*
G04 #@! TO.N,Board_2-Net-(D48-Pad3)*
X69500010Y-81100001D03*
G04 #@! TD*
G04 #@! TO.P,D42,1*
G04 #@! TO.N,Board_2-Net-(D34-Pad3)*
X70500010Y-61400001D03*
G04 #@! TO.P,D42,4*
G04 #@! TO.N,Board_2-GND*
X70500010Y-63100001D03*
G04 #@! TO.P,D42,2*
G04 #@! TO.N,Board_2-+5V*
X69500010Y-61400001D03*
G04 #@! TO.P,D42,3*
G04 #@! TO.N,Board_2-/end-of-row-2*
X69500010Y-63100001D03*
G04 #@! TD*
D11*
G04 #@! TO.P,J1,1*
G04 #@! TO.N,Board_2-GND*
X72250010Y-53750001D03*
G04 #@! TO.P,J1,2*
X80250010Y-53750001D03*
G04 #@! TD*
G04 #@! TO.P,J2,1*
G04 #@! TO.N,Board_2-GND*
X72250010Y-93750001D03*
G04 #@! TO.P,J2,2*
X80250010Y-93750001D03*
G04 #@! TD*
D10*
G04 #@! TO.P,D1,1*
G04 #@! TO.N,Board_1-Net-(D1-Pad1)*
X51000001Y-60100001D03*
G04 #@! TO.P,D1,4*
G04 #@! TO.N,Board_1-GND*
X51000001Y-58400001D03*
G04 #@! TO.P,D1,2*
G04 #@! TO.N,Board_1-+5V*
X52000001Y-60100001D03*
G04 #@! TO.P,D1,3*
G04 #@! TO.N,Board_1-Net-(D1-Pad3)*
X52000001Y-58400001D03*
G04 #@! TD*
G04 #@! TO.P,D2,1*
G04 #@! TO.N,Board_1-/end-of-row-1*
X64500001Y-61400001D03*
G04 #@! TO.P,D2,4*
G04 #@! TO.N,Board_1-GND*
X64500001Y-63100001D03*
G04 #@! TO.P,D2,2*
G04 #@! TO.N,Board_1-+5V*
X63500001Y-61400001D03*
G04 #@! TO.P,D2,3*
G04 #@! TO.N,Board_1-Net-(D10-Pad1)*
X63500001Y-63100001D03*
G04 #@! TD*
G04 #@! TO.P,D3,1*
G04 #@! TO.N,Board_1-/end-of-row-2*
X51000001Y-66100001D03*
G04 #@! TO.P,D3,4*
G04 #@! TO.N,Board_1-GND*
X51000001Y-64400001D03*
G04 #@! TO.P,D3,2*
G04 #@! TO.N,Board_1-+5V*
X52000001Y-66100001D03*
G04 #@! TO.P,D3,3*
G04 #@! TO.N,Board_1-Net-(D11-Pad1)*
X52000001Y-64400001D03*
G04 #@! TD*
G04 #@! TO.P,D4,1*
G04 #@! TO.N,Board_1-/end-of-row-3*
X64500001Y-67400001D03*
G04 #@! TO.P,D4,4*
G04 #@! TO.N,Board_1-GND*
X64500001Y-69100001D03*
G04 #@! TO.P,D4,2*
G04 #@! TO.N,Board_1-+5V*
X63500001Y-67400001D03*
G04 #@! TO.P,D4,3*
G04 #@! TO.N,Board_1-Net-(D12-Pad1)*
X63500001Y-69100001D03*
G04 #@! TD*
G04 #@! TO.P,D5,1*
G04 #@! TO.N,Board_1-/end-of-row-4*
X51000001Y-72100001D03*
G04 #@! TO.P,D5,4*
G04 #@! TO.N,Board_1-GND*
X51000001Y-70400001D03*
G04 #@! TO.P,D5,2*
G04 #@! TO.N,Board_1-+5V*
X52000001Y-72100001D03*
G04 #@! TO.P,D5,3*
G04 #@! TO.N,Board_1-Net-(D13-Pad1)*
X52000001Y-70400001D03*
G04 #@! TD*
G04 #@! TO.P,D6,1*
G04 #@! TO.N,Board_1-/end-of-row-5*
X64500001Y-73400001D03*
G04 #@! TO.P,D6,4*
G04 #@! TO.N,Board_1-GND*
X64500001Y-75100001D03*
G04 #@! TO.P,D6,2*
G04 #@! TO.N,Board_1-+5V*
X63500001Y-73400001D03*
G04 #@! TO.P,D6,3*
G04 #@! TO.N,Board_1-Net-(D14-Pad1)*
X63500001Y-75100001D03*
G04 #@! TD*
G04 #@! TO.P,D7,1*
G04 #@! TO.N,Board_1-/end-of-row-6*
X51000001Y-78100001D03*
G04 #@! TO.P,D7,4*
G04 #@! TO.N,Board_1-GND*
X51000001Y-76400001D03*
G04 #@! TO.P,D7,2*
G04 #@! TO.N,Board_1-+5V*
X52000001Y-78100001D03*
G04 #@! TO.P,D7,3*
G04 #@! TO.N,Board_1-Net-(D15-Pad1)*
X52000001Y-76400001D03*
G04 #@! TD*
G04 #@! TO.P,D8,1*
G04 #@! TO.N,Board_1-/end-of-row-7*
X64500001Y-79400001D03*
G04 #@! TO.P,D8,4*
G04 #@! TO.N,Board_1-GND*
X64500001Y-81100001D03*
G04 #@! TO.P,D8,2*
G04 #@! TO.N,Board_1-+5V*
X63500001Y-79400001D03*
G04 #@! TO.P,D8,3*
G04 #@! TO.N,Board_1-Net-(D16-Pad1)*
X63500001Y-81100001D03*
G04 #@! TD*
G04 #@! TO.P,D9,1*
G04 #@! TO.N,Board_1-Net-(D1-Pad3)*
X53500001Y-60100001D03*
G04 #@! TO.P,D9,4*
G04 #@! TO.N,Board_1-GND*
X53500001Y-58400001D03*
G04 #@! TO.P,D9,2*
G04 #@! TO.N,Board_1-+5V*
X54500001Y-60100001D03*
G04 #@! TO.P,D9,3*
G04 #@! TO.N,Board_1-Net-(D17-Pad1)*
X54500001Y-58400001D03*
G04 #@! TD*
G04 #@! TO.P,D10,1*
G04 #@! TO.N,Board_1-Net-(D10-Pad1)*
X62000001Y-61400001D03*
G04 #@! TO.P,D10,4*
G04 #@! TO.N,Board_1-GND*
X62000001Y-63100001D03*
G04 #@! TO.P,D10,2*
G04 #@! TO.N,Board_1-+5V*
X61000001Y-61400001D03*
G04 #@! TO.P,D10,3*
G04 #@! TO.N,Board_1-Net-(D10-Pad3)*
X61000001Y-63100001D03*
G04 #@! TD*
G04 #@! TO.P,D11,1*
G04 #@! TO.N,Board_1-Net-(D11-Pad1)*
X53500001Y-66100001D03*
G04 #@! TO.P,D11,4*
G04 #@! TO.N,Board_1-GND*
X53500001Y-64400001D03*
G04 #@! TO.P,D11,2*
G04 #@! TO.N,Board_1-+5V*
X54500001Y-66100001D03*
G04 #@! TO.P,D11,3*
G04 #@! TO.N,Board_1-Net-(D11-Pad3)*
X54500001Y-64400001D03*
G04 #@! TD*
G04 #@! TO.P,D12,1*
G04 #@! TO.N,Board_1-Net-(D12-Pad1)*
X62000001Y-67400001D03*
G04 #@! TO.P,D12,4*
G04 #@! TO.N,Board_1-GND*
X62000001Y-69100001D03*
G04 #@! TO.P,D12,2*
G04 #@! TO.N,Board_1-+5V*
X61000001Y-67400001D03*
G04 #@! TO.P,D12,3*
G04 #@! TO.N,Board_1-Net-(D12-Pad3)*
X61000001Y-69100001D03*
G04 #@! TD*
G04 #@! TO.P,D13,1*
G04 #@! TO.N,Board_1-Net-(D13-Pad1)*
X53500001Y-72100001D03*
G04 #@! TO.P,D13,4*
G04 #@! TO.N,Board_1-GND*
X53500001Y-70400001D03*
G04 #@! TO.P,D13,2*
G04 #@! TO.N,Board_1-+5V*
X54500001Y-72100001D03*
G04 #@! TO.P,D13,3*
G04 #@! TO.N,Board_1-Net-(D13-Pad3)*
X54500001Y-70400001D03*
G04 #@! TD*
G04 #@! TO.P,D14,1*
G04 #@! TO.N,Board_1-Net-(D14-Pad1)*
X62000001Y-73400001D03*
G04 #@! TO.P,D14,4*
G04 #@! TO.N,Board_1-GND*
X62000001Y-75100001D03*
G04 #@! TO.P,D14,2*
G04 #@! TO.N,Board_1-+5V*
X61000001Y-73400001D03*
G04 #@! TO.P,D14,3*
G04 #@! TO.N,Board_1-Net-(D14-Pad3)*
X61000001Y-75100001D03*
G04 #@! TD*
G04 #@! TO.P,D15,1*
G04 #@! TO.N,Board_1-Net-(D15-Pad1)*
X53500001Y-78100001D03*
G04 #@! TO.P,D15,4*
G04 #@! TO.N,Board_1-GND*
X53500001Y-76400001D03*
G04 #@! TO.P,D15,2*
G04 #@! TO.N,Board_1-+5V*
X54500001Y-78100001D03*
G04 #@! TO.P,D15,3*
G04 #@! TO.N,Board_1-Net-(D15-Pad3)*
X54500001Y-76400001D03*
G04 #@! TD*
G04 #@! TO.P,D16,1*
G04 #@! TO.N,Board_1-Net-(D16-Pad1)*
X62000001Y-79400001D03*
G04 #@! TO.P,D16,4*
G04 #@! TO.N,Board_1-GND*
X62000001Y-81100001D03*
G04 #@! TO.P,D16,2*
G04 #@! TO.N,Board_1-+5V*
X61000001Y-79400001D03*
G04 #@! TO.P,D16,3*
G04 #@! TO.N,Board_1-Net-(D16-Pad3)*
X61000001Y-81100001D03*
G04 #@! TD*
G04 #@! TO.P,D17,1*
G04 #@! TO.N,Board_1-Net-(D17-Pad1)*
X56000001Y-60100001D03*
G04 #@! TO.P,D17,4*
G04 #@! TO.N,Board_1-GND*
X56000001Y-58400001D03*
G04 #@! TO.P,D17,2*
G04 #@! TO.N,Board_1-+5V*
X57000001Y-60100001D03*
G04 #@! TO.P,D17,3*
G04 #@! TO.N,Board_1-Net-(D17-Pad3)*
X57000001Y-58400001D03*
G04 #@! TD*
G04 #@! TO.P,D18,1*
G04 #@! TO.N,Board_1-Net-(D10-Pad3)*
X59500001Y-61400001D03*
G04 #@! TO.P,D18,4*
G04 #@! TO.N,Board_1-GND*
X59500001Y-63100001D03*
G04 #@! TO.P,D18,2*
G04 #@! TO.N,Board_1-+5V*
X58500001Y-61400001D03*
G04 #@! TO.P,D18,3*
G04 #@! TO.N,Board_1-Net-(D18-Pad3)*
X58500001Y-63100001D03*
G04 #@! TD*
G04 #@! TO.P,D19,1*
G04 #@! TO.N,Board_1-Net-(D11-Pad3)*
X56000001Y-66100001D03*
G04 #@! TO.P,D19,4*
G04 #@! TO.N,Board_1-GND*
X56000001Y-64400001D03*
G04 #@! TO.P,D19,2*
G04 #@! TO.N,Board_1-+5V*
X57000001Y-66100001D03*
G04 #@! TO.P,D19,3*
G04 #@! TO.N,Board_1-Net-(D19-Pad3)*
X57000001Y-64400001D03*
G04 #@! TD*
G04 #@! TO.P,D20,1*
G04 #@! TO.N,Board_1-Net-(D12-Pad3)*
X59500001Y-67400001D03*
G04 #@! TO.P,D20,4*
G04 #@! TO.N,Board_1-GND*
X59500001Y-69100001D03*
G04 #@! TO.P,D20,2*
G04 #@! TO.N,Board_1-+5V*
X58500001Y-67400001D03*
G04 #@! TO.P,D20,3*
G04 #@! TO.N,Board_1-Net-(D20-Pad3)*
X58500001Y-69100001D03*
G04 #@! TD*
G04 #@! TO.P,D21,1*
G04 #@! TO.N,Board_1-Net-(D13-Pad3)*
X56000001Y-72100001D03*
G04 #@! TO.P,D21,4*
G04 #@! TO.N,Board_1-GND*
X56000001Y-70400001D03*
G04 #@! TO.P,D21,2*
G04 #@! TO.N,Board_1-+5V*
X57000001Y-72100001D03*
G04 #@! TO.P,D21,3*
G04 #@! TO.N,Board_1-Net-(D21-Pad3)*
X57000001Y-70400001D03*
G04 #@! TD*
G04 #@! TO.P,D22,1*
G04 #@! TO.N,Board_1-Net-(D14-Pad3)*
X59500001Y-73400001D03*
G04 #@! TO.P,D22,4*
G04 #@! TO.N,Board_1-GND*
X59500001Y-75100001D03*
G04 #@! TO.P,D22,2*
G04 #@! TO.N,Board_1-+5V*
X58500001Y-73400001D03*
G04 #@! TO.P,D22,3*
G04 #@! TO.N,Board_1-Net-(D22-Pad3)*
X58500001Y-75100001D03*
G04 #@! TD*
G04 #@! TO.P,D23,1*
G04 #@! TO.N,Board_1-Net-(D15-Pad3)*
X56000001Y-78100001D03*
G04 #@! TO.P,D23,4*
G04 #@! TO.N,Board_1-GND*
X56000001Y-76400001D03*
G04 #@! TO.P,D23,2*
G04 #@! TO.N,Board_1-+5V*
X57000001Y-78100001D03*
G04 #@! TO.P,D23,3*
G04 #@! TO.N,Board_1-Net-(D23-Pad3)*
X57000001Y-76400001D03*
G04 #@! TD*
G04 #@! TO.P,D24,1*
G04 #@! TO.N,Board_1-Net-(D16-Pad3)*
X59500001Y-79400001D03*
G04 #@! TO.P,D24,4*
G04 #@! TO.N,Board_1-GND*
X59500001Y-81100001D03*
G04 #@! TO.P,D24,2*
G04 #@! TO.N,Board_1-+5V*
X58500001Y-79400001D03*
G04 #@! TO.P,D24,3*
G04 #@! TO.N,Board_1-Net-(D24-Pad3)*
X58500001Y-81100001D03*
G04 #@! TD*
G04 #@! TO.P,D25,1*
G04 #@! TO.N,Board_1-Net-(D17-Pad3)*
X58500001Y-60100001D03*
G04 #@! TO.P,D25,4*
G04 #@! TO.N,Board_1-GND*
X58500001Y-58400001D03*
G04 #@! TO.P,D25,2*
G04 #@! TO.N,Board_1-+5V*
X59500001Y-60100001D03*
G04 #@! TO.P,D25,3*
G04 #@! TO.N,Board_1-Net-(D25-Pad3)*
X59500001Y-58400001D03*
G04 #@! TD*
G04 #@! TO.P,D26,1*
G04 #@! TO.N,Board_1-Net-(D18-Pad3)*
X57000001Y-61400001D03*
G04 #@! TO.P,D26,4*
G04 #@! TO.N,Board_1-GND*
X57000001Y-63100001D03*
G04 #@! TO.P,D26,2*
G04 #@! TO.N,Board_1-+5V*
X56000001Y-61400001D03*
G04 #@! TO.P,D26,3*
G04 #@! TO.N,Board_1-Net-(D26-Pad3)*
X56000001Y-63100001D03*
G04 #@! TD*
G04 #@! TO.P,D27,1*
G04 #@! TO.N,Board_1-Net-(D19-Pad3)*
X58500001Y-66100001D03*
G04 #@! TO.P,D27,4*
G04 #@! TO.N,Board_1-GND*
X58500001Y-64400001D03*
G04 #@! TO.P,D27,2*
G04 #@! TO.N,Board_1-+5V*
X59500001Y-66100001D03*
G04 #@! TO.P,D27,3*
G04 #@! TO.N,Board_1-Net-(D27-Pad3)*
X59500001Y-64400001D03*
G04 #@! TD*
G04 #@! TO.P,D28,1*
G04 #@! TO.N,Board_1-Net-(D20-Pad3)*
X57000001Y-67400001D03*
G04 #@! TO.P,D28,4*
G04 #@! TO.N,Board_1-GND*
X57000001Y-69100001D03*
G04 #@! TO.P,D28,2*
G04 #@! TO.N,Board_1-+5V*
X56000001Y-67400001D03*
G04 #@! TO.P,D28,3*
G04 #@! TO.N,Board_1-Net-(D28-Pad3)*
X56000001Y-69100001D03*
G04 #@! TD*
G04 #@! TO.P,D29,1*
G04 #@! TO.N,Board_1-Net-(D21-Pad3)*
X58500001Y-72100001D03*
G04 #@! TO.P,D29,4*
G04 #@! TO.N,Board_1-GND*
X58500001Y-70400001D03*
G04 #@! TO.P,D29,2*
G04 #@! TO.N,Board_1-+5V*
X59500001Y-72100001D03*
G04 #@! TO.P,D29,3*
G04 #@! TO.N,Board_1-Net-(D29-Pad3)*
X59500001Y-70400001D03*
G04 #@! TD*
G04 #@! TO.P,D30,1*
G04 #@! TO.N,Board_1-Net-(D22-Pad3)*
X57000001Y-73400001D03*
G04 #@! TO.P,D30,4*
G04 #@! TO.N,Board_1-GND*
X57000001Y-75100001D03*
G04 #@! TO.P,D30,2*
G04 #@! TO.N,Board_1-+5V*
X56000001Y-73400001D03*
G04 #@! TO.P,D30,3*
G04 #@! TO.N,Board_1-Net-(D30-Pad3)*
X56000001Y-75100001D03*
G04 #@! TD*
G04 #@! TO.P,D31,1*
G04 #@! TO.N,Board_1-Net-(D23-Pad3)*
X58500001Y-78100001D03*
G04 #@! TO.P,D31,4*
G04 #@! TO.N,Board_1-GND*
X58500001Y-76400001D03*
G04 #@! TO.P,D31,2*
G04 #@! TO.N,Board_1-+5V*
X59500001Y-78100001D03*
G04 #@! TO.P,D31,3*
G04 #@! TO.N,Board_1-Net-(D31-Pad3)*
X59500001Y-76400001D03*
G04 #@! TD*
G04 #@! TO.P,D32,1*
G04 #@! TO.N,Board_1-Net-(D24-Pad3)*
X57000001Y-79400001D03*
G04 #@! TO.P,D32,4*
G04 #@! TO.N,Board_1-GND*
X57000001Y-81100001D03*
G04 #@! TO.P,D32,2*
G04 #@! TO.N,Board_1-+5V*
X56000001Y-79400001D03*
G04 #@! TO.P,D32,3*
G04 #@! TO.N,Board_1-Net-(D32-Pad3)*
X56000001Y-81100001D03*
G04 #@! TD*
G04 #@! TO.P,D33,1*
G04 #@! TO.N,Board_1-Net-(D25-Pad3)*
X61000001Y-60100001D03*
G04 #@! TO.P,D33,4*
G04 #@! TO.N,Board_1-GND*
X61000001Y-58400001D03*
G04 #@! TO.P,D33,2*
G04 #@! TO.N,Board_1-+5V*
X62000001Y-60100001D03*
G04 #@! TO.P,D33,3*
G04 #@! TO.N,Board_1-Net-(D33-Pad3)*
X62000001Y-58400001D03*
G04 #@! TD*
G04 #@! TO.P,D34,1*
G04 #@! TO.N,Board_1-Net-(D26-Pad3)*
X54500001Y-61400001D03*
G04 #@! TO.P,D34,4*
G04 #@! TO.N,Board_1-GND*
X54500001Y-63100001D03*
G04 #@! TO.P,D34,2*
G04 #@! TO.N,Board_1-+5V*
X53500001Y-61400001D03*
G04 #@! TO.P,D34,3*
G04 #@! TO.N,Board_1-Net-(D34-Pad3)*
X53500001Y-63100001D03*
G04 #@! TD*
G04 #@! TO.P,D35,1*
G04 #@! TO.N,Board_1-Net-(D27-Pad3)*
X61000001Y-66100001D03*
G04 #@! TO.P,D35,4*
G04 #@! TO.N,Board_1-GND*
X61000001Y-64400001D03*
G04 #@! TO.P,D35,2*
G04 #@! TO.N,Board_1-+5V*
X62000001Y-66100001D03*
G04 #@! TO.P,D35,3*
G04 #@! TO.N,Board_1-Net-(D35-Pad3)*
X62000001Y-64400001D03*
G04 #@! TD*
G04 #@! TO.P,D36,1*
G04 #@! TO.N,Board_1-Net-(D28-Pad3)*
X54500001Y-67400001D03*
G04 #@! TO.P,D36,4*
G04 #@! TO.N,Board_1-GND*
X54500001Y-69100001D03*
G04 #@! TO.P,D36,2*
G04 #@! TO.N,Board_1-+5V*
X53500001Y-67400001D03*
G04 #@! TO.P,D36,3*
G04 #@! TO.N,Board_1-Net-(D36-Pad3)*
X53500001Y-69100001D03*
G04 #@! TD*
G04 #@! TO.P,D37,1*
G04 #@! TO.N,Board_1-Net-(D29-Pad3)*
X61000001Y-72100001D03*
G04 #@! TO.P,D37,4*
G04 #@! TO.N,Board_1-GND*
X61000001Y-70400001D03*
G04 #@! TO.P,D37,2*
G04 #@! TO.N,Board_1-+5V*
X62000001Y-72100001D03*
G04 #@! TO.P,D37,3*
G04 #@! TO.N,Board_1-Net-(D37-Pad3)*
X62000001Y-70400001D03*
G04 #@! TD*
G04 #@! TO.P,D38,1*
G04 #@! TO.N,Board_1-Net-(D30-Pad3)*
X54500001Y-73400001D03*
G04 #@! TO.P,D38,4*
G04 #@! TO.N,Board_1-GND*
X54500001Y-75100001D03*
G04 #@! TO.P,D38,2*
G04 #@! TO.N,Board_1-+5V*
X53500001Y-73400001D03*
G04 #@! TO.P,D38,3*
G04 #@! TO.N,Board_1-Net-(D38-Pad3)*
X53500001Y-75100001D03*
G04 #@! TD*
G04 #@! TO.P,D39,1*
G04 #@! TO.N,Board_1-Net-(D31-Pad3)*
X61000001Y-78100001D03*
G04 #@! TO.P,D39,4*
G04 #@! TO.N,Board_1-GND*
X61000001Y-76400001D03*
G04 #@! TO.P,D39,2*
G04 #@! TO.N,Board_1-+5V*
X62000001Y-78100001D03*
G04 #@! TO.P,D39,3*
G04 #@! TO.N,Board_1-Net-(D39-Pad3)*
X62000001Y-76400001D03*
G04 #@! TD*
G04 #@! TO.P,D40,1*
G04 #@! TO.N,Board_1-Net-(D32-Pad3)*
X54500001Y-79400001D03*
G04 #@! TO.P,D40,4*
G04 #@! TO.N,Board_1-GND*
X54500001Y-81100001D03*
G04 #@! TO.P,D40,2*
G04 #@! TO.N,Board_1-+5V*
X53500001Y-79400001D03*
G04 #@! TO.P,D40,3*
G04 #@! TO.N,Board_1-Net-(D40-Pad3)*
X53500001Y-81100001D03*
G04 #@! TD*
G04 #@! TO.P,D41,1*
G04 #@! TO.N,Board_1-Net-(D33-Pad3)*
X63500001Y-60100001D03*
G04 #@! TO.P,D41,4*
G04 #@! TO.N,Board_1-GND*
X63500001Y-58400001D03*
G04 #@! TO.P,D41,2*
G04 #@! TO.N,Board_1-+5V*
X64500001Y-60100001D03*
G04 #@! TO.P,D41,3*
G04 #@! TO.N,Board_1-/end-of-row-1*
X64500001Y-58400001D03*
G04 #@! TD*
G04 #@! TO.P,D43,1*
G04 #@! TO.N,Board_1-Net-(D35-Pad3)*
X63500001Y-66100001D03*
G04 #@! TO.P,D43,4*
G04 #@! TO.N,Board_1-GND*
X63500001Y-64400001D03*
G04 #@! TO.P,D43,2*
G04 #@! TO.N,Board_1-+5V*
X64500001Y-66100001D03*
G04 #@! TO.P,D43,3*
G04 #@! TO.N,Board_1-/end-of-row-3*
X64500001Y-64400001D03*
G04 #@! TD*
G04 #@! TO.P,D44,1*
G04 #@! TO.N,Board_1-Net-(D36-Pad3)*
X52000001Y-67400001D03*
G04 #@! TO.P,D44,4*
G04 #@! TO.N,Board_1-GND*
X52000001Y-69100001D03*
G04 #@! TO.P,D44,2*
G04 #@! TO.N,Board_1-+5V*
X51000001Y-67400001D03*
G04 #@! TO.P,D44,3*
G04 #@! TO.N,Board_1-/end-of-row-4*
X51000001Y-69100001D03*
G04 #@! TD*
G04 #@! TO.P,D45,1*
G04 #@! TO.N,Board_1-Net-(D37-Pad3)*
X63500001Y-72100001D03*
G04 #@! TO.P,D45,4*
G04 #@! TO.N,Board_1-GND*
X63500001Y-70400001D03*
G04 #@! TO.P,D45,2*
G04 #@! TO.N,Board_1-+5V*
X64500001Y-72100001D03*
G04 #@! TO.P,D45,3*
G04 #@! TO.N,Board_1-/end-of-row-5*
X64500001Y-70400001D03*
G04 #@! TD*
G04 #@! TO.P,D46,1*
G04 #@! TO.N,Board_1-Net-(D38-Pad3)*
X52000001Y-73400001D03*
G04 #@! TO.P,D46,4*
G04 #@! TO.N,Board_1-GND*
X52000001Y-75100001D03*
G04 #@! TO.P,D46,2*
G04 #@! TO.N,Board_1-+5V*
X51000001Y-73400001D03*
G04 #@! TO.P,D46,3*
G04 #@! TO.N,Board_1-/end-of-row-6*
X51000001Y-75100001D03*
G04 #@! TD*
G04 #@! TO.P,D47,1*
G04 #@! TO.N,Board_1-Net-(D39-Pad3)*
X63500001Y-78100001D03*
G04 #@! TO.P,D47,4*
G04 #@! TO.N,Board_1-GND*
X63500001Y-76400001D03*
G04 #@! TO.P,D47,2*
G04 #@! TO.N,Board_1-+5V*
X64500001Y-78100001D03*
G04 #@! TO.P,D47,3*
G04 #@! TO.N,Board_1-/end-of-row-7*
X64500001Y-76400001D03*
G04 #@! TD*
G04 #@! TO.P,D48,1*
G04 #@! TO.N,Board_1-Net-(D40-Pad3)*
X52000001Y-79400001D03*
G04 #@! TO.P,D48,4*
G04 #@! TO.N,Board_1-GND*
X52000001Y-81100001D03*
G04 #@! TO.P,D48,2*
G04 #@! TO.N,Board_1-+5V*
X51000001Y-79400001D03*
G04 #@! TO.P,D48,3*
G04 #@! TO.N,Board_1-Net-(D48-Pad3)*
X51000001Y-81100001D03*
G04 #@! TD*
G04 #@! TO.P,D42,1*
G04 #@! TO.N,Board_1-Net-(D34-Pad3)*
X52000001Y-61400001D03*
G04 #@! TO.P,D42,4*
G04 #@! TO.N,Board_1-GND*
X52000001Y-63100001D03*
G04 #@! TO.P,D42,2*
G04 #@! TO.N,Board_1-+5V*
X51000001Y-61400001D03*
G04 #@! TO.P,D42,3*
G04 #@! TO.N,Board_1-/end-of-row-2*
X51000001Y-63100001D03*
G04 #@! TD*
D11*
G04 #@! TO.P,J1,1*
G04 #@! TO.N,Board_1-GND*
X53750001Y-53750001D03*
G04 #@! TO.P,J1,2*
X61750001Y-53750001D03*
G04 #@! TD*
G04 #@! TO.P,J2,1*
G04 #@! TO.N,Board_1-GND*
X53750001Y-93750001D03*
G04 #@! TO.P,J2,2*
X61750001Y-93750001D03*
G04 #@! TD*
D12*
G04 #@! TO.N,Board_1-+5V*
X52750001Y-60750001D03*
X55250001Y-60750001D03*
X57750001Y-60750001D03*
X60250001Y-60750001D03*
X62750001Y-60750001D03*
X52750001Y-66750001D03*
X55250001Y-66750001D03*
X57750001Y-66750001D03*
X60250001Y-66750001D03*
X62750001Y-66750001D03*
X52750001Y-72750001D03*
X55250001Y-72750001D03*
X57750001Y-72750001D03*
X60250001Y-72750001D03*
X62750001Y-72750001D03*
X52750001Y-78750001D03*
X55250001Y-78750001D03*
X57750001Y-78750001D03*
X60250001Y-78750001D03*
X62750001Y-78750001D03*
X55000001Y-84000001D03*
X54000001Y-84000001D03*
X53000001Y-84000001D03*
X60500001Y-84000001D03*
X61500001Y-84000001D03*
X62500001Y-84000001D03*
D13*
X64750001Y-71250001D03*
X64750001Y-77250001D03*
X64750001Y-65250001D03*
X64750001Y-59250001D03*
X50750001Y-62250001D03*
X50750001Y-68250001D03*
X50750001Y-74250001D03*
X50750001Y-80250001D03*
G04 #@! TO.N,Board_1-/end-of-row-1*
X64000001Y-59250001D03*
X64000001Y-62250001D03*
G04 #@! TO.N,Board_1-/end-of-row-2*
X51500001Y-62250001D03*
X51500001Y-65250001D03*
G04 #@! TO.N,Board_1-/end-of-row-3*
X64000001Y-65250001D03*
X64000001Y-68250001D03*
G04 #@! TO.N,Board_1-/end-of-row-4*
X51500001Y-68250001D03*
X51500001Y-71250001D03*
G04 #@! TO.N,Board_1-/end-of-row-5*
X64000001Y-71250001D03*
X64000001Y-74250001D03*
G04 #@! TO.N,Board_1-/end-of-row-6*
X51500001Y-74250001D03*
X51500001Y-77250001D03*
G04 #@! TO.N,Board_1-/end-of-row-7*
X64000001Y-77250001D03*
X64000001Y-80250001D03*
D12*
G04 #@! TO.N,Board_1-GND*
X52750001Y-63750001D03*
X55250001Y-63750001D03*
X57750001Y-63750001D03*
X60250001Y-63750001D03*
X62750001Y-63750001D03*
X52750001Y-69750001D03*
X55250001Y-69750001D03*
X57750001Y-69750001D03*
X60250001Y-69750001D03*
X62750001Y-69750001D03*
X62750001Y-75750001D03*
X60250001Y-75750001D03*
X57750001Y-75750001D03*
X55250001Y-75750001D03*
X52750001Y-75750001D03*
X60500001Y-88000001D03*
X61500001Y-88000001D03*
X62500001Y-88000001D03*
X55000001Y-88000001D03*
X54000001Y-88000001D03*
X53000001Y-88000001D03*
X57750001Y-82250001D03*
D13*
X64750001Y-74250001D03*
X64750001Y-68250001D03*
X64750001Y-62250001D03*
X50750001Y-65250001D03*
X50750001Y-71250001D03*
X50750001Y-77250001D03*
D12*
X56250001Y-57000001D03*
X59250001Y-57000001D03*
X51250001Y-57000001D03*
X64250001Y-57000001D03*
D13*
X61500001Y-59250001D03*
X61500001Y-62250001D03*
X61500001Y-65250001D03*
X61500001Y-68250001D03*
X61500001Y-71250001D03*
X61500001Y-74250001D03*
X61500001Y-77250001D03*
X61500001Y-80250001D03*
X54000001Y-59250001D03*
X54000001Y-62250001D03*
X54000001Y-65250001D03*
X54000001Y-68250001D03*
X54000001Y-71250001D03*
X54000001Y-74250001D03*
X54000001Y-77250001D03*
G04 #@! TO.N,Board_1-Net-(D1-Pad1)*
X51500001Y-59250001D03*
X62000001Y-86000001D03*
G04 #@! TO.N,Board_1-Net-(D48-Pad3)*
X51500001Y-80250001D03*
X53500001Y-86000001D03*
D12*
G04 #@! TO.N,Board_2-+5V*
X71250010Y-60750001D03*
X73750010Y-60750001D03*
X76250010Y-60750001D03*
X78750010Y-60750001D03*
X81250010Y-60750001D03*
X71250010Y-66750001D03*
X73750010Y-66750001D03*
X76250010Y-66750001D03*
X78750010Y-66750001D03*
X81250010Y-66750001D03*
X71250010Y-72750001D03*
X73750010Y-72750001D03*
X76250010Y-72750001D03*
X78750010Y-72750001D03*
X81250010Y-72750001D03*
X71250010Y-78750001D03*
X73750010Y-78750001D03*
X76250010Y-78750001D03*
X78750010Y-78750001D03*
X81250010Y-78750001D03*
X73500010Y-84000001D03*
X72500010Y-84000001D03*
X71500010Y-84000001D03*
X79000010Y-84000001D03*
X80000010Y-84000001D03*
X81000010Y-84000001D03*
D13*
X83250010Y-71250001D03*
X83250010Y-77250001D03*
X83250010Y-65250001D03*
X83250010Y-59250001D03*
X69250010Y-62250001D03*
X69250010Y-68250001D03*
X69250010Y-74250001D03*
X69250010Y-80250001D03*
G04 #@! TO.N,Board_2-/end-of-row-1*
X82500010Y-59250001D03*
X82500010Y-62250001D03*
G04 #@! TO.N,Board_2-/end-of-row-2*
X70000010Y-62250001D03*
X70000010Y-65250001D03*
G04 #@! TO.N,Board_2-/end-of-row-3*
X82500010Y-65250001D03*
X82500010Y-68250001D03*
G04 #@! TO.N,Board_2-/end-of-row-4*
X70000010Y-68250001D03*
X70000010Y-71250001D03*
G04 #@! TO.N,Board_2-/end-of-row-5*
X82500010Y-71250001D03*
X82500010Y-74250001D03*
G04 #@! TO.N,Board_2-/end-of-row-6*
X70000010Y-74250001D03*
X70000010Y-77250001D03*
G04 #@! TO.N,Board_2-/end-of-row-7*
X82500010Y-77250001D03*
X82500010Y-80250001D03*
D12*
G04 #@! TO.N,Board_2-GND*
X71250010Y-63750001D03*
X73750010Y-63750001D03*
X76250010Y-63750001D03*
X78750010Y-63750001D03*
X81250010Y-63750001D03*
X71250010Y-69750001D03*
X73750010Y-69750001D03*
X76250010Y-69750001D03*
X78750010Y-69750001D03*
X81250010Y-69750001D03*
X81250010Y-75750001D03*
X78750010Y-75750001D03*
X76250010Y-75750001D03*
X73750010Y-75750001D03*
X71250010Y-75750001D03*
X79000010Y-88000001D03*
X80000010Y-88000001D03*
X81000010Y-88000001D03*
X73500010Y-88000001D03*
X72500010Y-88000001D03*
X71500010Y-88000001D03*
X76250010Y-82250001D03*
D13*
X83250010Y-74250001D03*
X83250010Y-68250001D03*
X83250010Y-62250001D03*
X69250010Y-65250001D03*
X69250010Y-71250001D03*
X69250010Y-77250001D03*
D12*
X74750010Y-57000001D03*
X77750010Y-57000001D03*
X69750010Y-57000001D03*
X82750010Y-57000001D03*
D13*
X80000010Y-59250001D03*
X80000010Y-62250001D03*
X80000010Y-65250001D03*
X80000010Y-68250001D03*
X80000010Y-71250001D03*
X80000010Y-74250001D03*
X80000010Y-77250001D03*
X80000010Y-80250001D03*
X72500010Y-59250001D03*
X72500010Y-62250001D03*
X72500010Y-65250001D03*
X72500010Y-68250001D03*
X72500010Y-71250001D03*
X72500010Y-74250001D03*
X72500010Y-77250001D03*
G04 #@! TO.N,Board_2-Net-(D1-Pad1)*
X70000010Y-59250001D03*
X80500010Y-86000001D03*
G04 #@! TO.N,Board_2-Net-(D48-Pad3)*
X70000010Y-80250001D03*
X72000010Y-86000001D03*
G04 #@! TD*
D14*
G04 #@! TO.N,Board_1-+5V*
X52100001Y-60100001D02*
X52750001Y-60750001D01*
X52000001Y-60100001D02*
X52100001Y-60100001D01*
X53400001Y-61400001D02*
X52750001Y-60750001D01*
X53500001Y-61400001D02*
X53400001Y-61400001D01*
X54600001Y-60100001D02*
X55250001Y-60750001D01*
X54500001Y-60100001D02*
X54600001Y-60100001D01*
X55350001Y-60750001D02*
X56000001Y-61400001D01*
X55250001Y-60750001D02*
X55350001Y-60750001D01*
X57100001Y-60100001D02*
X57750001Y-60750001D01*
X57000001Y-60100001D02*
X57100001Y-60100001D01*
X57850001Y-60750001D02*
X58500001Y-61400001D01*
X57750001Y-60750001D02*
X57850001Y-60750001D01*
X59600001Y-60100001D02*
X60250001Y-60750001D01*
X59500001Y-60100001D02*
X59600001Y-60100001D01*
X60350001Y-60750001D02*
X61000001Y-61400001D01*
X60250001Y-60750001D02*
X60350001Y-60750001D01*
X62100001Y-60100001D02*
X62750001Y-60750001D01*
X62000001Y-60100001D02*
X62100001Y-60100001D01*
X62850001Y-60750001D02*
X63500001Y-61400001D01*
X62750001Y-60750001D02*
X62850001Y-60750001D01*
X52100001Y-66100001D02*
X52750001Y-66750001D01*
X52000001Y-66100001D02*
X52100001Y-66100001D01*
X52850001Y-66750001D02*
X53500001Y-67400001D01*
X52750001Y-66750001D02*
X52850001Y-66750001D01*
X54600001Y-66100001D02*
X55250001Y-66750001D01*
X54500001Y-66100001D02*
X54600001Y-66100001D01*
X55350001Y-66750001D02*
X56000001Y-67400001D01*
X55250001Y-66750001D02*
X55350001Y-66750001D01*
X57100001Y-66100001D02*
X57750001Y-66750001D01*
X57000001Y-66100001D02*
X57100001Y-66100001D01*
X57850001Y-66750001D02*
X58500001Y-67400001D01*
X57750001Y-66750001D02*
X57850001Y-66750001D01*
X59600001Y-66100001D02*
X60250001Y-66750001D01*
X59500001Y-66100001D02*
X59600001Y-66100001D01*
X60350001Y-66750001D02*
X61000001Y-67400001D01*
X60250001Y-66750001D02*
X60350001Y-66750001D01*
X62100001Y-66100001D02*
X62750001Y-66750001D01*
X62000001Y-66100001D02*
X62100001Y-66100001D01*
X62850001Y-66750001D02*
X63500001Y-67400001D01*
X62750001Y-66750001D02*
X62850001Y-66750001D01*
X52100001Y-72100001D02*
X52750001Y-72750001D01*
X52000001Y-72100001D02*
X52100001Y-72100001D01*
X52850001Y-72750001D02*
X53500001Y-73400001D01*
X52750001Y-72750001D02*
X52850001Y-72750001D01*
X54600001Y-72100001D02*
X55250001Y-72750001D01*
X54500001Y-72100001D02*
X54600001Y-72100001D01*
X55350001Y-72750001D02*
X56000001Y-73400001D01*
X55250001Y-72750001D02*
X55350001Y-72750001D01*
X57100001Y-72100001D02*
X57750001Y-72750001D01*
X57000001Y-72100001D02*
X57100001Y-72100001D01*
X57850001Y-72750001D02*
X58500001Y-73400001D01*
X57750001Y-72750001D02*
X57850001Y-72750001D01*
X59600001Y-72100001D02*
X60250001Y-72750001D01*
X59500001Y-72100001D02*
X59600001Y-72100001D01*
X60350001Y-72750001D02*
X61000001Y-73400001D01*
X60250001Y-72750001D02*
X60350001Y-72750001D01*
X62100001Y-72100001D02*
X62750001Y-72750001D01*
X62000001Y-72100001D02*
X62100001Y-72100001D01*
X62850001Y-72750001D02*
X63500001Y-73400001D01*
X62750001Y-72750001D02*
X62850001Y-72750001D01*
X52100001Y-78100001D02*
X52750001Y-78750001D01*
X52000001Y-78100001D02*
X52100001Y-78100001D01*
X52850001Y-78750001D02*
X53500001Y-79400001D01*
X52750001Y-78750001D02*
X52850001Y-78750001D01*
X54600001Y-78100001D02*
X55250001Y-78750001D01*
X54500001Y-78100001D02*
X54600001Y-78100001D01*
X55350001Y-78750001D02*
X56000001Y-79400001D01*
X55250001Y-78750001D02*
X55350001Y-78750001D01*
X57100001Y-78100001D02*
X57750001Y-78750001D01*
X57000001Y-78100001D02*
X57100001Y-78100001D01*
X59600001Y-78100001D02*
X60250001Y-78750001D01*
X59500001Y-78100001D02*
X59600001Y-78100001D01*
X60350001Y-78750001D02*
X61000001Y-79400001D01*
X60250001Y-78750001D02*
X60350001Y-78750001D01*
X62100001Y-78100001D02*
X62750001Y-78750001D01*
X62000001Y-78100001D02*
X62100001Y-78100001D01*
X62850001Y-78750001D02*
X63500001Y-79400001D01*
X62750001Y-78750001D02*
X62850001Y-78750001D01*
X57850001Y-78750001D02*
X58500001Y-79400001D01*
X57750001Y-78750001D02*
X57850001Y-78750001D01*
X64500001Y-72100001D02*
X64500001Y-71500001D01*
X64500001Y-71500001D02*
X64750001Y-71250001D01*
X64500001Y-77500001D02*
X64750001Y-77250001D01*
X64500001Y-78100001D02*
X64500001Y-77500001D01*
X64500001Y-65500001D02*
X64750001Y-65250001D01*
X64500001Y-66100001D02*
X64500001Y-65500001D01*
X64500001Y-60100001D02*
X64500001Y-59500001D01*
X64500001Y-59500001D02*
X64750001Y-59250001D01*
X51000001Y-61400001D02*
X51000001Y-62000001D01*
X51000001Y-62000001D02*
X50750001Y-62250001D01*
X51000001Y-67400001D02*
X51000001Y-68000001D01*
X51000001Y-68000001D02*
X50750001Y-68250001D01*
X51000001Y-73400001D02*
X51000001Y-74000001D01*
X51000001Y-74000001D02*
X50750001Y-74250001D01*
X51000001Y-80000001D02*
X50750001Y-80250001D01*
X51000001Y-79400001D02*
X51000001Y-80000001D01*
G04 #@! TO.N,Board_1-/end-of-row-1*
X64500001Y-58750001D02*
X64000001Y-59250001D01*
X64500001Y-58400001D02*
X64500001Y-58750001D01*
X64500001Y-61750001D02*
X64500001Y-61400001D01*
X64000001Y-62250001D02*
X64500001Y-61750001D01*
G04 #@! TO.N,Board_1-/end-of-row-2*
X51000001Y-62750001D02*
X51500001Y-62250001D01*
X51000001Y-63100001D02*
X51000001Y-62750001D01*
X51000001Y-65750001D02*
X51000001Y-66100001D01*
X51500001Y-65250001D02*
X51000001Y-65750001D01*
G04 #@! TO.N,Board_1-/end-of-row-3*
X64500001Y-64750001D02*
X64000001Y-65250001D01*
X64500001Y-64400001D02*
X64500001Y-64750001D01*
X64500001Y-67750001D02*
X64500001Y-67400001D01*
X64000001Y-68250001D02*
X64500001Y-67750001D01*
G04 #@! TO.N,Board_1-/end-of-row-4*
X51000001Y-68750001D02*
X51500001Y-68250001D01*
X51000001Y-69100001D02*
X51000001Y-68750001D01*
X51000001Y-71750001D02*
X51000001Y-72100001D01*
X51500001Y-71250001D02*
X51000001Y-71750001D01*
G04 #@! TO.N,Board_1-/end-of-row-5*
X64500001Y-70750001D02*
X64000001Y-71250001D01*
X64500001Y-70400001D02*
X64500001Y-70750001D01*
X64500001Y-73750001D02*
X64500001Y-73400001D01*
X64000001Y-74250001D02*
X64500001Y-73750001D01*
G04 #@! TO.N,Board_1-/end-of-row-6*
X51000001Y-74750001D02*
X51500001Y-74250001D01*
X51000001Y-75100001D02*
X51000001Y-74750001D01*
X51000001Y-77750001D02*
X51000001Y-78100001D01*
X51500001Y-77250001D02*
X51000001Y-77750001D01*
G04 #@! TO.N,Board_1-/end-of-row-7*
X64500001Y-76750001D02*
X64000001Y-77250001D01*
X64500001Y-76400001D02*
X64500001Y-76750001D01*
X64500001Y-79750001D02*
X64500001Y-79400001D01*
X64000001Y-80250001D02*
X64500001Y-79750001D01*
G04 #@! TO.N,Board_1-GND*
X52100001Y-63100001D02*
X52750001Y-63750001D01*
X52000001Y-63100001D02*
X52100001Y-63100001D01*
X52850001Y-63750001D02*
X53500001Y-64400001D01*
X52750001Y-63750001D02*
X52850001Y-63750001D01*
X54600001Y-63100001D02*
X55250001Y-63750001D01*
X54500001Y-63100001D02*
X54600001Y-63100001D01*
X55350001Y-63750001D02*
X56000001Y-64400001D01*
X55250001Y-63750001D02*
X55350001Y-63750001D01*
X57100001Y-63100001D02*
X57750001Y-63750001D01*
X57000001Y-63100001D02*
X57100001Y-63100001D01*
X57850001Y-63750001D02*
X58500001Y-64400001D01*
X57750001Y-63750001D02*
X57850001Y-63750001D01*
X59600001Y-63100001D02*
X60250001Y-63750001D01*
X59500001Y-63100001D02*
X59600001Y-63100001D01*
X60350001Y-63750001D02*
X61000001Y-64400001D01*
X60250001Y-63750001D02*
X60350001Y-63750001D01*
X62100001Y-63100001D02*
X62750001Y-63750001D01*
X62000001Y-63100001D02*
X62100001Y-63100001D01*
X62850001Y-63750001D02*
X63500001Y-64400001D01*
X62750001Y-63750001D02*
X62850001Y-63750001D01*
X52100001Y-69100001D02*
X52750001Y-69750001D01*
X52000001Y-69100001D02*
X52100001Y-69100001D01*
X52850001Y-69750001D02*
X53500001Y-70400001D01*
X52750001Y-69750001D02*
X52850001Y-69750001D01*
X54600001Y-69100001D02*
X55250001Y-69750001D01*
X54500001Y-69100001D02*
X54600001Y-69100001D01*
X55350001Y-69750001D02*
X56000001Y-70400001D01*
X55250001Y-69750001D02*
X55350001Y-69750001D01*
X57100001Y-69100001D02*
X57750001Y-69750001D01*
X57000001Y-69100001D02*
X57100001Y-69100001D01*
X57850001Y-69750001D02*
X58500001Y-70400001D01*
X57750001Y-69750001D02*
X57850001Y-69750001D01*
X59600001Y-69100001D02*
X60250001Y-69750001D01*
X59500001Y-69100001D02*
X59600001Y-69100001D01*
X60350001Y-69750001D02*
X61000001Y-70400001D01*
X60250001Y-69750001D02*
X60350001Y-69750001D01*
X62100001Y-69100001D02*
X62750001Y-69750001D01*
X62000001Y-69100001D02*
X62100001Y-69100001D01*
X62850001Y-69750001D02*
X63500001Y-70400001D01*
X62750001Y-69750001D02*
X62850001Y-69750001D01*
X62100001Y-75100001D02*
X62750001Y-75750001D01*
X62000001Y-75100001D02*
X62100001Y-75100001D01*
X62850001Y-75750001D02*
X63500001Y-76400001D01*
X62750001Y-75750001D02*
X62850001Y-75750001D01*
X59600001Y-75100001D02*
X60250001Y-75750001D01*
X59500001Y-75100001D02*
X59600001Y-75100001D01*
X60350001Y-75750001D02*
X61000001Y-76400001D01*
X60250001Y-75750001D02*
X60350001Y-75750001D01*
X57100001Y-75100001D02*
X57750001Y-75750001D01*
X57000001Y-75100001D02*
X57100001Y-75100001D01*
X57850001Y-75750001D02*
X58500001Y-76400001D01*
X57750001Y-75750001D02*
X57850001Y-75750001D01*
X54600001Y-75100001D02*
X55250001Y-75750001D01*
X54500001Y-75100001D02*
X54600001Y-75100001D01*
X55350001Y-75750001D02*
X56000001Y-76400001D01*
X55250001Y-75750001D02*
X55350001Y-75750001D01*
X52100001Y-75100001D02*
X52750001Y-75750001D01*
X52000001Y-75100001D02*
X52100001Y-75100001D01*
X52850001Y-75750001D02*
X53500001Y-76400001D01*
X52750001Y-75750001D02*
X52850001Y-75750001D01*
X64500001Y-75100001D02*
X64500001Y-74500001D01*
X64500001Y-74500001D02*
X64750001Y-74250001D01*
X64500001Y-69100001D02*
X64500001Y-68500001D01*
X64500001Y-68500001D02*
X64750001Y-68250001D01*
X64500001Y-62500001D02*
X64750001Y-62250001D01*
X64500001Y-63100001D02*
X64500001Y-62500001D01*
X51000001Y-64400001D02*
X51000001Y-65000001D01*
X51000001Y-65000001D02*
X50750001Y-65250001D01*
X51000001Y-71000001D02*
X50750001Y-71250001D01*
X51000001Y-70400001D02*
X51000001Y-71000001D01*
X51000001Y-77000001D02*
X50750001Y-77250001D01*
X51000001Y-76400001D02*
X51000001Y-77000001D01*
X53500001Y-58750001D02*
X54000001Y-59250001D01*
X53500001Y-58400001D02*
X53500001Y-58750001D01*
G04 #@! TO.N,Board_1-Net-(D1-Pad1)*
X51000001Y-59750001D02*
X51500001Y-59250001D01*
X51000001Y-60100001D02*
X51000001Y-59750001D01*
G04 #@! TO.N,Board_1-Net-(D1-Pad3)*
X53500001Y-60000001D02*
X53500001Y-60100001D01*
X52000001Y-58500001D02*
X53500001Y-60000001D01*
X52000001Y-58400001D02*
X52000001Y-58500001D01*
G04 #@! TO.N,Board_1-Net-(D10-Pad1)*
X62000001Y-61400001D02*
X62000001Y-61500001D01*
X63500001Y-63000001D02*
X63500001Y-63100001D01*
X62000001Y-61500001D02*
X63500001Y-63000001D01*
G04 #@! TO.N,Board_1-Net-(D10-Pad3)*
X59500001Y-61400001D02*
X59500001Y-61500001D01*
X61000001Y-63000001D02*
X61000001Y-63100001D01*
X59500001Y-61500001D02*
X61000001Y-63000001D01*
G04 #@! TO.N,Board_1-Net-(D11-Pad1)*
X52000001Y-64400001D02*
X52000001Y-64500001D01*
X53500001Y-66000001D02*
X53500001Y-66100001D01*
X52000001Y-64500001D02*
X53500001Y-66000001D01*
G04 #@! TO.N,Board_1-Net-(D11-Pad3)*
X54500001Y-64400001D02*
X54500001Y-64500001D01*
X56000001Y-66000001D02*
X56000001Y-66100001D01*
X54500001Y-64500001D02*
X56000001Y-66000001D01*
G04 #@! TO.N,Board_1-Net-(D12-Pad1)*
X62000001Y-67400001D02*
X62000001Y-67500001D01*
X63500001Y-69000001D02*
X63500001Y-69100001D01*
X62000001Y-67500001D02*
X63500001Y-69000001D01*
G04 #@! TO.N,Board_1-Net-(D12-Pad3)*
X59500001Y-67400001D02*
X59500001Y-67500001D01*
X61000001Y-69000001D02*
X61000001Y-69100001D01*
X59500001Y-67500001D02*
X61000001Y-69000001D01*
G04 #@! TO.N,Board_1-Net-(D13-Pad1)*
X52000001Y-70400001D02*
X52000001Y-70500001D01*
X53500001Y-72000001D02*
X53500001Y-72100001D01*
X52000001Y-70500001D02*
X53500001Y-72000001D01*
G04 #@! TO.N,Board_1-Net-(D13-Pad3)*
X54500001Y-70400001D02*
X54500001Y-70500001D01*
X56000001Y-72000001D02*
X56000001Y-72100001D01*
X54500001Y-70500001D02*
X56000001Y-72000001D01*
G04 #@! TO.N,Board_1-Net-(D14-Pad1)*
X62000001Y-73400001D02*
X62000001Y-73500001D01*
X63500001Y-75000001D02*
X63500001Y-75100001D01*
X62000001Y-73500001D02*
X63500001Y-75000001D01*
G04 #@! TO.N,Board_1-Net-(D14-Pad3)*
X59500001Y-73400001D02*
X59500001Y-73500001D01*
X61000001Y-75000001D02*
X61000001Y-75100001D01*
X59500001Y-73500001D02*
X61000001Y-75000001D01*
G04 #@! TO.N,Board_1-Net-(D15-Pad1)*
X52000001Y-76400001D02*
X52000001Y-76500001D01*
X53500001Y-78000001D02*
X53500001Y-78100001D01*
X52000001Y-76500001D02*
X53500001Y-78000001D01*
G04 #@! TO.N,Board_1-Net-(D15-Pad3)*
X54500001Y-76400001D02*
X54500001Y-76500001D01*
X56000001Y-78000001D02*
X56000001Y-78100001D01*
X54500001Y-76500001D02*
X56000001Y-78000001D01*
G04 #@! TO.N,Board_1-Net-(D16-Pad1)*
X62000001Y-79400001D02*
X62000001Y-79500001D01*
X63500001Y-81000001D02*
X63500001Y-81100001D01*
X62000001Y-79500001D02*
X63500001Y-81000001D01*
G04 #@! TO.N,Board_1-Net-(D16-Pad3)*
X59500001Y-79400001D02*
X59500001Y-79500001D01*
X61000001Y-81000001D02*
X61000001Y-81100001D01*
X59500001Y-79500001D02*
X61000001Y-81000001D01*
G04 #@! TO.N,Board_1-Net-(D17-Pad1)*
X54500001Y-58400001D02*
X54500001Y-58500001D01*
X56000001Y-60000001D02*
X56000001Y-60100001D01*
X54500001Y-58500001D02*
X56000001Y-60000001D01*
G04 #@! TO.N,Board_1-Net-(D17-Pad3)*
X57000001Y-58400001D02*
X57000001Y-58500001D01*
X58500001Y-60000001D02*
X58500001Y-60100001D01*
X57000001Y-58500001D02*
X58500001Y-60000001D01*
G04 #@! TO.N,Board_1-Net-(D18-Pad3)*
X57000001Y-61400001D02*
X57000001Y-61500001D01*
X58500001Y-63000001D02*
X58500001Y-63100001D01*
X57000001Y-61500001D02*
X58500001Y-63000001D01*
G04 #@! TO.N,Board_1-Net-(D19-Pad3)*
X57000001Y-64400001D02*
X57000001Y-64500001D01*
X58500001Y-66000001D02*
X58500001Y-66100001D01*
X57000001Y-64500001D02*
X58500001Y-66000001D01*
G04 #@! TO.N,Board_1-Net-(D20-Pad3)*
X57000001Y-67400001D02*
X57000001Y-67500001D01*
X58500001Y-69000001D02*
X58500001Y-69100001D01*
X57000001Y-67500001D02*
X58500001Y-69000001D01*
G04 #@! TO.N,Board_1-Net-(D21-Pad3)*
X57000001Y-70400001D02*
X57000001Y-70500001D01*
X58500001Y-72000001D02*
X58500001Y-72100001D01*
X57000001Y-70500001D02*
X58500001Y-72000001D01*
G04 #@! TO.N,Board_1-Net-(D22-Pad3)*
X57000001Y-73400001D02*
X57000001Y-73500001D01*
X58500001Y-75000001D02*
X58500001Y-75100001D01*
X57000001Y-73500001D02*
X58500001Y-75000001D01*
G04 #@! TO.N,Board_1-Net-(D23-Pad3)*
X57000001Y-76400001D02*
X57000001Y-76500001D01*
X58500001Y-78000001D02*
X58500001Y-78100001D01*
X57000001Y-76500001D02*
X58500001Y-78000001D01*
G04 #@! TO.N,Board_1-Net-(D24-Pad3)*
X57000001Y-79400001D02*
X57000001Y-79500001D01*
X58500001Y-81000001D02*
X58500001Y-81100001D01*
X57000001Y-79500001D02*
X58500001Y-81000001D01*
G04 #@! TO.N,Board_1-Net-(D25-Pad3)*
X59500001Y-58400001D02*
X59500001Y-58500001D01*
X61000001Y-60000001D02*
X61000001Y-60100001D01*
X59500001Y-58500001D02*
X61000001Y-60000001D01*
G04 #@! TO.N,Board_1-Net-(D26-Pad3)*
X54500001Y-61400001D02*
X54500001Y-61500001D01*
X56000001Y-63000001D02*
X56000001Y-63100001D01*
X54500001Y-61500001D02*
X56000001Y-63000001D01*
G04 #@! TO.N,Board_1-Net-(D27-Pad3)*
X59500001Y-64400001D02*
X59500001Y-64500001D01*
X61000001Y-66000001D02*
X61000001Y-66100001D01*
X59500001Y-64500001D02*
X61000001Y-66000001D01*
G04 #@! TO.N,Board_1-Net-(D28-Pad3)*
X54500001Y-67400001D02*
X54500001Y-67500001D01*
X56000001Y-69000001D02*
X56000001Y-69100001D01*
X54500001Y-67500001D02*
X56000001Y-69000001D01*
G04 #@! TO.N,Board_1-Net-(D29-Pad3)*
X59500001Y-70400001D02*
X59500001Y-70500001D01*
X61000001Y-72000001D02*
X61000001Y-72100001D01*
X59500001Y-70500001D02*
X61000001Y-72000001D01*
G04 #@! TO.N,Board_1-Net-(D30-Pad3)*
X54500001Y-73400001D02*
X54500001Y-73500001D01*
X56000001Y-75000001D02*
X56000001Y-75100001D01*
X54500001Y-73500001D02*
X56000001Y-75000001D01*
G04 #@! TO.N,Board_1-Net-(D31-Pad3)*
X59500001Y-76400001D02*
X59500001Y-76500001D01*
X61000001Y-78000001D02*
X61000001Y-78100001D01*
X59500001Y-76500001D02*
X61000001Y-78000001D01*
G04 #@! TO.N,Board_1-Net-(D32-Pad3)*
X54500001Y-79400001D02*
X54500001Y-79500001D01*
X56000001Y-81000001D02*
X56000001Y-81100001D01*
X54500001Y-79500001D02*
X56000001Y-81000001D01*
G04 #@! TO.N,Board_1-Net-(D33-Pad3)*
X62000001Y-58400001D02*
X62000001Y-58500001D01*
X63500001Y-60000001D02*
X63500001Y-60100001D01*
X62000001Y-58500001D02*
X63500001Y-60000001D01*
G04 #@! TO.N,Board_1-Net-(D34-Pad3)*
X52000001Y-61400001D02*
X52000001Y-61500001D01*
X53500001Y-63000001D02*
X53500001Y-63100001D01*
X52000001Y-61500001D02*
X53500001Y-63000001D01*
G04 #@! TO.N,Board_1-Net-(D35-Pad3)*
X62000001Y-64400001D02*
X62000001Y-64500001D01*
X63500001Y-66000001D02*
X63500001Y-66100001D01*
X62000001Y-64500001D02*
X63500001Y-66000001D01*
G04 #@! TO.N,Board_1-Net-(D36-Pad3)*
X52000001Y-67400001D02*
X52000001Y-67500001D01*
X53500001Y-69000001D02*
X53500001Y-69100001D01*
X52000001Y-67500001D02*
X53500001Y-69000001D01*
G04 #@! TO.N,Board_1-Net-(D37-Pad3)*
X62000001Y-70400001D02*
X62000001Y-70500001D01*
X63500001Y-72000001D02*
X63500001Y-72100001D01*
X62000001Y-70500001D02*
X63500001Y-72000001D01*
G04 #@! TO.N,Board_1-Net-(D38-Pad3)*
X52000001Y-73400001D02*
X52000001Y-73500001D01*
X53500001Y-75000001D02*
X53500001Y-75100001D01*
X52000001Y-73500001D02*
X53500001Y-75000001D01*
G04 #@! TO.N,Board_1-Net-(D39-Pad3)*
X62000001Y-76400001D02*
X62000001Y-76500001D01*
X63500001Y-78000001D02*
X63500001Y-78100001D01*
X62000001Y-76500001D02*
X63500001Y-78000001D01*
G04 #@! TO.N,Board_1-Net-(D40-Pad3)*
X52000001Y-79400001D02*
X52000001Y-79500001D01*
X53500001Y-81000001D02*
X53500001Y-81100001D01*
X52000001Y-79500001D02*
X53500001Y-81000001D01*
G04 #@! TO.N,Board_1-Net-(D48-Pad3)*
X51000001Y-80750001D02*
X51500001Y-80250001D01*
X51000001Y-81100001D02*
X51000001Y-80750001D01*
G04 #@! TO.N,Board_2-+5V*
X70600010Y-60100001D02*
X71250010Y-60750001D01*
X70500010Y-60100001D02*
X70600010Y-60100001D01*
X71900010Y-61400001D02*
X71250010Y-60750001D01*
X72000010Y-61400001D02*
X71900010Y-61400001D01*
X73100010Y-60100001D02*
X73750010Y-60750001D01*
X73000010Y-60100001D02*
X73100010Y-60100001D01*
X73850010Y-60750001D02*
X74500010Y-61400001D01*
X73750010Y-60750001D02*
X73850010Y-60750001D01*
X75600010Y-60100001D02*
X76250010Y-60750001D01*
X75500010Y-60100001D02*
X75600010Y-60100001D01*
X76350010Y-60750001D02*
X77000010Y-61400001D01*
X76250010Y-60750001D02*
X76350010Y-60750001D01*
X78100010Y-60100001D02*
X78750010Y-60750001D01*
X78000010Y-60100001D02*
X78100010Y-60100001D01*
X78850010Y-60750001D02*
X79500010Y-61400001D01*
X78750010Y-60750001D02*
X78850010Y-60750001D01*
X80600010Y-60100001D02*
X81250010Y-60750001D01*
X80500010Y-60100001D02*
X80600010Y-60100001D01*
X81350010Y-60750001D02*
X82000010Y-61400001D01*
X81250010Y-60750001D02*
X81350010Y-60750001D01*
X70600010Y-66100001D02*
X71250010Y-66750001D01*
X70500010Y-66100001D02*
X70600010Y-66100001D01*
X71350010Y-66750001D02*
X72000010Y-67400001D01*
X71250010Y-66750001D02*
X71350010Y-66750001D01*
X73100010Y-66100001D02*
X73750010Y-66750001D01*
X73000010Y-66100001D02*
X73100010Y-66100001D01*
X73850010Y-66750001D02*
X74500010Y-67400001D01*
X73750010Y-66750001D02*
X73850010Y-66750001D01*
X75600010Y-66100001D02*
X76250010Y-66750001D01*
X75500010Y-66100001D02*
X75600010Y-66100001D01*
X76350010Y-66750001D02*
X77000010Y-67400001D01*
X76250010Y-66750001D02*
X76350010Y-66750001D01*
X78100010Y-66100001D02*
X78750010Y-66750001D01*
X78000010Y-66100001D02*
X78100010Y-66100001D01*
X78850010Y-66750001D02*
X79500010Y-67400001D01*
X78750010Y-66750001D02*
X78850010Y-66750001D01*
X80600010Y-66100001D02*
X81250010Y-66750001D01*
X80500010Y-66100001D02*
X80600010Y-66100001D01*
X81350010Y-66750001D02*
X82000010Y-67400001D01*
X81250010Y-66750001D02*
X81350010Y-66750001D01*
X70600010Y-72100001D02*
X71250010Y-72750001D01*
X70500010Y-72100001D02*
X70600010Y-72100001D01*
X71350010Y-72750001D02*
X72000010Y-73400001D01*
X71250010Y-72750001D02*
X71350010Y-72750001D01*
X73100010Y-72100001D02*
X73750010Y-72750001D01*
X73000010Y-72100001D02*
X73100010Y-72100001D01*
X73850010Y-72750001D02*
X74500010Y-73400001D01*
X73750010Y-72750001D02*
X73850010Y-72750001D01*
X75600010Y-72100001D02*
X76250010Y-72750001D01*
X75500010Y-72100001D02*
X75600010Y-72100001D01*
X76350010Y-72750001D02*
X77000010Y-73400001D01*
X76250010Y-72750001D02*
X76350010Y-72750001D01*
X78100010Y-72100001D02*
X78750010Y-72750001D01*
X78000010Y-72100001D02*
X78100010Y-72100001D01*
X78850010Y-72750001D02*
X79500010Y-73400001D01*
X78750010Y-72750001D02*
X78850010Y-72750001D01*
X80600010Y-72100001D02*
X81250010Y-72750001D01*
X80500010Y-72100001D02*
X80600010Y-72100001D01*
X81350010Y-72750001D02*
X82000010Y-73400001D01*
X81250010Y-72750001D02*
X81350010Y-72750001D01*
X70600010Y-78100001D02*
X71250010Y-78750001D01*
X70500010Y-78100001D02*
X70600010Y-78100001D01*
X71350010Y-78750001D02*
X72000010Y-79400001D01*
X71250010Y-78750001D02*
X71350010Y-78750001D01*
X73100010Y-78100001D02*
X73750010Y-78750001D01*
X73000010Y-78100001D02*
X73100010Y-78100001D01*
X73850010Y-78750001D02*
X74500010Y-79400001D01*
X73750010Y-78750001D02*
X73850010Y-78750001D01*
X75600010Y-78100001D02*
X76250010Y-78750001D01*
X75500010Y-78100001D02*
X75600010Y-78100001D01*
X78100010Y-78100001D02*
X78750010Y-78750001D01*
X78000010Y-78100001D02*
X78100010Y-78100001D01*
X78850010Y-78750001D02*
X79500010Y-79400001D01*
X78750010Y-78750001D02*
X78850010Y-78750001D01*
X80600010Y-78100001D02*
X81250010Y-78750001D01*
X80500010Y-78100001D02*
X80600010Y-78100001D01*
X81350010Y-78750001D02*
X82000010Y-79400001D01*
X81250010Y-78750001D02*
X81350010Y-78750001D01*
X76350010Y-78750001D02*
X77000010Y-79400001D01*
X76250010Y-78750001D02*
X76350010Y-78750001D01*
X83000010Y-72100001D02*
X83000010Y-71500001D01*
X83000010Y-71500001D02*
X83250010Y-71250001D01*
X83000010Y-77500001D02*
X83250010Y-77250001D01*
X83000010Y-78100001D02*
X83000010Y-77500001D01*
X83000010Y-65500001D02*
X83250010Y-65250001D01*
X83000010Y-66100001D02*
X83000010Y-65500001D01*
X83000010Y-60100001D02*
X83000010Y-59500001D01*
X83000010Y-59500001D02*
X83250010Y-59250001D01*
X69500010Y-61400001D02*
X69500010Y-62000001D01*
X69500010Y-62000001D02*
X69250010Y-62250001D01*
X69500010Y-67400001D02*
X69500010Y-68000001D01*
X69500010Y-68000001D02*
X69250010Y-68250001D01*
X69500010Y-73400001D02*
X69500010Y-74000001D01*
X69500010Y-74000001D02*
X69250010Y-74250001D01*
X69500010Y-80000001D02*
X69250010Y-80250001D01*
X69500010Y-79400001D02*
X69500010Y-80000001D01*
G04 #@! TO.N,Board_2-/end-of-row-1*
X83000010Y-58750001D02*
X82500010Y-59250001D01*
X83000010Y-58400001D02*
X83000010Y-58750001D01*
X83000010Y-61750001D02*
X83000010Y-61400001D01*
X82500010Y-62250001D02*
X83000010Y-61750001D01*
G04 #@! TO.N,Board_2-/end-of-row-2*
X69500010Y-62750001D02*
X70000010Y-62250001D01*
X69500010Y-63100001D02*
X69500010Y-62750001D01*
X69500010Y-65750001D02*
X69500010Y-66100001D01*
X70000010Y-65250001D02*
X69500010Y-65750001D01*
G04 #@! TO.N,Board_2-/end-of-row-3*
X83000010Y-64750001D02*
X82500010Y-65250001D01*
X83000010Y-64400001D02*
X83000010Y-64750001D01*
X83000010Y-67750001D02*
X83000010Y-67400001D01*
X82500010Y-68250001D02*
X83000010Y-67750001D01*
G04 #@! TO.N,Board_2-/end-of-row-4*
X69500010Y-68750001D02*
X70000010Y-68250001D01*
X69500010Y-69100001D02*
X69500010Y-68750001D01*
X69500010Y-71750001D02*
X69500010Y-72100001D01*
X70000010Y-71250001D02*
X69500010Y-71750001D01*
G04 #@! TO.N,Board_2-/end-of-row-5*
X83000010Y-70750001D02*
X82500010Y-71250001D01*
X83000010Y-70400001D02*
X83000010Y-70750001D01*
X83000010Y-73750001D02*
X83000010Y-73400001D01*
X82500010Y-74250001D02*
X83000010Y-73750001D01*
G04 #@! TO.N,Board_2-/end-of-row-6*
X69500010Y-74750001D02*
X70000010Y-74250001D01*
X69500010Y-75100001D02*
X69500010Y-74750001D01*
X69500010Y-77750001D02*
X69500010Y-78100001D01*
X70000010Y-77250001D02*
X69500010Y-77750001D01*
G04 #@! TO.N,Board_2-/end-of-row-7*
X83000010Y-76750001D02*
X82500010Y-77250001D01*
X83000010Y-76400001D02*
X83000010Y-76750001D01*
X83000010Y-79750001D02*
X83000010Y-79400001D01*
X82500010Y-80250001D02*
X83000010Y-79750001D01*
G04 #@! TO.N,Board_2-GND*
X70600010Y-63100001D02*
X71250010Y-63750001D01*
X70500010Y-63100001D02*
X70600010Y-63100001D01*
X71350010Y-63750001D02*
X72000010Y-64400001D01*
X71250010Y-63750001D02*
X71350010Y-63750001D01*
X73100010Y-63100001D02*
X73750010Y-63750001D01*
X73000010Y-63100001D02*
X73100010Y-63100001D01*
X73850010Y-63750001D02*
X74500010Y-64400001D01*
X73750010Y-63750001D02*
X73850010Y-63750001D01*
X75600010Y-63100001D02*
X76250010Y-63750001D01*
X75500010Y-63100001D02*
X75600010Y-63100001D01*
X76350010Y-63750001D02*
X77000010Y-64400001D01*
X76250010Y-63750001D02*
X76350010Y-63750001D01*
X78100010Y-63100001D02*
X78750010Y-63750001D01*
X78000010Y-63100001D02*
X78100010Y-63100001D01*
X78850010Y-63750001D02*
X79500010Y-64400001D01*
X78750010Y-63750001D02*
X78850010Y-63750001D01*
X80600010Y-63100001D02*
X81250010Y-63750001D01*
X80500010Y-63100001D02*
X80600010Y-63100001D01*
X81350010Y-63750001D02*
X82000010Y-64400001D01*
X81250010Y-63750001D02*
X81350010Y-63750001D01*
X70600010Y-69100001D02*
X71250010Y-69750001D01*
X70500010Y-69100001D02*
X70600010Y-69100001D01*
X71350010Y-69750001D02*
X72000010Y-70400001D01*
X71250010Y-69750001D02*
X71350010Y-69750001D01*
X73100010Y-69100001D02*
X73750010Y-69750001D01*
X73000010Y-69100001D02*
X73100010Y-69100001D01*
X73850010Y-69750001D02*
X74500010Y-70400001D01*
X73750010Y-69750001D02*
X73850010Y-69750001D01*
X75600010Y-69100001D02*
X76250010Y-69750001D01*
X75500010Y-69100001D02*
X75600010Y-69100001D01*
X76350010Y-69750001D02*
X77000010Y-70400001D01*
X76250010Y-69750001D02*
X76350010Y-69750001D01*
X78100010Y-69100001D02*
X78750010Y-69750001D01*
X78000010Y-69100001D02*
X78100010Y-69100001D01*
X78850010Y-69750001D02*
X79500010Y-70400001D01*
X78750010Y-69750001D02*
X78850010Y-69750001D01*
X80600010Y-69100001D02*
X81250010Y-69750001D01*
X80500010Y-69100001D02*
X80600010Y-69100001D01*
X81350010Y-69750001D02*
X82000010Y-70400001D01*
X81250010Y-69750001D02*
X81350010Y-69750001D01*
X80600010Y-75100001D02*
X81250010Y-75750001D01*
X80500010Y-75100001D02*
X80600010Y-75100001D01*
X81350010Y-75750001D02*
X82000010Y-76400001D01*
X81250010Y-75750001D02*
X81350010Y-75750001D01*
X78100010Y-75100001D02*
X78750010Y-75750001D01*
X78000010Y-75100001D02*
X78100010Y-75100001D01*
X78850010Y-75750001D02*
X79500010Y-76400001D01*
X78750010Y-75750001D02*
X78850010Y-75750001D01*
X75600010Y-75100001D02*
X76250010Y-75750001D01*
X75500010Y-75100001D02*
X75600010Y-75100001D01*
X76350010Y-75750001D02*
X77000010Y-76400001D01*
X76250010Y-75750001D02*
X76350010Y-75750001D01*
X73100010Y-75100001D02*
X73750010Y-75750001D01*
X73000010Y-75100001D02*
X73100010Y-75100001D01*
X73850010Y-75750001D02*
X74500010Y-76400001D01*
X73750010Y-75750001D02*
X73850010Y-75750001D01*
X70600010Y-75100001D02*
X71250010Y-75750001D01*
X70500010Y-75100001D02*
X70600010Y-75100001D01*
X71350010Y-75750001D02*
X72000010Y-76400001D01*
X71250010Y-75750001D02*
X71350010Y-75750001D01*
X83000010Y-75100001D02*
X83000010Y-74500001D01*
X83000010Y-74500001D02*
X83250010Y-74250001D01*
X83000010Y-69100001D02*
X83000010Y-68500001D01*
X83000010Y-68500001D02*
X83250010Y-68250001D01*
X83000010Y-62500001D02*
X83250010Y-62250001D01*
X83000010Y-63100001D02*
X83000010Y-62500001D01*
X69500010Y-64400001D02*
X69500010Y-65000001D01*
X69500010Y-65000001D02*
X69250010Y-65250001D01*
X69500010Y-71000001D02*
X69250010Y-71250001D01*
X69500010Y-70400001D02*
X69500010Y-71000001D01*
X69500010Y-77000001D02*
X69250010Y-77250001D01*
X69500010Y-76400001D02*
X69500010Y-77000001D01*
X72000010Y-58750001D02*
X72500010Y-59250001D01*
X72000010Y-58400001D02*
X72000010Y-58750001D01*
G04 #@! TO.N,Board_2-Net-(D1-Pad1)*
X69500010Y-59750001D02*
X70000010Y-59250001D01*
X69500010Y-60100001D02*
X69500010Y-59750001D01*
G04 #@! TO.N,Board_2-Net-(D1-Pad3)*
X72000010Y-60000001D02*
X72000010Y-60100001D01*
X70500010Y-58500001D02*
X72000010Y-60000001D01*
X70500010Y-58400001D02*
X70500010Y-58500001D01*
G04 #@! TO.N,Board_2-Net-(D10-Pad1)*
X80500010Y-61400001D02*
X80500010Y-61500001D01*
X82000010Y-63000001D02*
X82000010Y-63100001D01*
X80500010Y-61500001D02*
X82000010Y-63000001D01*
G04 #@! TO.N,Board_2-Net-(D10-Pad3)*
X78000010Y-61400001D02*
X78000010Y-61500001D01*
X79500010Y-63000001D02*
X79500010Y-63100001D01*
X78000010Y-61500001D02*
X79500010Y-63000001D01*
G04 #@! TO.N,Board_2-Net-(D11-Pad1)*
X70500010Y-64400001D02*
X70500010Y-64500001D01*
X72000010Y-66000001D02*
X72000010Y-66100001D01*
X70500010Y-64500001D02*
X72000010Y-66000001D01*
G04 #@! TO.N,Board_2-Net-(D11-Pad3)*
X73000010Y-64400001D02*
X73000010Y-64500001D01*
X74500010Y-66000001D02*
X74500010Y-66100001D01*
X73000010Y-64500001D02*
X74500010Y-66000001D01*
G04 #@! TO.N,Board_2-Net-(D12-Pad1)*
X80500010Y-67400001D02*
X80500010Y-67500001D01*
X82000010Y-69000001D02*
X82000010Y-69100001D01*
X80500010Y-67500001D02*
X82000010Y-69000001D01*
G04 #@! TO.N,Board_2-Net-(D12-Pad3)*
X78000010Y-67400001D02*
X78000010Y-67500001D01*
X79500010Y-69000001D02*
X79500010Y-69100001D01*
X78000010Y-67500001D02*
X79500010Y-69000001D01*
G04 #@! TO.N,Board_2-Net-(D13-Pad1)*
X70500010Y-70400001D02*
X70500010Y-70500001D01*
X72000010Y-72000001D02*
X72000010Y-72100001D01*
X70500010Y-70500001D02*
X72000010Y-72000001D01*
G04 #@! TO.N,Board_2-Net-(D13-Pad3)*
X73000010Y-70400001D02*
X73000010Y-70500001D01*
X74500010Y-72000001D02*
X74500010Y-72100001D01*
X73000010Y-70500001D02*
X74500010Y-72000001D01*
G04 #@! TO.N,Board_2-Net-(D14-Pad1)*
X80500010Y-73400001D02*
X80500010Y-73500001D01*
X82000010Y-75000001D02*
X82000010Y-75100001D01*
X80500010Y-73500001D02*
X82000010Y-75000001D01*
G04 #@! TO.N,Board_2-Net-(D14-Pad3)*
X78000010Y-73400001D02*
X78000010Y-73500001D01*
X79500010Y-75000001D02*
X79500010Y-75100001D01*
X78000010Y-73500001D02*
X79500010Y-75000001D01*
G04 #@! TO.N,Board_2-Net-(D15-Pad1)*
X70500010Y-76400001D02*
X70500010Y-76500001D01*
X72000010Y-78000001D02*
X72000010Y-78100001D01*
X70500010Y-76500001D02*
X72000010Y-78000001D01*
G04 #@! TO.N,Board_2-Net-(D15-Pad3)*
X73000010Y-76400001D02*
X73000010Y-76500001D01*
X74500010Y-78000001D02*
X74500010Y-78100001D01*
X73000010Y-76500001D02*
X74500010Y-78000001D01*
G04 #@! TO.N,Board_2-Net-(D16-Pad1)*
X80500010Y-79400001D02*
X80500010Y-79500001D01*
X82000010Y-81000001D02*
X82000010Y-81100001D01*
X80500010Y-79500001D02*
X82000010Y-81000001D01*
G04 #@! TO.N,Board_2-Net-(D16-Pad3)*
X78000010Y-79400001D02*
X78000010Y-79500001D01*
X79500010Y-81000001D02*
X79500010Y-81100001D01*
X78000010Y-79500001D02*
X79500010Y-81000001D01*
G04 #@! TO.N,Board_2-Net-(D17-Pad1)*
X73000010Y-58400001D02*
X73000010Y-58500001D01*
X74500010Y-60000001D02*
X74500010Y-60100001D01*
X73000010Y-58500001D02*
X74500010Y-60000001D01*
G04 #@! TO.N,Board_2-Net-(D17-Pad3)*
X75500010Y-58400001D02*
X75500010Y-58500001D01*
X77000010Y-60000001D02*
X77000010Y-60100001D01*
X75500010Y-58500001D02*
X77000010Y-60000001D01*
G04 #@! TO.N,Board_2-Net-(D18-Pad3)*
X75500010Y-61400001D02*
X75500010Y-61500001D01*
X77000010Y-63000001D02*
X77000010Y-63100001D01*
X75500010Y-61500001D02*
X77000010Y-63000001D01*
G04 #@! TO.N,Board_2-Net-(D19-Pad3)*
X75500010Y-64400001D02*
X75500010Y-64500001D01*
X77000010Y-66000001D02*
X77000010Y-66100001D01*
X75500010Y-64500001D02*
X77000010Y-66000001D01*
G04 #@! TO.N,Board_2-Net-(D20-Pad3)*
X75500010Y-67400001D02*
X75500010Y-67500001D01*
X77000010Y-69000001D02*
X77000010Y-69100001D01*
X75500010Y-67500001D02*
X77000010Y-69000001D01*
G04 #@! TO.N,Board_2-Net-(D21-Pad3)*
X75500010Y-70400001D02*
X75500010Y-70500001D01*
X77000010Y-72000001D02*
X77000010Y-72100001D01*
X75500010Y-70500001D02*
X77000010Y-72000001D01*
G04 #@! TO.N,Board_2-Net-(D22-Pad3)*
X75500010Y-73400001D02*
X75500010Y-73500001D01*
X77000010Y-75000001D02*
X77000010Y-75100001D01*
X75500010Y-73500001D02*
X77000010Y-75000001D01*
G04 #@! TO.N,Board_2-Net-(D23-Pad3)*
X75500010Y-76400001D02*
X75500010Y-76500001D01*
X77000010Y-78000001D02*
X77000010Y-78100001D01*
X75500010Y-76500001D02*
X77000010Y-78000001D01*
G04 #@! TO.N,Board_2-Net-(D24-Pad3)*
X75500010Y-79400001D02*
X75500010Y-79500001D01*
X77000010Y-81000001D02*
X77000010Y-81100001D01*
X75500010Y-79500001D02*
X77000010Y-81000001D01*
G04 #@! TO.N,Board_2-Net-(D25-Pad3)*
X78000010Y-58400001D02*
X78000010Y-58500001D01*
X79500010Y-60000001D02*
X79500010Y-60100001D01*
X78000010Y-58500001D02*
X79500010Y-60000001D01*
G04 #@! TO.N,Board_2-Net-(D26-Pad3)*
X73000010Y-61400001D02*
X73000010Y-61500001D01*
X74500010Y-63000001D02*
X74500010Y-63100001D01*
X73000010Y-61500001D02*
X74500010Y-63000001D01*
G04 #@! TO.N,Board_2-Net-(D27-Pad3)*
X78000010Y-64400001D02*
X78000010Y-64500001D01*
X79500010Y-66000001D02*
X79500010Y-66100001D01*
X78000010Y-64500001D02*
X79500010Y-66000001D01*
G04 #@! TO.N,Board_2-Net-(D28-Pad3)*
X73000010Y-67400001D02*
X73000010Y-67500001D01*
X74500010Y-69000001D02*
X74500010Y-69100001D01*
X73000010Y-67500001D02*
X74500010Y-69000001D01*
G04 #@! TO.N,Board_2-Net-(D29-Pad3)*
X78000010Y-70400001D02*
X78000010Y-70500001D01*
X79500010Y-72000001D02*
X79500010Y-72100001D01*
X78000010Y-70500001D02*
X79500010Y-72000001D01*
G04 #@! TO.N,Board_2-Net-(D30-Pad3)*
X73000010Y-73400001D02*
X73000010Y-73500001D01*
X74500010Y-75000001D02*
X74500010Y-75100001D01*
X73000010Y-73500001D02*
X74500010Y-75000001D01*
G04 #@! TO.N,Board_2-Net-(D31-Pad3)*
X78000010Y-76400001D02*
X78000010Y-76500001D01*
X79500010Y-78000001D02*
X79500010Y-78100001D01*
X78000010Y-76500001D02*
X79500010Y-78000001D01*
G04 #@! TO.N,Board_2-Net-(D32-Pad3)*
X73000010Y-79400001D02*
X73000010Y-79500001D01*
X74500010Y-81000001D02*
X74500010Y-81100001D01*
X73000010Y-79500001D02*
X74500010Y-81000001D01*
G04 #@! TO.N,Board_2-Net-(D33-Pad3)*
X80500010Y-58400001D02*
X80500010Y-58500001D01*
X82000010Y-60000001D02*
X82000010Y-60100001D01*
X80500010Y-58500001D02*
X82000010Y-60000001D01*
G04 #@! TO.N,Board_2-Net-(D34-Pad3)*
X70500010Y-61400001D02*
X70500010Y-61500001D01*
X72000010Y-63000001D02*
X72000010Y-63100001D01*
X70500010Y-61500001D02*
X72000010Y-63000001D01*
G04 #@! TO.N,Board_2-Net-(D35-Pad3)*
X80500010Y-64400001D02*
X80500010Y-64500001D01*
X82000010Y-66000001D02*
X82000010Y-66100001D01*
X80500010Y-64500001D02*
X82000010Y-66000001D01*
G04 #@! TO.N,Board_2-Net-(D36-Pad3)*
X70500010Y-67400001D02*
X70500010Y-67500001D01*
X72000010Y-69000001D02*
X72000010Y-69100001D01*
X70500010Y-67500001D02*
X72000010Y-69000001D01*
G04 #@! TO.N,Board_2-Net-(D37-Pad3)*
X80500010Y-70400001D02*
X80500010Y-70500001D01*
X82000010Y-72000001D02*
X82000010Y-72100001D01*
X80500010Y-70500001D02*
X82000010Y-72000001D01*
G04 #@! TO.N,Board_2-Net-(D38-Pad3)*
X70500010Y-73400001D02*
X70500010Y-73500001D01*
X72000010Y-75000001D02*
X72000010Y-75100001D01*
X70500010Y-73500001D02*
X72000010Y-75000001D01*
G04 #@! TO.N,Board_2-Net-(D39-Pad3)*
X80500010Y-76400001D02*
X80500010Y-76500001D01*
X82000010Y-78000001D02*
X82000010Y-78100001D01*
X80500010Y-76500001D02*
X82000010Y-78000001D01*
G04 #@! TO.N,Board_2-Net-(D40-Pad3)*
X70500010Y-79400001D02*
X70500010Y-79500001D01*
X72000010Y-81000001D02*
X72000010Y-81100001D01*
X70500010Y-79500001D02*
X72000010Y-81000001D01*
G04 #@! TO.N,Board_2-Net-(D48-Pad3)*
X69500010Y-80750001D02*
X70000010Y-80250001D01*
X69500010Y-81100001D02*
X69500010Y-80750001D01*
G04 #@! TD*
D15*
G04 #@! TO.N,Board_1-GND*
X52154001Y-80946001D02*
X52174001Y-80946001D01*
X52174001Y-81254001D01*
X52154001Y-81254001D01*
X52154001Y-81956001D01*
X52306001Y-82108001D01*
X52421742Y-82098691D01*
X52536202Y-82063436D01*
X52641584Y-82006530D01*
X52733839Y-81930157D01*
X52809422Y-81837254D01*
X52865429Y-81731391D01*
X52887437Y-81657709D01*
X52907579Y-81695391D01*
X52951316Y-81748686D01*
X53004611Y-81792423D01*
X53065414Y-81824923D01*
X53131389Y-81844936D01*
X53200001Y-81851694D01*
X53702328Y-81851694D01*
X53766163Y-81930157D01*
X53858418Y-82006530D01*
X53963800Y-82063436D01*
X54078260Y-82098691D01*
X54194001Y-82108001D01*
X54346001Y-81956001D01*
X54346001Y-81254001D01*
X54326001Y-81254001D01*
X54326001Y-80946001D01*
X54346001Y-80946001D01*
X54346001Y-80926001D01*
X54654001Y-80926001D01*
X54654001Y-80946001D01*
X54674001Y-80946001D01*
X54674001Y-81254001D01*
X54654001Y-81254001D01*
X54654001Y-81956001D01*
X54806001Y-82108001D01*
X54921742Y-82098691D01*
X55036202Y-82063436D01*
X55141584Y-82006530D01*
X55233839Y-81930157D01*
X55309422Y-81837254D01*
X55365429Y-81731391D01*
X55387437Y-81657709D01*
X55407579Y-81695391D01*
X55451316Y-81748686D01*
X55504611Y-81792423D01*
X55565414Y-81824923D01*
X55631389Y-81844936D01*
X55700001Y-81851694D01*
X56202328Y-81851694D01*
X56266163Y-81930157D01*
X56358418Y-82006530D01*
X56463800Y-82063436D01*
X56578260Y-82098691D01*
X56694001Y-82108001D01*
X56846001Y-81956001D01*
X56846001Y-81254001D01*
X56826001Y-81254001D01*
X56826001Y-80946001D01*
X56846001Y-80946001D01*
X56846001Y-80926001D01*
X57154001Y-80926001D01*
X57154001Y-80946001D01*
X57174001Y-80946001D01*
X57174001Y-81254001D01*
X57154001Y-81254001D01*
X57154001Y-81956001D01*
X57306001Y-82108001D01*
X57421742Y-82098691D01*
X57536202Y-82063436D01*
X57641584Y-82006530D01*
X57733839Y-81930157D01*
X57809422Y-81837254D01*
X57865429Y-81731391D01*
X57887437Y-81657709D01*
X57907579Y-81695391D01*
X57951316Y-81748686D01*
X58004611Y-81792423D01*
X58065414Y-81824923D01*
X58131389Y-81844936D01*
X58200001Y-81851694D01*
X58702328Y-81851694D01*
X58766163Y-81930157D01*
X58858418Y-82006530D01*
X58963800Y-82063436D01*
X59078260Y-82098691D01*
X59194001Y-82108001D01*
X59346001Y-81956001D01*
X59346001Y-81254001D01*
X59326001Y-81254001D01*
X59326001Y-80946001D01*
X59346001Y-80946001D01*
X59346001Y-80926001D01*
X59654001Y-80926001D01*
X59654001Y-80946001D01*
X59674001Y-80946001D01*
X59674001Y-81254001D01*
X59654001Y-81254001D01*
X59654001Y-81956001D01*
X59806001Y-82108001D01*
X59921742Y-82098691D01*
X60036202Y-82063436D01*
X60141584Y-82006530D01*
X60233839Y-81930157D01*
X60309422Y-81837254D01*
X60365429Y-81731391D01*
X60387437Y-81657709D01*
X60407579Y-81695391D01*
X60451316Y-81748686D01*
X60504611Y-81792423D01*
X60565414Y-81824923D01*
X60631389Y-81844936D01*
X60700001Y-81851694D01*
X61202328Y-81851694D01*
X61266163Y-81930157D01*
X61358418Y-82006530D01*
X61463800Y-82063436D01*
X61578260Y-82098691D01*
X61694001Y-82108001D01*
X61846001Y-81956001D01*
X61846001Y-81254001D01*
X61826001Y-81254001D01*
X61826001Y-80946001D01*
X61846001Y-80946001D01*
X61846001Y-80926001D01*
X62154001Y-80926001D01*
X62154001Y-80946001D01*
X62174001Y-80946001D01*
X62174001Y-81254001D01*
X62154001Y-81254001D01*
X62154001Y-81956001D01*
X62306001Y-82108001D01*
X62421742Y-82098691D01*
X62536202Y-82063436D01*
X62641584Y-82006530D01*
X62733839Y-81930157D01*
X62809422Y-81837254D01*
X62865429Y-81731391D01*
X62887437Y-81657709D01*
X62907579Y-81695391D01*
X62951316Y-81748686D01*
X63004611Y-81792423D01*
X63065414Y-81824923D01*
X63131389Y-81844936D01*
X63200001Y-81851694D01*
X63702328Y-81851694D01*
X63766163Y-81930157D01*
X63858418Y-82006530D01*
X63963800Y-82063436D01*
X64078260Y-82098691D01*
X64194001Y-82108001D01*
X64346001Y-81956001D01*
X64346001Y-81254001D01*
X64326001Y-81254001D01*
X64326001Y-80946001D01*
X64346001Y-80946001D01*
X64346001Y-80926001D01*
X64654001Y-80926001D01*
X64654001Y-80946001D01*
X64674001Y-80946001D01*
X64674001Y-81254001D01*
X64654001Y-81254001D01*
X64654001Y-81956001D01*
X64806001Y-82108001D01*
X64921742Y-82098691D01*
X65036202Y-82063436D01*
X65141584Y-82006530D01*
X65181629Y-81973379D01*
X65174058Y-81991657D01*
X65151000Y-82107576D01*
X65151000Y-82225766D01*
X65174058Y-82341685D01*
X65219287Y-82450878D01*
X65284950Y-82549149D01*
X65368522Y-82632721D01*
X65394383Y-82650001D01*
X50399000Y-82650001D01*
X50399000Y-81679341D01*
X50407579Y-81695391D01*
X50451316Y-81748686D01*
X50504611Y-81792423D01*
X50565414Y-81824923D01*
X50631389Y-81844936D01*
X50700001Y-81851694D01*
X51202328Y-81851694D01*
X51266163Y-81930157D01*
X51358418Y-82006530D01*
X51463800Y-82063436D01*
X51578260Y-82098691D01*
X51694001Y-82108001D01*
X51846001Y-81956001D01*
X51846001Y-81254001D01*
X51826001Y-81254001D01*
X51826001Y-80946001D01*
X51846001Y-80946001D01*
X51846001Y-80926001D01*
X52154001Y-80926001D01*
X52154001Y-80946001D01*
G04 #@! TA.AperFunction,Conductor*
D16*
G36*
X52154001Y-80946001D02*
G01*
X52174001Y-80946001D01*
X52174001Y-81254001D01*
X52154001Y-81254001D01*
X52154001Y-81956001D01*
X52306001Y-82108001D01*
X52421742Y-82098691D01*
X52536202Y-82063436D01*
X52641584Y-82006530D01*
X52733839Y-81930157D01*
X52809422Y-81837254D01*
X52865429Y-81731391D01*
X52887437Y-81657709D01*
X52907579Y-81695391D01*
X52951316Y-81748686D01*
X53004611Y-81792423D01*
X53065414Y-81824923D01*
X53131389Y-81844936D01*
X53200001Y-81851694D01*
X53702328Y-81851694D01*
X53766163Y-81930157D01*
X53858418Y-82006530D01*
X53963800Y-82063436D01*
X54078260Y-82098691D01*
X54194001Y-82108001D01*
X54346001Y-81956001D01*
X54346001Y-81254001D01*
X54326001Y-81254001D01*
X54326001Y-80946001D01*
X54346001Y-80946001D01*
X54346001Y-80926001D01*
X54654001Y-80926001D01*
X54654001Y-80946001D01*
X54674001Y-80946001D01*
X54674001Y-81254001D01*
X54654001Y-81254001D01*
X54654001Y-81956001D01*
X54806001Y-82108001D01*
X54921742Y-82098691D01*
X55036202Y-82063436D01*
X55141584Y-82006530D01*
X55233839Y-81930157D01*
X55309422Y-81837254D01*
X55365429Y-81731391D01*
X55387437Y-81657709D01*
X55407579Y-81695391D01*
X55451316Y-81748686D01*
X55504611Y-81792423D01*
X55565414Y-81824923D01*
X55631389Y-81844936D01*
X55700001Y-81851694D01*
X56202328Y-81851694D01*
X56266163Y-81930157D01*
X56358418Y-82006530D01*
X56463800Y-82063436D01*
X56578260Y-82098691D01*
X56694001Y-82108001D01*
X56846001Y-81956001D01*
X56846001Y-81254001D01*
X56826001Y-81254001D01*
X56826001Y-80946001D01*
X56846001Y-80946001D01*
X56846001Y-80926001D01*
X57154001Y-80926001D01*
X57154001Y-80946001D01*
X57174001Y-80946001D01*
X57174001Y-81254001D01*
X57154001Y-81254001D01*
X57154001Y-81956001D01*
X57306001Y-82108001D01*
X57421742Y-82098691D01*
X57536202Y-82063436D01*
X57641584Y-82006530D01*
X57733839Y-81930157D01*
X57809422Y-81837254D01*
X57865429Y-81731391D01*
X57887437Y-81657709D01*
X57907579Y-81695391D01*
X57951316Y-81748686D01*
X58004611Y-81792423D01*
X58065414Y-81824923D01*
X58131389Y-81844936D01*
X58200001Y-81851694D01*
X58702328Y-81851694D01*
X58766163Y-81930157D01*
X58858418Y-82006530D01*
X58963800Y-82063436D01*
X59078260Y-82098691D01*
X59194001Y-82108001D01*
X59346001Y-81956001D01*
X59346001Y-81254001D01*
X59326001Y-81254001D01*
X59326001Y-80946001D01*
X59346001Y-80946001D01*
X59346001Y-80926001D01*
X59654001Y-80926001D01*
X59654001Y-80946001D01*
X59674001Y-80946001D01*
X59674001Y-81254001D01*
X59654001Y-81254001D01*
X59654001Y-81956001D01*
X59806001Y-82108001D01*
X59921742Y-82098691D01*
X60036202Y-82063436D01*
X60141584Y-82006530D01*
X60233839Y-81930157D01*
X60309422Y-81837254D01*
X60365429Y-81731391D01*
X60387437Y-81657709D01*
X60407579Y-81695391D01*
X60451316Y-81748686D01*
X60504611Y-81792423D01*
X60565414Y-81824923D01*
X60631389Y-81844936D01*
X60700001Y-81851694D01*
X61202328Y-81851694D01*
X61266163Y-81930157D01*
X61358418Y-82006530D01*
X61463800Y-82063436D01*
X61578260Y-82098691D01*
X61694001Y-82108001D01*
X61846001Y-81956001D01*
X61846001Y-81254001D01*
X61826001Y-81254001D01*
X61826001Y-80946001D01*
X61846001Y-80946001D01*
X61846001Y-80926001D01*
X62154001Y-80926001D01*
X62154001Y-80946001D01*
X62174001Y-80946001D01*
X62174001Y-81254001D01*
X62154001Y-81254001D01*
X62154001Y-81956001D01*
X62306001Y-82108001D01*
X62421742Y-82098691D01*
X62536202Y-82063436D01*
X62641584Y-82006530D01*
X62733839Y-81930157D01*
X62809422Y-81837254D01*
X62865429Y-81731391D01*
X62887437Y-81657709D01*
X62907579Y-81695391D01*
X62951316Y-81748686D01*
X63004611Y-81792423D01*
X63065414Y-81824923D01*
X63131389Y-81844936D01*
X63200001Y-81851694D01*
X63702328Y-81851694D01*
X63766163Y-81930157D01*
X63858418Y-82006530D01*
X63963800Y-82063436D01*
X64078260Y-82098691D01*
X64194001Y-82108001D01*
X64346001Y-81956001D01*
X64346001Y-81254001D01*
X64326001Y-81254001D01*
X64326001Y-80946001D01*
X64346001Y-80946001D01*
X64346001Y-80926001D01*
X64654001Y-80926001D01*
X64654001Y-80946001D01*
X64674001Y-80946001D01*
X64674001Y-81254001D01*
X64654001Y-81254001D01*
X64654001Y-81956001D01*
X64806001Y-82108001D01*
X64921742Y-82098691D01*
X65036202Y-82063436D01*
X65141584Y-82006530D01*
X65181629Y-81973379D01*
X65174058Y-81991657D01*
X65151000Y-82107576D01*
X65151000Y-82225766D01*
X65174058Y-82341685D01*
X65219287Y-82450878D01*
X65284950Y-82549149D01*
X65368522Y-82632721D01*
X65394383Y-82650001D01*
X50399000Y-82650001D01*
X50399000Y-81679341D01*
X50407579Y-81695391D01*
X50451316Y-81748686D01*
X50504611Y-81792423D01*
X50565414Y-81824923D01*
X50631389Y-81844936D01*
X50700001Y-81851694D01*
X51202328Y-81851694D01*
X51266163Y-81930157D01*
X51358418Y-82006530D01*
X51463800Y-82063436D01*
X51578260Y-82098691D01*
X51694001Y-82108001D01*
X51846001Y-81956001D01*
X51846001Y-81254001D01*
X51826001Y-81254001D01*
X51826001Y-80946001D01*
X51846001Y-80946001D01*
X51846001Y-80926001D01*
X52154001Y-80926001D01*
X52154001Y-80946001D01*
G37*
G04 #@! TD.AperFunction*
D15*
X63654001Y-76246001D02*
X63674001Y-76246001D01*
X63674001Y-76554001D01*
X63654001Y-76554001D01*
X63654001Y-76574001D01*
X63346001Y-76574001D01*
X63346001Y-76554001D01*
X63326001Y-76554001D01*
X63326001Y-76246001D01*
X63346001Y-76246001D01*
X63346001Y-76226001D01*
X63654001Y-76226001D01*
X63654001Y-76246001D01*
G04 #@! TA.AperFunction,Conductor*
D16*
G36*
X63654001Y-76246001D02*
G01*
X63674001Y-76246001D01*
X63674001Y-76554001D01*
X63654001Y-76554001D01*
X63654001Y-76574001D01*
X63346001Y-76574001D01*
X63346001Y-76554001D01*
X63326001Y-76554001D01*
X63326001Y-76246001D01*
X63346001Y-76246001D01*
X63346001Y-76226001D01*
X63654001Y-76226001D01*
X63654001Y-76246001D01*
G37*
G04 #@! TD.AperFunction*
D15*
X61154001Y-76246001D02*
X61174001Y-76246001D01*
X61174001Y-76554001D01*
X61154001Y-76554001D01*
X61154001Y-76574001D01*
X60846001Y-76574001D01*
X60846001Y-76554001D01*
X60826001Y-76554001D01*
X60826001Y-76246001D01*
X60846001Y-76246001D01*
X60846001Y-76226001D01*
X61154001Y-76226001D01*
X61154001Y-76246001D01*
G04 #@! TA.AperFunction,Conductor*
D16*
G36*
X61154001Y-76246001D02*
G01*
X61174001Y-76246001D01*
X61174001Y-76554001D01*
X61154001Y-76554001D01*
X61154001Y-76574001D01*
X60846001Y-76574001D01*
X60846001Y-76554001D01*
X60826001Y-76554001D01*
X60826001Y-76246001D01*
X60846001Y-76246001D01*
X60846001Y-76226001D01*
X61154001Y-76226001D01*
X61154001Y-76246001D01*
G37*
G04 #@! TD.AperFunction*
D15*
X58654001Y-76246001D02*
X58674001Y-76246001D01*
X58674001Y-76554001D01*
X58654001Y-76554001D01*
X58654001Y-76574001D01*
X58346001Y-76574001D01*
X58346001Y-76554001D01*
X58326001Y-76554001D01*
X58326001Y-76246001D01*
X58346001Y-76246001D01*
X58346001Y-76226001D01*
X58654001Y-76226001D01*
X58654001Y-76246001D01*
G04 #@! TA.AperFunction,Conductor*
D16*
G36*
X58654001Y-76246001D02*
G01*
X58674001Y-76246001D01*
X58674001Y-76554001D01*
X58654001Y-76554001D01*
X58654001Y-76574001D01*
X58346001Y-76574001D01*
X58346001Y-76554001D01*
X58326001Y-76554001D01*
X58326001Y-76246001D01*
X58346001Y-76246001D01*
X58346001Y-76226001D01*
X58654001Y-76226001D01*
X58654001Y-76246001D01*
G37*
G04 #@! TD.AperFunction*
D15*
X56154001Y-76246001D02*
X56174001Y-76246001D01*
X56174001Y-76554001D01*
X56154001Y-76554001D01*
X56154001Y-76574001D01*
X55846001Y-76574001D01*
X55846001Y-76554001D01*
X55826001Y-76554001D01*
X55826001Y-76246001D01*
X55846001Y-76246001D01*
X55846001Y-76226001D01*
X56154001Y-76226001D01*
X56154001Y-76246001D01*
G04 #@! TA.AperFunction,Conductor*
D16*
G36*
X56154001Y-76246001D02*
G01*
X56174001Y-76246001D01*
X56174001Y-76554001D01*
X56154001Y-76554001D01*
X56154001Y-76574001D01*
X55846001Y-76574001D01*
X55846001Y-76554001D01*
X55826001Y-76554001D01*
X55826001Y-76246001D01*
X55846001Y-76246001D01*
X55846001Y-76226001D01*
X56154001Y-76226001D01*
X56154001Y-76246001D01*
G37*
G04 #@! TD.AperFunction*
D15*
X53654001Y-76246001D02*
X53674001Y-76246001D01*
X53674001Y-76554001D01*
X53654001Y-76554001D01*
X53654001Y-76574001D01*
X53346001Y-76574001D01*
X53346001Y-76554001D01*
X53326001Y-76554001D01*
X53326001Y-76246001D01*
X53346001Y-76246001D01*
X53346001Y-76226001D01*
X53654001Y-76226001D01*
X53654001Y-76246001D01*
G04 #@! TA.AperFunction,Conductor*
D16*
G36*
X53654001Y-76246001D02*
G01*
X53674001Y-76246001D01*
X53674001Y-76554001D01*
X53654001Y-76554001D01*
X53654001Y-76574001D01*
X53346001Y-76574001D01*
X53346001Y-76554001D01*
X53326001Y-76554001D01*
X53326001Y-76246001D01*
X53346001Y-76246001D01*
X53346001Y-76226001D01*
X53654001Y-76226001D01*
X53654001Y-76246001D01*
G37*
G04 #@! TD.AperFunction*
D15*
X51154001Y-76246001D02*
X51174001Y-76246001D01*
X51174001Y-76554001D01*
X51154001Y-76554001D01*
X51154001Y-76574001D01*
X50846001Y-76574001D01*
X50846001Y-76554001D01*
X50826001Y-76554001D01*
X50826001Y-76246001D01*
X50846001Y-76246001D01*
X50846001Y-76226001D01*
X51154001Y-76226001D01*
X51154001Y-76246001D01*
G04 #@! TA.AperFunction,Conductor*
D16*
G36*
X51154001Y-76246001D02*
G01*
X51174001Y-76246001D01*
X51174001Y-76554001D01*
X51154001Y-76554001D01*
X51154001Y-76574001D01*
X50846001Y-76574001D01*
X50846001Y-76554001D01*
X50826001Y-76554001D01*
X50826001Y-76246001D01*
X50846001Y-76246001D01*
X50846001Y-76226001D01*
X51154001Y-76226001D01*
X51154001Y-76246001D01*
G37*
G04 #@! TD.AperFunction*
D15*
X62154001Y-74946001D02*
X62174001Y-74946001D01*
X62174001Y-75254001D01*
X62154001Y-75254001D01*
X62154001Y-75274001D01*
X61846001Y-75274001D01*
X61846001Y-75254001D01*
X61826001Y-75254001D01*
X61826001Y-74946001D01*
X61846001Y-74946001D01*
X61846001Y-74926001D01*
X62154001Y-74926001D01*
X62154001Y-74946001D01*
G04 #@! TA.AperFunction,Conductor*
D16*
G36*
X62154001Y-74946001D02*
G01*
X62174001Y-74946001D01*
X62174001Y-75254001D01*
X62154001Y-75254001D01*
X62154001Y-75274001D01*
X61846001Y-75274001D01*
X61846001Y-75254001D01*
X61826001Y-75254001D01*
X61826001Y-74946001D01*
X61846001Y-74946001D01*
X61846001Y-74926001D01*
X62154001Y-74926001D01*
X62154001Y-74946001D01*
G37*
G04 #@! TD.AperFunction*
D15*
X64654001Y-74946001D02*
X64674001Y-74946001D01*
X64674001Y-75254001D01*
X64654001Y-75254001D01*
X64654001Y-75274001D01*
X64346001Y-75274001D01*
X64346001Y-75254001D01*
X64326001Y-75254001D01*
X64326001Y-74946001D01*
X64346001Y-74946001D01*
X64346001Y-74926001D01*
X64654001Y-74926001D01*
X64654001Y-74946001D01*
G04 #@! TA.AperFunction,Conductor*
D16*
G36*
X64654001Y-74946001D02*
G01*
X64674001Y-74946001D01*
X64674001Y-75254001D01*
X64654001Y-75254001D01*
X64654001Y-75274001D01*
X64346001Y-75274001D01*
X64346001Y-75254001D01*
X64326001Y-75254001D01*
X64326001Y-74946001D01*
X64346001Y-74946001D01*
X64346001Y-74926001D01*
X64654001Y-74926001D01*
X64654001Y-74946001D01*
G37*
G04 #@! TD.AperFunction*
D15*
X52154001Y-74946001D02*
X52174001Y-74946001D01*
X52174001Y-75254001D01*
X52154001Y-75254001D01*
X52154001Y-75274001D01*
X51846001Y-75274001D01*
X51846001Y-75254001D01*
X51826001Y-75254001D01*
X51826001Y-74946001D01*
X51846001Y-74946001D01*
X51846001Y-74926001D01*
X52154001Y-74926001D01*
X52154001Y-74946001D01*
G04 #@! TA.AperFunction,Conductor*
D16*
G36*
X52154001Y-74946001D02*
G01*
X52174001Y-74946001D01*
X52174001Y-75254001D01*
X52154001Y-75254001D01*
X52154001Y-75274001D01*
X51846001Y-75274001D01*
X51846001Y-75254001D01*
X51826001Y-75254001D01*
X51826001Y-74946001D01*
X51846001Y-74946001D01*
X51846001Y-74926001D01*
X52154001Y-74926001D01*
X52154001Y-74946001D01*
G37*
G04 #@! TD.AperFunction*
D15*
X54654001Y-74946001D02*
X54674001Y-74946001D01*
X54674001Y-75254001D01*
X54654001Y-75254001D01*
X54654001Y-75274001D01*
X54346001Y-75274001D01*
X54346001Y-75254001D01*
X54326001Y-75254001D01*
X54326001Y-74946001D01*
X54346001Y-74946001D01*
X54346001Y-74926001D01*
X54654001Y-74926001D01*
X54654001Y-74946001D01*
G04 #@! TA.AperFunction,Conductor*
D16*
G36*
X54654001Y-74946001D02*
G01*
X54674001Y-74946001D01*
X54674001Y-75254001D01*
X54654001Y-75254001D01*
X54654001Y-75274001D01*
X54346001Y-75274001D01*
X54346001Y-75254001D01*
X54326001Y-75254001D01*
X54326001Y-74946001D01*
X54346001Y-74946001D01*
X54346001Y-74926001D01*
X54654001Y-74926001D01*
X54654001Y-74946001D01*
G37*
G04 #@! TD.AperFunction*
D15*
X57154001Y-74946001D02*
X57174001Y-74946001D01*
X57174001Y-75254001D01*
X57154001Y-75254001D01*
X57154001Y-75274001D01*
X56846001Y-75274001D01*
X56846001Y-75254001D01*
X56826001Y-75254001D01*
X56826001Y-74946001D01*
X56846001Y-74946001D01*
X56846001Y-74926001D01*
X57154001Y-74926001D01*
X57154001Y-74946001D01*
G04 #@! TA.AperFunction,Conductor*
D16*
G36*
X57154001Y-74946001D02*
G01*
X57174001Y-74946001D01*
X57174001Y-75254001D01*
X57154001Y-75254001D01*
X57154001Y-75274001D01*
X56846001Y-75274001D01*
X56846001Y-75254001D01*
X56826001Y-75254001D01*
X56826001Y-74946001D01*
X56846001Y-74946001D01*
X56846001Y-74926001D01*
X57154001Y-74926001D01*
X57154001Y-74946001D01*
G37*
G04 #@! TD.AperFunction*
D15*
X59654001Y-74946001D02*
X59674001Y-74946001D01*
X59674001Y-75254001D01*
X59654001Y-75254001D01*
X59654001Y-75274001D01*
X59346001Y-75274001D01*
X59346001Y-75254001D01*
X59326001Y-75254001D01*
X59326001Y-74946001D01*
X59346001Y-74946001D01*
X59346001Y-74926001D01*
X59654001Y-74926001D01*
X59654001Y-74946001D01*
G04 #@! TA.AperFunction,Conductor*
D16*
G36*
X59654001Y-74946001D02*
G01*
X59674001Y-74946001D01*
X59674001Y-75254001D01*
X59654001Y-75254001D01*
X59654001Y-75274001D01*
X59346001Y-75274001D01*
X59346001Y-75254001D01*
X59326001Y-75254001D01*
X59326001Y-74946001D01*
X59346001Y-74946001D01*
X59346001Y-74926001D01*
X59654001Y-74926001D01*
X59654001Y-74946001D01*
G37*
G04 #@! TD.AperFunction*
D15*
X63654001Y-70246001D02*
X63674001Y-70246001D01*
X63674001Y-70554001D01*
X63654001Y-70554001D01*
X63654001Y-70574001D01*
X63346001Y-70574001D01*
X63346001Y-70554001D01*
X63326001Y-70554001D01*
X63326001Y-70246001D01*
X63346001Y-70246001D01*
X63346001Y-70226001D01*
X63654001Y-70226001D01*
X63654001Y-70246001D01*
G04 #@! TA.AperFunction,Conductor*
D16*
G36*
X63654001Y-70246001D02*
G01*
X63674001Y-70246001D01*
X63674001Y-70554001D01*
X63654001Y-70554001D01*
X63654001Y-70574001D01*
X63346001Y-70574001D01*
X63346001Y-70554001D01*
X63326001Y-70554001D01*
X63326001Y-70246001D01*
X63346001Y-70246001D01*
X63346001Y-70226001D01*
X63654001Y-70226001D01*
X63654001Y-70246001D01*
G37*
G04 #@! TD.AperFunction*
D15*
X61154001Y-70246001D02*
X61174001Y-70246001D01*
X61174001Y-70554001D01*
X61154001Y-70554001D01*
X61154001Y-70574001D01*
X60846001Y-70574001D01*
X60846001Y-70554001D01*
X60826001Y-70554001D01*
X60826001Y-70246001D01*
X60846001Y-70246001D01*
X60846001Y-70226001D01*
X61154001Y-70226001D01*
X61154001Y-70246001D01*
G04 #@! TA.AperFunction,Conductor*
D16*
G36*
X61154001Y-70246001D02*
G01*
X61174001Y-70246001D01*
X61174001Y-70554001D01*
X61154001Y-70554001D01*
X61154001Y-70574001D01*
X60846001Y-70574001D01*
X60846001Y-70554001D01*
X60826001Y-70554001D01*
X60826001Y-70246001D01*
X60846001Y-70246001D01*
X60846001Y-70226001D01*
X61154001Y-70226001D01*
X61154001Y-70246001D01*
G37*
G04 #@! TD.AperFunction*
D15*
X58654001Y-70246001D02*
X58674001Y-70246001D01*
X58674001Y-70554001D01*
X58654001Y-70554001D01*
X58654001Y-70574001D01*
X58346001Y-70574001D01*
X58346001Y-70554001D01*
X58326001Y-70554001D01*
X58326001Y-70246001D01*
X58346001Y-70246001D01*
X58346001Y-70226001D01*
X58654001Y-70226001D01*
X58654001Y-70246001D01*
G04 #@! TA.AperFunction,Conductor*
D16*
G36*
X58654001Y-70246001D02*
G01*
X58674001Y-70246001D01*
X58674001Y-70554001D01*
X58654001Y-70554001D01*
X58654001Y-70574001D01*
X58346001Y-70574001D01*
X58346001Y-70554001D01*
X58326001Y-70554001D01*
X58326001Y-70246001D01*
X58346001Y-70246001D01*
X58346001Y-70226001D01*
X58654001Y-70226001D01*
X58654001Y-70246001D01*
G37*
G04 #@! TD.AperFunction*
D15*
X56154001Y-70246001D02*
X56174001Y-70246001D01*
X56174001Y-70554001D01*
X56154001Y-70554001D01*
X56154001Y-70574001D01*
X55846001Y-70574001D01*
X55846001Y-70554001D01*
X55826001Y-70554001D01*
X55826001Y-70246001D01*
X55846001Y-70246001D01*
X55846001Y-70226001D01*
X56154001Y-70226001D01*
X56154001Y-70246001D01*
G04 #@! TA.AperFunction,Conductor*
D16*
G36*
X56154001Y-70246001D02*
G01*
X56174001Y-70246001D01*
X56174001Y-70554001D01*
X56154001Y-70554001D01*
X56154001Y-70574001D01*
X55846001Y-70574001D01*
X55846001Y-70554001D01*
X55826001Y-70554001D01*
X55826001Y-70246001D01*
X55846001Y-70246001D01*
X55846001Y-70226001D01*
X56154001Y-70226001D01*
X56154001Y-70246001D01*
G37*
G04 #@! TD.AperFunction*
D15*
X53654001Y-70246001D02*
X53674001Y-70246001D01*
X53674001Y-70554001D01*
X53654001Y-70554001D01*
X53654001Y-70574001D01*
X53346001Y-70574001D01*
X53346001Y-70554001D01*
X53326001Y-70554001D01*
X53326001Y-70246001D01*
X53346001Y-70246001D01*
X53346001Y-70226001D01*
X53654001Y-70226001D01*
X53654001Y-70246001D01*
G04 #@! TA.AperFunction,Conductor*
D16*
G36*
X53654001Y-70246001D02*
G01*
X53674001Y-70246001D01*
X53674001Y-70554001D01*
X53654001Y-70554001D01*
X53654001Y-70574001D01*
X53346001Y-70574001D01*
X53346001Y-70554001D01*
X53326001Y-70554001D01*
X53326001Y-70246001D01*
X53346001Y-70246001D01*
X53346001Y-70226001D01*
X53654001Y-70226001D01*
X53654001Y-70246001D01*
G37*
G04 #@! TD.AperFunction*
D15*
X51154001Y-70246001D02*
X51174001Y-70246001D01*
X51174001Y-70554001D01*
X51154001Y-70554001D01*
X51154001Y-70574001D01*
X50846001Y-70574001D01*
X50846001Y-70554001D01*
X50826001Y-70554001D01*
X50826001Y-70246001D01*
X50846001Y-70246001D01*
X50846001Y-70226001D01*
X51154001Y-70226001D01*
X51154001Y-70246001D01*
G04 #@! TA.AperFunction,Conductor*
D16*
G36*
X51154001Y-70246001D02*
G01*
X51174001Y-70246001D01*
X51174001Y-70554001D01*
X51154001Y-70554001D01*
X51154001Y-70574001D01*
X50846001Y-70574001D01*
X50846001Y-70554001D01*
X50826001Y-70554001D01*
X50826001Y-70246001D01*
X50846001Y-70246001D01*
X50846001Y-70226001D01*
X51154001Y-70226001D01*
X51154001Y-70246001D01*
G37*
G04 #@! TD.AperFunction*
D15*
X52154001Y-68946001D02*
X52174001Y-68946001D01*
X52174001Y-69254001D01*
X52154001Y-69254001D01*
X52154001Y-69274001D01*
X51846001Y-69274001D01*
X51846001Y-69254001D01*
X51826001Y-69254001D01*
X51826001Y-68946001D01*
X51846001Y-68946001D01*
X51846001Y-68926001D01*
X52154001Y-68926001D01*
X52154001Y-68946001D01*
G04 #@! TA.AperFunction,Conductor*
D16*
G36*
X52154001Y-68946001D02*
G01*
X52174001Y-68946001D01*
X52174001Y-69254001D01*
X52154001Y-69254001D01*
X52154001Y-69274001D01*
X51846001Y-69274001D01*
X51846001Y-69254001D01*
X51826001Y-69254001D01*
X51826001Y-68946001D01*
X51846001Y-68946001D01*
X51846001Y-68926001D01*
X52154001Y-68926001D01*
X52154001Y-68946001D01*
G37*
G04 #@! TD.AperFunction*
D15*
X62154001Y-68946001D02*
X62174001Y-68946001D01*
X62174001Y-69254001D01*
X62154001Y-69254001D01*
X62154001Y-69274001D01*
X61846001Y-69274001D01*
X61846001Y-69254001D01*
X61826001Y-69254001D01*
X61826001Y-68946001D01*
X61846001Y-68946001D01*
X61846001Y-68926001D01*
X62154001Y-68926001D01*
X62154001Y-68946001D01*
G04 #@! TA.AperFunction,Conductor*
D16*
G36*
X62154001Y-68946001D02*
G01*
X62174001Y-68946001D01*
X62174001Y-69254001D01*
X62154001Y-69254001D01*
X62154001Y-69274001D01*
X61846001Y-69274001D01*
X61846001Y-69254001D01*
X61826001Y-69254001D01*
X61826001Y-68946001D01*
X61846001Y-68946001D01*
X61846001Y-68926001D01*
X62154001Y-68926001D01*
X62154001Y-68946001D01*
G37*
G04 #@! TD.AperFunction*
D15*
X54654001Y-68946001D02*
X54674001Y-68946001D01*
X54674001Y-69254001D01*
X54654001Y-69254001D01*
X54654001Y-69274001D01*
X54346001Y-69274001D01*
X54346001Y-69254001D01*
X54326001Y-69254001D01*
X54326001Y-68946001D01*
X54346001Y-68946001D01*
X54346001Y-68926001D01*
X54654001Y-68926001D01*
X54654001Y-68946001D01*
G04 #@! TA.AperFunction,Conductor*
D16*
G36*
X54654001Y-68946001D02*
G01*
X54674001Y-68946001D01*
X54674001Y-69254001D01*
X54654001Y-69254001D01*
X54654001Y-69274001D01*
X54346001Y-69274001D01*
X54346001Y-69254001D01*
X54326001Y-69254001D01*
X54326001Y-68946001D01*
X54346001Y-68946001D01*
X54346001Y-68926001D01*
X54654001Y-68926001D01*
X54654001Y-68946001D01*
G37*
G04 #@! TD.AperFunction*
D15*
X59654001Y-68946001D02*
X59674001Y-68946001D01*
X59674001Y-69254001D01*
X59654001Y-69254001D01*
X59654001Y-69274001D01*
X59346001Y-69274001D01*
X59346001Y-69254001D01*
X59326001Y-69254001D01*
X59326001Y-68946001D01*
X59346001Y-68946001D01*
X59346001Y-68926001D01*
X59654001Y-68926001D01*
X59654001Y-68946001D01*
G04 #@! TA.AperFunction,Conductor*
D16*
G36*
X59654001Y-68946001D02*
G01*
X59674001Y-68946001D01*
X59674001Y-69254001D01*
X59654001Y-69254001D01*
X59654001Y-69274001D01*
X59346001Y-69274001D01*
X59346001Y-69254001D01*
X59326001Y-69254001D01*
X59326001Y-68946001D01*
X59346001Y-68946001D01*
X59346001Y-68926001D01*
X59654001Y-68926001D01*
X59654001Y-68946001D01*
G37*
G04 #@! TD.AperFunction*
D15*
X64654001Y-68946001D02*
X64674001Y-68946001D01*
X64674001Y-69254001D01*
X64654001Y-69254001D01*
X64654001Y-69274001D01*
X64346001Y-69274001D01*
X64346001Y-69254001D01*
X64326001Y-69254001D01*
X64326001Y-68946001D01*
X64346001Y-68946001D01*
X64346001Y-68926001D01*
X64654001Y-68926001D01*
X64654001Y-68946001D01*
G04 #@! TA.AperFunction,Conductor*
D16*
G36*
X64654001Y-68946001D02*
G01*
X64674001Y-68946001D01*
X64674001Y-69254001D01*
X64654001Y-69254001D01*
X64654001Y-69274001D01*
X64346001Y-69274001D01*
X64346001Y-69254001D01*
X64326001Y-69254001D01*
X64326001Y-68946001D01*
X64346001Y-68946001D01*
X64346001Y-68926001D01*
X64654001Y-68926001D01*
X64654001Y-68946001D01*
G37*
G04 #@! TD.AperFunction*
D15*
X57154001Y-68946001D02*
X57174001Y-68946001D01*
X57174001Y-69254001D01*
X57154001Y-69254001D01*
X57154001Y-69274001D01*
X56846001Y-69274001D01*
X56846001Y-69254001D01*
X56826001Y-69254001D01*
X56826001Y-68946001D01*
X56846001Y-68946001D01*
X56846001Y-68926001D01*
X57154001Y-68926001D01*
X57154001Y-68946001D01*
G04 #@! TA.AperFunction,Conductor*
D16*
G36*
X57154001Y-68946001D02*
G01*
X57174001Y-68946001D01*
X57174001Y-69254001D01*
X57154001Y-69254001D01*
X57154001Y-69274001D01*
X56846001Y-69274001D01*
X56846001Y-69254001D01*
X56826001Y-69254001D01*
X56826001Y-68946001D01*
X56846001Y-68946001D01*
X56846001Y-68926001D01*
X57154001Y-68926001D01*
X57154001Y-68946001D01*
G37*
G04 #@! TD.AperFunction*
D15*
X56154001Y-64246001D02*
X56174001Y-64246001D01*
X56174001Y-64554001D01*
X56154001Y-64554001D01*
X56154001Y-64574001D01*
X55846001Y-64574001D01*
X55846001Y-64554001D01*
X55826001Y-64554001D01*
X55826001Y-64246001D01*
X55846001Y-64246001D01*
X55846001Y-64226001D01*
X56154001Y-64226001D01*
X56154001Y-64246001D01*
G04 #@! TA.AperFunction,Conductor*
D16*
G36*
X56154001Y-64246001D02*
G01*
X56174001Y-64246001D01*
X56174001Y-64554001D01*
X56154001Y-64554001D01*
X56154001Y-64574001D01*
X55846001Y-64574001D01*
X55846001Y-64554001D01*
X55826001Y-64554001D01*
X55826001Y-64246001D01*
X55846001Y-64246001D01*
X55846001Y-64226001D01*
X56154001Y-64226001D01*
X56154001Y-64246001D01*
G37*
G04 #@! TD.AperFunction*
D15*
X51154001Y-64246001D02*
X51174001Y-64246001D01*
X51174001Y-64554001D01*
X51154001Y-64554001D01*
X51154001Y-64574001D01*
X50846001Y-64574001D01*
X50846001Y-64554001D01*
X50826001Y-64554001D01*
X50826001Y-64246001D01*
X50846001Y-64246001D01*
X50846001Y-64226001D01*
X51154001Y-64226001D01*
X51154001Y-64246001D01*
G04 #@! TA.AperFunction,Conductor*
D16*
G36*
X51154001Y-64246001D02*
G01*
X51174001Y-64246001D01*
X51174001Y-64554001D01*
X51154001Y-64554001D01*
X51154001Y-64574001D01*
X50846001Y-64574001D01*
X50846001Y-64554001D01*
X50826001Y-64554001D01*
X50826001Y-64246001D01*
X50846001Y-64246001D01*
X50846001Y-64226001D01*
X51154001Y-64226001D01*
X51154001Y-64246001D01*
G37*
G04 #@! TD.AperFunction*
D15*
X53654001Y-64246001D02*
X53674001Y-64246001D01*
X53674001Y-64554001D01*
X53654001Y-64554001D01*
X53654001Y-64574001D01*
X53346001Y-64574001D01*
X53346001Y-64554001D01*
X53326001Y-64554001D01*
X53326001Y-64246001D01*
X53346001Y-64246001D01*
X53346001Y-64226001D01*
X53654001Y-64226001D01*
X53654001Y-64246001D01*
G04 #@! TA.AperFunction,Conductor*
D16*
G36*
X53654001Y-64246001D02*
G01*
X53674001Y-64246001D01*
X53674001Y-64554001D01*
X53654001Y-64554001D01*
X53654001Y-64574001D01*
X53346001Y-64574001D01*
X53346001Y-64554001D01*
X53326001Y-64554001D01*
X53326001Y-64246001D01*
X53346001Y-64246001D01*
X53346001Y-64226001D01*
X53654001Y-64226001D01*
X53654001Y-64246001D01*
G37*
G04 #@! TD.AperFunction*
D15*
X58654001Y-64246001D02*
X58674001Y-64246001D01*
X58674001Y-64554001D01*
X58654001Y-64554001D01*
X58654001Y-64574001D01*
X58346001Y-64574001D01*
X58346001Y-64554001D01*
X58326001Y-64554001D01*
X58326001Y-64246001D01*
X58346001Y-64246001D01*
X58346001Y-64226001D01*
X58654001Y-64226001D01*
X58654001Y-64246001D01*
G04 #@! TA.AperFunction,Conductor*
D16*
G36*
X58654001Y-64246001D02*
G01*
X58674001Y-64246001D01*
X58674001Y-64554001D01*
X58654001Y-64554001D01*
X58654001Y-64574001D01*
X58346001Y-64574001D01*
X58346001Y-64554001D01*
X58326001Y-64554001D01*
X58326001Y-64246001D01*
X58346001Y-64246001D01*
X58346001Y-64226001D01*
X58654001Y-64226001D01*
X58654001Y-64246001D01*
G37*
G04 #@! TD.AperFunction*
D15*
X61154001Y-64246001D02*
X61174001Y-64246001D01*
X61174001Y-64554001D01*
X61154001Y-64554001D01*
X61154001Y-64574001D01*
X60846001Y-64574001D01*
X60846001Y-64554001D01*
X60826001Y-64554001D01*
X60826001Y-64246001D01*
X60846001Y-64246001D01*
X60846001Y-64226001D01*
X61154001Y-64226001D01*
X61154001Y-64246001D01*
G04 #@! TA.AperFunction,Conductor*
D16*
G36*
X61154001Y-64246001D02*
G01*
X61174001Y-64246001D01*
X61174001Y-64554001D01*
X61154001Y-64554001D01*
X61154001Y-64574001D01*
X60846001Y-64574001D01*
X60846001Y-64554001D01*
X60826001Y-64554001D01*
X60826001Y-64246001D01*
X60846001Y-64246001D01*
X60846001Y-64226001D01*
X61154001Y-64226001D01*
X61154001Y-64246001D01*
G37*
G04 #@! TD.AperFunction*
D15*
X63654001Y-64246001D02*
X63674001Y-64246001D01*
X63674001Y-64554001D01*
X63654001Y-64554001D01*
X63654001Y-64574001D01*
X63346001Y-64574001D01*
X63346001Y-64554001D01*
X63326001Y-64554001D01*
X63326001Y-64246001D01*
X63346001Y-64246001D01*
X63346001Y-64226001D01*
X63654001Y-64226001D01*
X63654001Y-64246001D01*
G04 #@! TA.AperFunction,Conductor*
D16*
G36*
X63654001Y-64246001D02*
G01*
X63674001Y-64246001D01*
X63674001Y-64554001D01*
X63654001Y-64554001D01*
X63654001Y-64574001D01*
X63346001Y-64574001D01*
X63346001Y-64554001D01*
X63326001Y-64554001D01*
X63326001Y-64246001D01*
X63346001Y-64246001D01*
X63346001Y-64226001D01*
X63654001Y-64226001D01*
X63654001Y-64246001D01*
G37*
G04 #@! TD.AperFunction*
D15*
X64654001Y-62946001D02*
X64674001Y-62946001D01*
X64674001Y-63254001D01*
X64654001Y-63254001D01*
X64654001Y-63274001D01*
X64346001Y-63274001D01*
X64346001Y-63254001D01*
X64326001Y-63254001D01*
X64326001Y-62946001D01*
X64346001Y-62946001D01*
X64346001Y-62926001D01*
X64654001Y-62926001D01*
X64654001Y-62946001D01*
G04 #@! TA.AperFunction,Conductor*
D16*
G36*
X64654001Y-62946001D02*
G01*
X64674001Y-62946001D01*
X64674001Y-63254001D01*
X64654001Y-63254001D01*
X64654001Y-63274001D01*
X64346001Y-63274001D01*
X64346001Y-63254001D01*
X64326001Y-63254001D01*
X64326001Y-62946001D01*
X64346001Y-62946001D01*
X64346001Y-62926001D01*
X64654001Y-62926001D01*
X64654001Y-62946001D01*
G37*
G04 #@! TD.AperFunction*
D15*
X62154001Y-62946001D02*
X62174001Y-62946001D01*
X62174001Y-63254001D01*
X62154001Y-63254001D01*
X62154001Y-63274001D01*
X61846001Y-63274001D01*
X61846001Y-63254001D01*
X61826001Y-63254001D01*
X61826001Y-62946001D01*
X61846001Y-62946001D01*
X61846001Y-62926001D01*
X62154001Y-62926001D01*
X62154001Y-62946001D01*
G04 #@! TA.AperFunction,Conductor*
D16*
G36*
X62154001Y-62946001D02*
G01*
X62174001Y-62946001D01*
X62174001Y-63254001D01*
X62154001Y-63254001D01*
X62154001Y-63274001D01*
X61846001Y-63274001D01*
X61846001Y-63254001D01*
X61826001Y-63254001D01*
X61826001Y-62946001D01*
X61846001Y-62946001D01*
X61846001Y-62926001D01*
X62154001Y-62926001D01*
X62154001Y-62946001D01*
G37*
G04 #@! TD.AperFunction*
D15*
X59654001Y-62946001D02*
X59674001Y-62946001D01*
X59674001Y-63254001D01*
X59654001Y-63254001D01*
X59654001Y-63274001D01*
X59346001Y-63274001D01*
X59346001Y-63254001D01*
X59326001Y-63254001D01*
X59326001Y-62946001D01*
X59346001Y-62946001D01*
X59346001Y-62926001D01*
X59654001Y-62926001D01*
X59654001Y-62946001D01*
G04 #@! TA.AperFunction,Conductor*
D16*
G36*
X59654001Y-62946001D02*
G01*
X59674001Y-62946001D01*
X59674001Y-63254001D01*
X59654001Y-63254001D01*
X59654001Y-63274001D01*
X59346001Y-63274001D01*
X59346001Y-63254001D01*
X59326001Y-63254001D01*
X59326001Y-62946001D01*
X59346001Y-62946001D01*
X59346001Y-62926001D01*
X59654001Y-62926001D01*
X59654001Y-62946001D01*
G37*
G04 #@! TD.AperFunction*
D15*
X57154001Y-62946001D02*
X57174001Y-62946001D01*
X57174001Y-63254001D01*
X57154001Y-63254001D01*
X57154001Y-63274001D01*
X56846001Y-63274001D01*
X56846001Y-63254001D01*
X56826001Y-63254001D01*
X56826001Y-62946001D01*
X56846001Y-62946001D01*
X56846001Y-62926001D01*
X57154001Y-62926001D01*
X57154001Y-62946001D01*
G04 #@! TA.AperFunction,Conductor*
D16*
G36*
X57154001Y-62946001D02*
G01*
X57174001Y-62946001D01*
X57174001Y-63254001D01*
X57154001Y-63254001D01*
X57154001Y-63274001D01*
X56846001Y-63274001D01*
X56846001Y-63254001D01*
X56826001Y-63254001D01*
X56826001Y-62946001D01*
X56846001Y-62946001D01*
X56846001Y-62926001D01*
X57154001Y-62926001D01*
X57154001Y-62946001D01*
G37*
G04 #@! TD.AperFunction*
D15*
X54654001Y-62946001D02*
X54674001Y-62946001D01*
X54674001Y-63254001D01*
X54654001Y-63254001D01*
X54654001Y-63274001D01*
X54346001Y-63274001D01*
X54346001Y-63254001D01*
X54326001Y-63254001D01*
X54326001Y-62946001D01*
X54346001Y-62946001D01*
X54346001Y-62926001D01*
X54654001Y-62926001D01*
X54654001Y-62946001D01*
G04 #@! TA.AperFunction,Conductor*
D16*
G36*
X54654001Y-62946001D02*
G01*
X54674001Y-62946001D01*
X54674001Y-63254001D01*
X54654001Y-63254001D01*
X54654001Y-63274001D01*
X54346001Y-63274001D01*
X54346001Y-63254001D01*
X54326001Y-63254001D01*
X54326001Y-62946001D01*
X54346001Y-62946001D01*
X54346001Y-62926001D01*
X54654001Y-62926001D01*
X54654001Y-62946001D01*
G37*
G04 #@! TD.AperFunction*
D15*
X52154001Y-62946001D02*
X52174001Y-62946001D01*
X52174001Y-63254001D01*
X52154001Y-63254001D01*
X52154001Y-63274001D01*
X51846001Y-63274001D01*
X51846001Y-63254001D01*
X51826001Y-63254001D01*
X51826001Y-62946001D01*
X51846001Y-62946001D01*
X51846001Y-62926001D01*
X52154001Y-62926001D01*
X52154001Y-62946001D01*
G04 #@! TA.AperFunction,Conductor*
D16*
G36*
X52154001Y-62946001D02*
G01*
X52174001Y-62946001D01*
X52174001Y-63254001D01*
X52154001Y-63254001D01*
X52154001Y-63274001D01*
X51846001Y-63274001D01*
X51846001Y-63254001D01*
X51826001Y-63254001D01*
X51826001Y-62946001D01*
X51846001Y-62946001D01*
X51846001Y-62926001D01*
X52154001Y-62926001D01*
X52154001Y-62946001D01*
G37*
G04 #@! TD.AperFunction*
D15*
X52351818Y-50405000D02*
X51745522Y-50729072D01*
X51405205Y-51187416D01*
X53750001Y-53532212D01*
X56094797Y-51187416D01*
X55754480Y-50729072D01*
X55132334Y-50399100D01*
X60371045Y-50399100D01*
X60351818Y-50405000D01*
X59745522Y-50729072D01*
X59405205Y-51187416D01*
X61750001Y-53532212D01*
X64094797Y-51187416D01*
X63754480Y-50729072D01*
X63132334Y-50399100D01*
X63989201Y-50399100D01*
X64115003Y-50405844D01*
X64226406Y-50423199D01*
X64230593Y-50424095D01*
X64339746Y-50453658D01*
X64447799Y-50495120D01*
X64547779Y-50545733D01*
X64551592Y-50547950D01*
X64646247Y-50609665D01*
X64735962Y-50682260D01*
X64817627Y-50763999D01*
X64890385Y-50853915D01*
X64952086Y-50948471D01*
X64954523Y-50952662D01*
X65003865Y-51049516D01*
X65005848Y-51054006D01*
X65046242Y-51159885D01*
X65075905Y-51269411D01*
X65076793Y-51273561D01*
X65094102Y-51384775D01*
X65100701Y-51504429D01*
X65100723Y-52370460D01*
X65095002Y-52351818D01*
X64770930Y-51745522D01*
X64312586Y-51405205D01*
X61967790Y-53750001D01*
X64312586Y-56094797D01*
X64770930Y-55754480D01*
X65100793Y-55132540D01*
X65100861Y-57820397D01*
X65092423Y-57804611D01*
X65048686Y-57751316D01*
X64995391Y-57707579D01*
X64934588Y-57675079D01*
X64868613Y-57655066D01*
X64800001Y-57648308D01*
X64297674Y-57648308D01*
X64233839Y-57569845D01*
X64141584Y-57493472D01*
X64036202Y-57436566D01*
X63921742Y-57401311D01*
X63806001Y-57392001D01*
X63654001Y-57544001D01*
X63654001Y-58246001D01*
X63674001Y-58246001D01*
X63674001Y-58554001D01*
X63654001Y-58554001D01*
X63654001Y-58574001D01*
X63346001Y-58574001D01*
X63346001Y-58554001D01*
X63326001Y-58554001D01*
X63326001Y-58246001D01*
X63346001Y-58246001D01*
X63346001Y-57544001D01*
X63194001Y-57392001D01*
X63078260Y-57401311D01*
X62963800Y-57436566D01*
X62858418Y-57493472D01*
X62766163Y-57569845D01*
X62690580Y-57662748D01*
X62634573Y-57768611D01*
X62612565Y-57842293D01*
X62592423Y-57804611D01*
X62548686Y-57751316D01*
X62495391Y-57707579D01*
X62434588Y-57675079D01*
X62368613Y-57655066D01*
X62300001Y-57648308D01*
X61797674Y-57648308D01*
X61733839Y-57569845D01*
X61641584Y-57493472D01*
X61536202Y-57436566D01*
X61421742Y-57401311D01*
X61306001Y-57392001D01*
X61154001Y-57544001D01*
X61154001Y-58246001D01*
X61174001Y-58246001D01*
X61174001Y-58554001D01*
X61154001Y-58554001D01*
X61154001Y-58574001D01*
X60846001Y-58574001D01*
X60846001Y-58554001D01*
X60826001Y-58554001D01*
X60826001Y-58246001D01*
X60846001Y-58246001D01*
X60846001Y-57544001D01*
X60694001Y-57392001D01*
X60578260Y-57401311D01*
X60463800Y-57436566D01*
X60358418Y-57493472D01*
X60266163Y-57569845D01*
X60190580Y-57662748D01*
X60134573Y-57768611D01*
X60112565Y-57842293D01*
X60092423Y-57804611D01*
X60048686Y-57751316D01*
X59995391Y-57707579D01*
X59934588Y-57675079D01*
X59868613Y-57655066D01*
X59800001Y-57648308D01*
X59297674Y-57648308D01*
X59233839Y-57569845D01*
X59141584Y-57493472D01*
X59036202Y-57436566D01*
X58921742Y-57401311D01*
X58806001Y-57392001D01*
X58654001Y-57544001D01*
X58654001Y-58246001D01*
X58674001Y-58246001D01*
X58674001Y-58554001D01*
X58654001Y-58554001D01*
X58654001Y-58574001D01*
X58346001Y-58574001D01*
X58346001Y-58554001D01*
X58326001Y-58554001D01*
X58326001Y-58246001D01*
X58346001Y-58246001D01*
X58346001Y-57544001D01*
X58194001Y-57392001D01*
X58078260Y-57401311D01*
X57963800Y-57436566D01*
X57858418Y-57493472D01*
X57766163Y-57569845D01*
X57690580Y-57662748D01*
X57634573Y-57768611D01*
X57612565Y-57842293D01*
X57592423Y-57804611D01*
X57548686Y-57751316D01*
X57495391Y-57707579D01*
X57434588Y-57675079D01*
X57368613Y-57655066D01*
X57300001Y-57648308D01*
X56797674Y-57648308D01*
X56733839Y-57569845D01*
X56641584Y-57493472D01*
X56536202Y-57436566D01*
X56421742Y-57401311D01*
X56306001Y-57392001D01*
X56154001Y-57544001D01*
X56154001Y-58246001D01*
X56174001Y-58246001D01*
X56174001Y-58554001D01*
X56154001Y-58554001D01*
X56154001Y-58574001D01*
X55846001Y-58574001D01*
X55846001Y-58554001D01*
X55826001Y-58554001D01*
X55826001Y-58246001D01*
X55846001Y-58246001D01*
X55846001Y-57544001D01*
X55694001Y-57392001D01*
X55578260Y-57401311D01*
X55463800Y-57436566D01*
X55358418Y-57493472D01*
X55266163Y-57569845D01*
X55190580Y-57662748D01*
X55134573Y-57768611D01*
X55112565Y-57842293D01*
X55092423Y-57804611D01*
X55048686Y-57751316D01*
X54995391Y-57707579D01*
X54934588Y-57675079D01*
X54868613Y-57655066D01*
X54800001Y-57648308D01*
X54297674Y-57648308D01*
X54233839Y-57569845D01*
X54141584Y-57493472D01*
X54036202Y-57436566D01*
X53921742Y-57401311D01*
X53806001Y-57392001D01*
X53654001Y-57544001D01*
X53654001Y-58246001D01*
X53674001Y-58246001D01*
X53674001Y-58554001D01*
X53654001Y-58554001D01*
X53654001Y-58574001D01*
X53346001Y-58574001D01*
X53346001Y-58554001D01*
X53326001Y-58554001D01*
X53326001Y-58246001D01*
X53346001Y-58246001D01*
X53346001Y-57544001D01*
X53194001Y-57392001D01*
X53078260Y-57401311D01*
X52963800Y-57436566D01*
X52858418Y-57493472D01*
X52766163Y-57569845D01*
X52690580Y-57662748D01*
X52634573Y-57768611D01*
X52612565Y-57842293D01*
X52592423Y-57804611D01*
X52548686Y-57751316D01*
X52495391Y-57707579D01*
X52434588Y-57675079D01*
X52368613Y-57655066D01*
X52300001Y-57648308D01*
X51797674Y-57648308D01*
X51733839Y-57569845D01*
X51641584Y-57493472D01*
X51536202Y-57436566D01*
X51421742Y-57401311D01*
X51306001Y-57392001D01*
X51154001Y-57544001D01*
X51154001Y-58246001D01*
X51174001Y-58246001D01*
X51174001Y-58554001D01*
X51154001Y-58554001D01*
X51154001Y-58574001D01*
X50846001Y-58574001D01*
X50846001Y-58554001D01*
X50826001Y-58554001D01*
X50826001Y-58246001D01*
X50846001Y-58246001D01*
X50846001Y-57544001D01*
X50694001Y-57392001D01*
X50578260Y-57401311D01*
X50463800Y-57436566D01*
X50399000Y-57471558D01*
X50399000Y-56312586D01*
X51405205Y-56312586D01*
X51745522Y-56770930D01*
X52373392Y-57103938D01*
X53054164Y-57308056D01*
X53761677Y-57375441D01*
X54468741Y-57303501D01*
X55148184Y-57095002D01*
X55754480Y-56770930D01*
X56094797Y-56312586D01*
X59405205Y-56312586D01*
X59745522Y-56770930D01*
X60373392Y-57103938D01*
X61054164Y-57308056D01*
X61761677Y-57375441D01*
X62468741Y-57303501D01*
X63148184Y-57095002D01*
X63754480Y-56770930D01*
X64094797Y-56312586D01*
X61750001Y-53967790D01*
X59405205Y-56312586D01*
X56094797Y-56312586D01*
X53750001Y-53967790D01*
X51405205Y-56312586D01*
X50399000Y-56312586D01*
X50399000Y-55128632D01*
X50405000Y-55148184D01*
X50729072Y-55754480D01*
X51187416Y-56094797D01*
X53532212Y-53750001D01*
X53967790Y-53750001D01*
X56312586Y-56094797D01*
X56770930Y-55754480D01*
X57103938Y-55126610D01*
X57308056Y-54445838D01*
X57373216Y-53761677D01*
X58124561Y-53761677D01*
X58196501Y-54468741D01*
X58405000Y-55148184D01*
X58729072Y-55754480D01*
X59187416Y-56094797D01*
X61532212Y-53750001D01*
X59187416Y-51405205D01*
X58729072Y-51745522D01*
X58396064Y-52373392D01*
X58191946Y-53054164D01*
X58124561Y-53761677D01*
X57373216Y-53761677D01*
X57375441Y-53738325D01*
X57303501Y-53031261D01*
X57095002Y-52351818D01*
X56770930Y-51745522D01*
X56312586Y-51405205D01*
X53967790Y-53750001D01*
X53532212Y-53750001D01*
X51187416Y-51405205D01*
X50729072Y-51745522D01*
X50399000Y-52367856D01*
X50399000Y-51516560D01*
X50405439Y-51387538D01*
X50405908Y-51383147D01*
X50423876Y-51271417D01*
X50453787Y-51159749D01*
X50493858Y-51054534D01*
X50495621Y-51050580D01*
X50547117Y-50950094D01*
X50609871Y-50853499D01*
X50682260Y-50764038D01*
X50763999Y-50682373D01*
X50853915Y-50609615D01*
X50948471Y-50547914D01*
X50952662Y-50545477D01*
X51049516Y-50496135D01*
X51054006Y-50494152D01*
X51159885Y-50453758D01*
X51269411Y-50424095D01*
X51273561Y-50423207D01*
X51384558Y-50405931D01*
X51510893Y-50399100D01*
X52371045Y-50399100D01*
X52351818Y-50405000D01*
G04 #@! TA.AperFunction,Conductor*
D16*
G36*
X52351818Y-50405000D02*
G01*
X51745522Y-50729072D01*
X51405205Y-51187416D01*
X53750001Y-53532212D01*
X56094797Y-51187416D01*
X55754480Y-50729072D01*
X55132334Y-50399100D01*
X60371045Y-50399100D01*
X60351818Y-50405000D01*
X59745522Y-50729072D01*
X59405205Y-51187416D01*
X61750001Y-53532212D01*
X64094797Y-51187416D01*
X63754480Y-50729072D01*
X63132334Y-50399100D01*
X63989201Y-50399100D01*
X64115003Y-50405844D01*
X64226406Y-50423199D01*
X64230593Y-50424095D01*
X64339746Y-50453658D01*
X64447799Y-50495120D01*
X64547779Y-50545733D01*
X64551592Y-50547950D01*
X64646247Y-50609665D01*
X64735962Y-50682260D01*
X64817627Y-50763999D01*
X64890385Y-50853915D01*
X64952086Y-50948471D01*
X64954523Y-50952662D01*
X65003865Y-51049516D01*
X65005848Y-51054006D01*
X65046242Y-51159885D01*
X65075905Y-51269411D01*
X65076793Y-51273561D01*
X65094102Y-51384775D01*
X65100701Y-51504429D01*
X65100723Y-52370460D01*
X65095002Y-52351818D01*
X64770930Y-51745522D01*
X64312586Y-51405205D01*
X61967790Y-53750001D01*
X64312586Y-56094797D01*
X64770930Y-55754480D01*
X65100793Y-55132540D01*
X65100861Y-57820397D01*
X65092423Y-57804611D01*
X65048686Y-57751316D01*
X64995391Y-57707579D01*
X64934588Y-57675079D01*
X64868613Y-57655066D01*
X64800001Y-57648308D01*
X64297674Y-57648308D01*
X64233839Y-57569845D01*
X64141584Y-57493472D01*
X64036202Y-57436566D01*
X63921742Y-57401311D01*
X63806001Y-57392001D01*
X63654001Y-57544001D01*
X63654001Y-58246001D01*
X63674001Y-58246001D01*
X63674001Y-58554001D01*
X63654001Y-58554001D01*
X63654001Y-58574001D01*
X63346001Y-58574001D01*
X63346001Y-58554001D01*
X63326001Y-58554001D01*
X63326001Y-58246001D01*
X63346001Y-58246001D01*
X63346001Y-57544001D01*
X63194001Y-57392001D01*
X63078260Y-57401311D01*
X62963800Y-57436566D01*
X62858418Y-57493472D01*
X62766163Y-57569845D01*
X62690580Y-57662748D01*
X62634573Y-57768611D01*
X62612565Y-57842293D01*
X62592423Y-57804611D01*
X62548686Y-57751316D01*
X62495391Y-57707579D01*
X62434588Y-57675079D01*
X62368613Y-57655066D01*
X62300001Y-57648308D01*
X61797674Y-57648308D01*
X61733839Y-57569845D01*
X61641584Y-57493472D01*
X61536202Y-57436566D01*
X61421742Y-57401311D01*
X61306001Y-57392001D01*
X61154001Y-57544001D01*
X61154001Y-58246001D01*
X61174001Y-58246001D01*
X61174001Y-58554001D01*
X61154001Y-58554001D01*
X61154001Y-58574001D01*
X60846001Y-58574001D01*
X60846001Y-58554001D01*
X60826001Y-58554001D01*
X60826001Y-58246001D01*
X60846001Y-58246001D01*
X60846001Y-57544001D01*
X60694001Y-57392001D01*
X60578260Y-57401311D01*
X60463800Y-57436566D01*
X60358418Y-57493472D01*
X60266163Y-57569845D01*
X60190580Y-57662748D01*
X60134573Y-57768611D01*
X60112565Y-57842293D01*
X60092423Y-57804611D01*
X60048686Y-57751316D01*
X59995391Y-57707579D01*
X59934588Y-57675079D01*
X59868613Y-57655066D01*
X59800001Y-57648308D01*
X59297674Y-57648308D01*
X59233839Y-57569845D01*
X59141584Y-57493472D01*
X59036202Y-57436566D01*
X58921742Y-57401311D01*
X58806001Y-57392001D01*
X58654001Y-57544001D01*
X58654001Y-58246001D01*
X58674001Y-58246001D01*
X58674001Y-58554001D01*
X58654001Y-58554001D01*
X58654001Y-58574001D01*
X58346001Y-58574001D01*
X58346001Y-58554001D01*
X58326001Y-58554001D01*
X58326001Y-58246001D01*
X58346001Y-58246001D01*
X58346001Y-57544001D01*
X58194001Y-57392001D01*
X58078260Y-57401311D01*
X57963800Y-57436566D01*
X57858418Y-57493472D01*
X57766163Y-57569845D01*
X57690580Y-57662748D01*
X57634573Y-57768611D01*
X57612565Y-57842293D01*
X57592423Y-57804611D01*
X57548686Y-57751316D01*
X57495391Y-57707579D01*
X57434588Y-57675079D01*
X57368613Y-57655066D01*
X57300001Y-57648308D01*
X56797674Y-57648308D01*
X56733839Y-57569845D01*
X56641584Y-57493472D01*
X56536202Y-57436566D01*
X56421742Y-57401311D01*
X56306001Y-57392001D01*
X56154001Y-57544001D01*
X56154001Y-58246001D01*
X56174001Y-58246001D01*
X56174001Y-58554001D01*
X56154001Y-58554001D01*
X56154001Y-58574001D01*
X55846001Y-58574001D01*
X55846001Y-58554001D01*
X55826001Y-58554001D01*
X55826001Y-58246001D01*
X55846001Y-58246001D01*
X55846001Y-57544001D01*
X55694001Y-57392001D01*
X55578260Y-57401311D01*
X55463800Y-57436566D01*
X55358418Y-57493472D01*
X55266163Y-57569845D01*
X55190580Y-57662748D01*
X55134573Y-57768611D01*
X55112565Y-57842293D01*
X55092423Y-57804611D01*
X55048686Y-57751316D01*
X54995391Y-57707579D01*
X54934588Y-57675079D01*
X54868613Y-57655066D01*
X54800001Y-57648308D01*
X54297674Y-57648308D01*
X54233839Y-57569845D01*
X54141584Y-57493472D01*
X54036202Y-57436566D01*
X53921742Y-57401311D01*
X53806001Y-57392001D01*
X53654001Y-57544001D01*
X53654001Y-58246001D01*
X53674001Y-58246001D01*
X53674001Y-58554001D01*
X53654001Y-58554001D01*
X53654001Y-58574001D01*
X53346001Y-58574001D01*
X53346001Y-58554001D01*
X53326001Y-58554001D01*
X53326001Y-58246001D01*
X53346001Y-58246001D01*
X53346001Y-57544001D01*
X53194001Y-57392001D01*
X53078260Y-57401311D01*
X52963800Y-57436566D01*
X52858418Y-57493472D01*
X52766163Y-57569845D01*
X52690580Y-57662748D01*
X52634573Y-57768611D01*
X52612565Y-57842293D01*
X52592423Y-57804611D01*
X52548686Y-57751316D01*
X52495391Y-57707579D01*
X52434588Y-57675079D01*
X52368613Y-57655066D01*
X52300001Y-57648308D01*
X51797674Y-57648308D01*
X51733839Y-57569845D01*
X51641584Y-57493472D01*
X51536202Y-57436566D01*
X51421742Y-57401311D01*
X51306001Y-57392001D01*
X51154001Y-57544001D01*
X51154001Y-58246001D01*
X51174001Y-58246001D01*
X51174001Y-58554001D01*
X51154001Y-58554001D01*
X51154001Y-58574001D01*
X50846001Y-58574001D01*
X50846001Y-58554001D01*
X50826001Y-58554001D01*
X50826001Y-58246001D01*
X50846001Y-58246001D01*
X50846001Y-57544001D01*
X50694001Y-57392001D01*
X50578260Y-57401311D01*
X50463800Y-57436566D01*
X50399000Y-57471558D01*
X50399000Y-56312586D01*
X51405205Y-56312586D01*
X51745522Y-56770930D01*
X52373392Y-57103938D01*
X53054164Y-57308056D01*
X53761677Y-57375441D01*
X54468741Y-57303501D01*
X55148184Y-57095002D01*
X55754480Y-56770930D01*
X56094797Y-56312586D01*
X59405205Y-56312586D01*
X59745522Y-56770930D01*
X60373392Y-57103938D01*
X61054164Y-57308056D01*
X61761677Y-57375441D01*
X62468741Y-57303501D01*
X63148184Y-57095002D01*
X63754480Y-56770930D01*
X64094797Y-56312586D01*
X61750001Y-53967790D01*
X59405205Y-56312586D01*
X56094797Y-56312586D01*
X53750001Y-53967790D01*
X51405205Y-56312586D01*
X50399000Y-56312586D01*
X50399000Y-55128632D01*
X50405000Y-55148184D01*
X50729072Y-55754480D01*
X51187416Y-56094797D01*
X53532212Y-53750001D01*
X53967790Y-53750001D01*
X56312586Y-56094797D01*
X56770930Y-55754480D01*
X57103938Y-55126610D01*
X57308056Y-54445838D01*
X57373216Y-53761677D01*
X58124561Y-53761677D01*
X58196501Y-54468741D01*
X58405000Y-55148184D01*
X58729072Y-55754480D01*
X59187416Y-56094797D01*
X61532212Y-53750001D01*
X59187416Y-51405205D01*
X58729072Y-51745522D01*
X58396064Y-52373392D01*
X58191946Y-53054164D01*
X58124561Y-53761677D01*
X57373216Y-53761677D01*
X57375441Y-53738325D01*
X57303501Y-53031261D01*
X57095002Y-52351818D01*
X56770930Y-51745522D01*
X56312586Y-51405205D01*
X53967790Y-53750001D01*
X53532212Y-53750001D01*
X51187416Y-51405205D01*
X50729072Y-51745522D01*
X50399000Y-52367856D01*
X50399000Y-51516560D01*
X50405439Y-51387538D01*
X50405908Y-51383147D01*
X50423876Y-51271417D01*
X50453787Y-51159749D01*
X50493858Y-51054534D01*
X50495621Y-51050580D01*
X50547117Y-50950094D01*
X50609871Y-50853499D01*
X50682260Y-50764038D01*
X50763999Y-50682373D01*
X50853915Y-50609615D01*
X50948471Y-50547914D01*
X50952662Y-50545477D01*
X51049516Y-50496135D01*
X51054006Y-50494152D01*
X51159885Y-50453758D01*
X51269411Y-50424095D01*
X51273561Y-50423207D01*
X51384558Y-50405931D01*
X51510893Y-50399100D01*
X52371045Y-50399100D01*
X52351818Y-50405000D01*
G37*
G04 #@! TD.AperFunction*
G04 #@! TD*
D15*
G04 #@! TO.N,Board_2-GND*
X70654010Y-80946001D02*
X70674010Y-80946001D01*
X70674010Y-81254001D01*
X70654010Y-81254001D01*
X70654010Y-81956001D01*
X70806010Y-82108001D01*
X70921751Y-82098691D01*
X71036211Y-82063436D01*
X71141593Y-82006530D01*
X71233848Y-81930157D01*
X71309431Y-81837254D01*
X71365438Y-81731391D01*
X71387446Y-81657709D01*
X71407588Y-81695391D01*
X71451325Y-81748686D01*
X71504620Y-81792423D01*
X71565423Y-81824923D01*
X71631398Y-81844936D01*
X71700010Y-81851694D01*
X72202337Y-81851694D01*
X72266172Y-81930157D01*
X72358427Y-82006530D01*
X72463809Y-82063436D01*
X72578269Y-82098691D01*
X72694010Y-82108001D01*
X72846010Y-81956001D01*
X72846010Y-81254001D01*
X72826010Y-81254001D01*
X72826010Y-80946001D01*
X72846010Y-80946001D01*
X72846010Y-80926001D01*
X73154010Y-80926001D01*
X73154010Y-80946001D01*
X73174010Y-80946001D01*
X73174010Y-81254001D01*
X73154010Y-81254001D01*
X73154010Y-81956001D01*
X73306010Y-82108001D01*
X73421751Y-82098691D01*
X73536211Y-82063436D01*
X73641593Y-82006530D01*
X73733848Y-81930157D01*
X73809431Y-81837254D01*
X73865438Y-81731391D01*
X73887446Y-81657709D01*
X73907588Y-81695391D01*
X73951325Y-81748686D01*
X74004620Y-81792423D01*
X74065423Y-81824923D01*
X74131398Y-81844936D01*
X74200010Y-81851694D01*
X74702337Y-81851694D01*
X74766172Y-81930157D01*
X74858427Y-82006530D01*
X74963809Y-82063436D01*
X75078269Y-82098691D01*
X75194010Y-82108001D01*
X75346010Y-81956001D01*
X75346010Y-81254001D01*
X75326010Y-81254001D01*
X75326010Y-80946001D01*
X75346010Y-80946001D01*
X75346010Y-80926001D01*
X75654010Y-80926001D01*
X75654010Y-80946001D01*
X75674010Y-80946001D01*
X75674010Y-81254001D01*
X75654010Y-81254001D01*
X75654010Y-81956001D01*
X75806010Y-82108001D01*
X75921751Y-82098691D01*
X76036211Y-82063436D01*
X76141593Y-82006530D01*
X76233848Y-81930157D01*
X76309431Y-81837254D01*
X76365438Y-81731391D01*
X76387446Y-81657709D01*
X76407588Y-81695391D01*
X76451325Y-81748686D01*
X76504620Y-81792423D01*
X76565423Y-81824923D01*
X76631398Y-81844936D01*
X76700010Y-81851694D01*
X77202337Y-81851694D01*
X77266172Y-81930157D01*
X77358427Y-82006530D01*
X77463809Y-82063436D01*
X77578269Y-82098691D01*
X77694010Y-82108001D01*
X77846010Y-81956001D01*
X77846010Y-81254001D01*
X77826010Y-81254001D01*
X77826010Y-80946001D01*
X77846010Y-80946001D01*
X77846010Y-80926001D01*
X78154010Y-80926001D01*
X78154010Y-80946001D01*
X78174010Y-80946001D01*
X78174010Y-81254001D01*
X78154010Y-81254001D01*
X78154010Y-81956001D01*
X78306010Y-82108001D01*
X78421751Y-82098691D01*
X78536211Y-82063436D01*
X78641593Y-82006530D01*
X78733848Y-81930157D01*
X78809431Y-81837254D01*
X78865438Y-81731391D01*
X78887446Y-81657709D01*
X78907588Y-81695391D01*
X78951325Y-81748686D01*
X79004620Y-81792423D01*
X79065423Y-81824923D01*
X79131398Y-81844936D01*
X79200010Y-81851694D01*
X79702337Y-81851694D01*
X79766172Y-81930157D01*
X79858427Y-82006530D01*
X79963809Y-82063436D01*
X80078269Y-82098691D01*
X80194010Y-82108001D01*
X80346010Y-81956001D01*
X80346010Y-81254001D01*
X80326010Y-81254001D01*
X80326010Y-80946001D01*
X80346010Y-80946001D01*
X80346010Y-80926001D01*
X80654010Y-80926001D01*
X80654010Y-80946001D01*
X80674010Y-80946001D01*
X80674010Y-81254001D01*
X80654010Y-81254001D01*
X80654010Y-81956001D01*
X80806010Y-82108001D01*
X80921751Y-82098691D01*
X81036211Y-82063436D01*
X81141593Y-82006530D01*
X81233848Y-81930157D01*
X81309431Y-81837254D01*
X81365438Y-81731391D01*
X81387446Y-81657709D01*
X81407588Y-81695391D01*
X81451325Y-81748686D01*
X81504620Y-81792423D01*
X81565423Y-81824923D01*
X81631398Y-81844936D01*
X81700010Y-81851694D01*
X82202337Y-81851694D01*
X82266172Y-81930157D01*
X82358427Y-82006530D01*
X82463809Y-82063436D01*
X82578269Y-82098691D01*
X82694010Y-82108001D01*
X82846010Y-81956001D01*
X82846010Y-81254001D01*
X82826010Y-81254001D01*
X82826010Y-80946001D01*
X82846010Y-80946001D01*
X82846010Y-80926001D01*
X83154010Y-80926001D01*
X83154010Y-80946001D01*
X83174010Y-80946001D01*
X83174010Y-81254001D01*
X83154010Y-81254001D01*
X83154010Y-81956001D01*
X83306010Y-82108001D01*
X83421751Y-82098691D01*
X83536211Y-82063436D01*
X83601000Y-82028450D01*
X83601000Y-82650001D01*
X68605620Y-82650001D01*
X68631481Y-82632721D01*
X68715053Y-82549149D01*
X68780716Y-82450878D01*
X68825945Y-82341685D01*
X68849003Y-82225766D01*
X68849003Y-82107576D01*
X68825945Y-81991657D01*
X68780716Y-81882464D01*
X68715053Y-81784193D01*
X68631481Y-81700621D01*
X68600010Y-81679592D01*
X68600010Y-81653750D01*
X68631481Y-81632721D01*
X68715053Y-81549149D01*
X68780716Y-81450878D01*
X68825945Y-81341685D01*
X68848317Y-81229215D01*
X68848317Y-81500001D01*
X68855075Y-81568613D01*
X68875088Y-81634588D01*
X68907588Y-81695391D01*
X68951325Y-81748686D01*
X69004620Y-81792423D01*
X69065423Y-81824923D01*
X69131398Y-81844936D01*
X69200010Y-81851694D01*
X69702337Y-81851694D01*
X69766172Y-81930157D01*
X69858427Y-82006530D01*
X69963809Y-82063436D01*
X70078269Y-82098691D01*
X70194010Y-82108001D01*
X70346010Y-81956001D01*
X70346010Y-81254001D01*
X70326010Y-81254001D01*
X70326010Y-80946001D01*
X70346010Y-80946001D01*
X70346010Y-80926001D01*
X70654010Y-80926001D01*
X70654010Y-80946001D01*
G04 #@! TA.AperFunction,Conductor*
D16*
G36*
X70654010Y-80946001D02*
G01*
X70674010Y-80946001D01*
X70674010Y-81254001D01*
X70654010Y-81254001D01*
X70654010Y-81956001D01*
X70806010Y-82108001D01*
X70921751Y-82098691D01*
X71036211Y-82063436D01*
X71141593Y-82006530D01*
X71233848Y-81930157D01*
X71309431Y-81837254D01*
X71365438Y-81731391D01*
X71387446Y-81657709D01*
X71407588Y-81695391D01*
X71451325Y-81748686D01*
X71504620Y-81792423D01*
X71565423Y-81824923D01*
X71631398Y-81844936D01*
X71700010Y-81851694D01*
X72202337Y-81851694D01*
X72266172Y-81930157D01*
X72358427Y-82006530D01*
X72463809Y-82063436D01*
X72578269Y-82098691D01*
X72694010Y-82108001D01*
X72846010Y-81956001D01*
X72846010Y-81254001D01*
X72826010Y-81254001D01*
X72826010Y-80946001D01*
X72846010Y-80946001D01*
X72846010Y-80926001D01*
X73154010Y-80926001D01*
X73154010Y-80946001D01*
X73174010Y-80946001D01*
X73174010Y-81254001D01*
X73154010Y-81254001D01*
X73154010Y-81956001D01*
X73306010Y-82108001D01*
X73421751Y-82098691D01*
X73536211Y-82063436D01*
X73641593Y-82006530D01*
X73733848Y-81930157D01*
X73809431Y-81837254D01*
X73865438Y-81731391D01*
X73887446Y-81657709D01*
X73907588Y-81695391D01*
X73951325Y-81748686D01*
X74004620Y-81792423D01*
X74065423Y-81824923D01*
X74131398Y-81844936D01*
X74200010Y-81851694D01*
X74702337Y-81851694D01*
X74766172Y-81930157D01*
X74858427Y-82006530D01*
X74963809Y-82063436D01*
X75078269Y-82098691D01*
X75194010Y-82108001D01*
X75346010Y-81956001D01*
X75346010Y-81254001D01*
X75326010Y-81254001D01*
X75326010Y-80946001D01*
X75346010Y-80946001D01*
X75346010Y-80926001D01*
X75654010Y-80926001D01*
X75654010Y-80946001D01*
X75674010Y-80946001D01*
X75674010Y-81254001D01*
X75654010Y-81254001D01*
X75654010Y-81956001D01*
X75806010Y-82108001D01*
X75921751Y-82098691D01*
X76036211Y-82063436D01*
X76141593Y-82006530D01*
X76233848Y-81930157D01*
X76309431Y-81837254D01*
X76365438Y-81731391D01*
X76387446Y-81657709D01*
X76407588Y-81695391D01*
X76451325Y-81748686D01*
X76504620Y-81792423D01*
X76565423Y-81824923D01*
X76631398Y-81844936D01*
X76700010Y-81851694D01*
X77202337Y-81851694D01*
X77266172Y-81930157D01*
X77358427Y-82006530D01*
X77463809Y-82063436D01*
X77578269Y-82098691D01*
X77694010Y-82108001D01*
X77846010Y-81956001D01*
X77846010Y-81254001D01*
X77826010Y-81254001D01*
X77826010Y-80946001D01*
X77846010Y-80946001D01*
X77846010Y-80926001D01*
X78154010Y-80926001D01*
X78154010Y-80946001D01*
X78174010Y-80946001D01*
X78174010Y-81254001D01*
X78154010Y-81254001D01*
X78154010Y-81956001D01*
X78306010Y-82108001D01*
X78421751Y-82098691D01*
X78536211Y-82063436D01*
X78641593Y-82006530D01*
X78733848Y-81930157D01*
X78809431Y-81837254D01*
X78865438Y-81731391D01*
X78887446Y-81657709D01*
X78907588Y-81695391D01*
X78951325Y-81748686D01*
X79004620Y-81792423D01*
X79065423Y-81824923D01*
X79131398Y-81844936D01*
X79200010Y-81851694D01*
X79702337Y-81851694D01*
X79766172Y-81930157D01*
X79858427Y-82006530D01*
X79963809Y-82063436D01*
X80078269Y-82098691D01*
X80194010Y-82108001D01*
X80346010Y-81956001D01*
X80346010Y-81254001D01*
X80326010Y-81254001D01*
X80326010Y-80946001D01*
X80346010Y-80946001D01*
X80346010Y-80926001D01*
X80654010Y-80926001D01*
X80654010Y-80946001D01*
X80674010Y-80946001D01*
X80674010Y-81254001D01*
X80654010Y-81254001D01*
X80654010Y-81956001D01*
X80806010Y-82108001D01*
X80921751Y-82098691D01*
X81036211Y-82063436D01*
X81141593Y-82006530D01*
X81233848Y-81930157D01*
X81309431Y-81837254D01*
X81365438Y-81731391D01*
X81387446Y-81657709D01*
X81407588Y-81695391D01*
X81451325Y-81748686D01*
X81504620Y-81792423D01*
X81565423Y-81824923D01*
X81631398Y-81844936D01*
X81700010Y-81851694D01*
X82202337Y-81851694D01*
X82266172Y-81930157D01*
X82358427Y-82006530D01*
X82463809Y-82063436D01*
X82578269Y-82098691D01*
X82694010Y-82108001D01*
X82846010Y-81956001D01*
X82846010Y-81254001D01*
X82826010Y-81254001D01*
X82826010Y-80946001D01*
X82846010Y-80946001D01*
X82846010Y-80926001D01*
X83154010Y-80926001D01*
X83154010Y-80946001D01*
X83174010Y-80946001D01*
X83174010Y-81254001D01*
X83154010Y-81254001D01*
X83154010Y-81956001D01*
X83306010Y-82108001D01*
X83421751Y-82098691D01*
X83536211Y-82063436D01*
X83601000Y-82028450D01*
X83601000Y-82650001D01*
X68605620Y-82650001D01*
X68631481Y-82632721D01*
X68715053Y-82549149D01*
X68780716Y-82450878D01*
X68825945Y-82341685D01*
X68849003Y-82225766D01*
X68849003Y-82107576D01*
X68825945Y-81991657D01*
X68780716Y-81882464D01*
X68715053Y-81784193D01*
X68631481Y-81700621D01*
X68600010Y-81679592D01*
X68600010Y-81653750D01*
X68631481Y-81632721D01*
X68715053Y-81549149D01*
X68780716Y-81450878D01*
X68825945Y-81341685D01*
X68848317Y-81229215D01*
X68848317Y-81500001D01*
X68855075Y-81568613D01*
X68875088Y-81634588D01*
X68907588Y-81695391D01*
X68951325Y-81748686D01*
X69004620Y-81792423D01*
X69065423Y-81824923D01*
X69131398Y-81844936D01*
X69200010Y-81851694D01*
X69702337Y-81851694D01*
X69766172Y-81930157D01*
X69858427Y-82006530D01*
X69963809Y-82063436D01*
X70078269Y-82098691D01*
X70194010Y-82108001D01*
X70346010Y-81956001D01*
X70346010Y-81254001D01*
X70326010Y-81254001D01*
X70326010Y-80946001D01*
X70346010Y-80946001D01*
X70346010Y-80926001D01*
X70654010Y-80926001D01*
X70654010Y-80946001D01*
G37*
G04 #@! TD.AperFunction*
D15*
X82154010Y-76246001D02*
X82174010Y-76246001D01*
X82174010Y-76554001D01*
X82154010Y-76554001D01*
X82154010Y-76574001D01*
X81846010Y-76574001D01*
X81846010Y-76554001D01*
X81826010Y-76554001D01*
X81826010Y-76246001D01*
X81846010Y-76246001D01*
X81846010Y-76226001D01*
X82154010Y-76226001D01*
X82154010Y-76246001D01*
G04 #@! TA.AperFunction,Conductor*
D16*
G36*
X82154010Y-76246001D02*
G01*
X82174010Y-76246001D01*
X82174010Y-76554001D01*
X82154010Y-76554001D01*
X82154010Y-76574001D01*
X81846010Y-76574001D01*
X81846010Y-76554001D01*
X81826010Y-76554001D01*
X81826010Y-76246001D01*
X81846010Y-76246001D01*
X81846010Y-76226001D01*
X82154010Y-76226001D01*
X82154010Y-76246001D01*
G37*
G04 #@! TD.AperFunction*
D15*
X79654010Y-76246001D02*
X79674010Y-76246001D01*
X79674010Y-76554001D01*
X79654010Y-76554001D01*
X79654010Y-76574001D01*
X79346010Y-76574001D01*
X79346010Y-76554001D01*
X79326010Y-76554001D01*
X79326010Y-76246001D01*
X79346010Y-76246001D01*
X79346010Y-76226001D01*
X79654010Y-76226001D01*
X79654010Y-76246001D01*
G04 #@! TA.AperFunction,Conductor*
D16*
G36*
X79654010Y-76246001D02*
G01*
X79674010Y-76246001D01*
X79674010Y-76554001D01*
X79654010Y-76554001D01*
X79654010Y-76574001D01*
X79346010Y-76574001D01*
X79346010Y-76554001D01*
X79326010Y-76554001D01*
X79326010Y-76246001D01*
X79346010Y-76246001D01*
X79346010Y-76226001D01*
X79654010Y-76226001D01*
X79654010Y-76246001D01*
G37*
G04 #@! TD.AperFunction*
D15*
X77154010Y-76246001D02*
X77174010Y-76246001D01*
X77174010Y-76554001D01*
X77154010Y-76554001D01*
X77154010Y-76574001D01*
X76846010Y-76574001D01*
X76846010Y-76554001D01*
X76826010Y-76554001D01*
X76826010Y-76246001D01*
X76846010Y-76246001D01*
X76846010Y-76226001D01*
X77154010Y-76226001D01*
X77154010Y-76246001D01*
G04 #@! TA.AperFunction,Conductor*
D16*
G36*
X77154010Y-76246001D02*
G01*
X77174010Y-76246001D01*
X77174010Y-76554001D01*
X77154010Y-76554001D01*
X77154010Y-76574001D01*
X76846010Y-76574001D01*
X76846010Y-76554001D01*
X76826010Y-76554001D01*
X76826010Y-76246001D01*
X76846010Y-76246001D01*
X76846010Y-76226001D01*
X77154010Y-76226001D01*
X77154010Y-76246001D01*
G37*
G04 #@! TD.AperFunction*
D15*
X74654010Y-76246001D02*
X74674010Y-76246001D01*
X74674010Y-76554001D01*
X74654010Y-76554001D01*
X74654010Y-76574001D01*
X74346010Y-76574001D01*
X74346010Y-76554001D01*
X74326010Y-76554001D01*
X74326010Y-76246001D01*
X74346010Y-76246001D01*
X74346010Y-76226001D01*
X74654010Y-76226001D01*
X74654010Y-76246001D01*
G04 #@! TA.AperFunction,Conductor*
D16*
G36*
X74654010Y-76246001D02*
G01*
X74674010Y-76246001D01*
X74674010Y-76554001D01*
X74654010Y-76554001D01*
X74654010Y-76574001D01*
X74346010Y-76574001D01*
X74346010Y-76554001D01*
X74326010Y-76554001D01*
X74326010Y-76246001D01*
X74346010Y-76246001D01*
X74346010Y-76226001D01*
X74654010Y-76226001D01*
X74654010Y-76246001D01*
G37*
G04 #@! TD.AperFunction*
D15*
X72154010Y-76246001D02*
X72174010Y-76246001D01*
X72174010Y-76554001D01*
X72154010Y-76554001D01*
X72154010Y-76574001D01*
X71846010Y-76574001D01*
X71846010Y-76554001D01*
X71826010Y-76554001D01*
X71826010Y-76246001D01*
X71846010Y-76246001D01*
X71846010Y-76226001D01*
X72154010Y-76226001D01*
X72154010Y-76246001D01*
G04 #@! TA.AperFunction,Conductor*
D16*
G36*
X72154010Y-76246001D02*
G01*
X72174010Y-76246001D01*
X72174010Y-76554001D01*
X72154010Y-76554001D01*
X72154010Y-76574001D01*
X71846010Y-76574001D01*
X71846010Y-76554001D01*
X71826010Y-76554001D01*
X71826010Y-76246001D01*
X71846010Y-76246001D01*
X71846010Y-76226001D01*
X72154010Y-76226001D01*
X72154010Y-76246001D01*
G37*
G04 #@! TD.AperFunction*
D15*
X69654010Y-76246001D02*
X69674010Y-76246001D01*
X69674010Y-76554001D01*
X69654010Y-76554001D01*
X69654010Y-76574001D01*
X69346010Y-76574001D01*
X69346010Y-76554001D01*
X69326010Y-76554001D01*
X69326010Y-76246001D01*
X69346010Y-76246001D01*
X69346010Y-76226001D01*
X69654010Y-76226001D01*
X69654010Y-76246001D01*
G04 #@! TA.AperFunction,Conductor*
D16*
G36*
X69654010Y-76246001D02*
G01*
X69674010Y-76246001D01*
X69674010Y-76554001D01*
X69654010Y-76554001D01*
X69654010Y-76574001D01*
X69346010Y-76574001D01*
X69346010Y-76554001D01*
X69326010Y-76554001D01*
X69326010Y-76246001D01*
X69346010Y-76246001D01*
X69346010Y-76226001D01*
X69654010Y-76226001D01*
X69654010Y-76246001D01*
G37*
G04 #@! TD.AperFunction*
D15*
X83154010Y-74946001D02*
X83174010Y-74946001D01*
X83174010Y-75254001D01*
X83154010Y-75254001D01*
X83154010Y-75274001D01*
X82846010Y-75274001D01*
X82846010Y-75254001D01*
X82826010Y-75254001D01*
X82826010Y-74946001D01*
X82846010Y-74946001D01*
X82846010Y-74926001D01*
X83154010Y-74926001D01*
X83154010Y-74946001D01*
G04 #@! TA.AperFunction,Conductor*
D16*
G36*
X83154010Y-74946001D02*
G01*
X83174010Y-74946001D01*
X83174010Y-75254001D01*
X83154010Y-75254001D01*
X83154010Y-75274001D01*
X82846010Y-75274001D01*
X82846010Y-75254001D01*
X82826010Y-75254001D01*
X82826010Y-74946001D01*
X82846010Y-74946001D01*
X82846010Y-74926001D01*
X83154010Y-74926001D01*
X83154010Y-74946001D01*
G37*
G04 #@! TD.AperFunction*
D15*
X80654010Y-74946001D02*
X80674010Y-74946001D01*
X80674010Y-75254001D01*
X80654010Y-75254001D01*
X80654010Y-75274001D01*
X80346010Y-75274001D01*
X80346010Y-75254001D01*
X80326010Y-75254001D01*
X80326010Y-74946001D01*
X80346010Y-74946001D01*
X80346010Y-74926001D01*
X80654010Y-74926001D01*
X80654010Y-74946001D01*
G04 #@! TA.AperFunction,Conductor*
D16*
G36*
X80654010Y-74946001D02*
G01*
X80674010Y-74946001D01*
X80674010Y-75254001D01*
X80654010Y-75254001D01*
X80654010Y-75274001D01*
X80346010Y-75274001D01*
X80346010Y-75254001D01*
X80326010Y-75254001D01*
X80326010Y-74946001D01*
X80346010Y-74946001D01*
X80346010Y-74926001D01*
X80654010Y-74926001D01*
X80654010Y-74946001D01*
G37*
G04 #@! TD.AperFunction*
D15*
X78154010Y-74946001D02*
X78174010Y-74946001D01*
X78174010Y-75254001D01*
X78154010Y-75254001D01*
X78154010Y-75274001D01*
X77846010Y-75274001D01*
X77846010Y-75254001D01*
X77826010Y-75254001D01*
X77826010Y-74946001D01*
X77846010Y-74946001D01*
X77846010Y-74926001D01*
X78154010Y-74926001D01*
X78154010Y-74946001D01*
G04 #@! TA.AperFunction,Conductor*
D16*
G36*
X78154010Y-74946001D02*
G01*
X78174010Y-74946001D01*
X78174010Y-75254001D01*
X78154010Y-75254001D01*
X78154010Y-75274001D01*
X77846010Y-75274001D01*
X77846010Y-75254001D01*
X77826010Y-75254001D01*
X77826010Y-74946001D01*
X77846010Y-74946001D01*
X77846010Y-74926001D01*
X78154010Y-74926001D01*
X78154010Y-74946001D01*
G37*
G04 #@! TD.AperFunction*
D15*
X75654010Y-74946001D02*
X75674010Y-74946001D01*
X75674010Y-75254001D01*
X75654010Y-75254001D01*
X75654010Y-75274001D01*
X75346010Y-75274001D01*
X75346010Y-75254001D01*
X75326010Y-75254001D01*
X75326010Y-74946001D01*
X75346010Y-74946001D01*
X75346010Y-74926001D01*
X75654010Y-74926001D01*
X75654010Y-74946001D01*
G04 #@! TA.AperFunction,Conductor*
D16*
G36*
X75654010Y-74946001D02*
G01*
X75674010Y-74946001D01*
X75674010Y-75254001D01*
X75654010Y-75254001D01*
X75654010Y-75274001D01*
X75346010Y-75274001D01*
X75346010Y-75254001D01*
X75326010Y-75254001D01*
X75326010Y-74946001D01*
X75346010Y-74946001D01*
X75346010Y-74926001D01*
X75654010Y-74926001D01*
X75654010Y-74946001D01*
G37*
G04 #@! TD.AperFunction*
D15*
X73154010Y-74946001D02*
X73174010Y-74946001D01*
X73174010Y-75254001D01*
X73154010Y-75254001D01*
X73154010Y-75274001D01*
X72846010Y-75274001D01*
X72846010Y-75254001D01*
X72826010Y-75254001D01*
X72826010Y-74946001D01*
X72846010Y-74946001D01*
X72846010Y-74926001D01*
X73154010Y-74926001D01*
X73154010Y-74946001D01*
G04 #@! TA.AperFunction,Conductor*
D16*
G36*
X73154010Y-74946001D02*
G01*
X73174010Y-74946001D01*
X73174010Y-75254001D01*
X73154010Y-75254001D01*
X73154010Y-75274001D01*
X72846010Y-75274001D01*
X72846010Y-75254001D01*
X72826010Y-75254001D01*
X72826010Y-74946001D01*
X72846010Y-74946001D01*
X72846010Y-74926001D01*
X73154010Y-74926001D01*
X73154010Y-74946001D01*
G37*
G04 #@! TD.AperFunction*
D15*
X70654010Y-74946001D02*
X70674010Y-74946001D01*
X70674010Y-75254001D01*
X70654010Y-75254001D01*
X70654010Y-75274001D01*
X70346010Y-75274001D01*
X70346010Y-75254001D01*
X70326010Y-75254001D01*
X70326010Y-74946001D01*
X70346010Y-74946001D01*
X70346010Y-74926001D01*
X70654010Y-74926001D01*
X70654010Y-74946001D01*
G04 #@! TA.AperFunction,Conductor*
D16*
G36*
X70654010Y-74946001D02*
G01*
X70674010Y-74946001D01*
X70674010Y-75254001D01*
X70654010Y-75254001D01*
X70654010Y-75274001D01*
X70346010Y-75274001D01*
X70346010Y-75254001D01*
X70326010Y-75254001D01*
X70326010Y-74946001D01*
X70346010Y-74946001D01*
X70346010Y-74926001D01*
X70654010Y-74926001D01*
X70654010Y-74946001D01*
G37*
G04 #@! TD.AperFunction*
D15*
X72154010Y-70246001D02*
X72174010Y-70246001D01*
X72174010Y-70554001D01*
X72154010Y-70554001D01*
X72154010Y-70574001D01*
X71846010Y-70574001D01*
X71846010Y-70554001D01*
X71826010Y-70554001D01*
X71826010Y-70246001D01*
X71846010Y-70246001D01*
X71846010Y-70226001D01*
X72154010Y-70226001D01*
X72154010Y-70246001D01*
G04 #@! TA.AperFunction,Conductor*
D16*
G36*
X72154010Y-70246001D02*
G01*
X72174010Y-70246001D01*
X72174010Y-70554001D01*
X72154010Y-70554001D01*
X72154010Y-70574001D01*
X71846010Y-70574001D01*
X71846010Y-70554001D01*
X71826010Y-70554001D01*
X71826010Y-70246001D01*
X71846010Y-70246001D01*
X71846010Y-70226001D01*
X72154010Y-70226001D01*
X72154010Y-70246001D01*
G37*
G04 #@! TD.AperFunction*
D15*
X69654010Y-70246001D02*
X69674010Y-70246001D01*
X69674010Y-70554001D01*
X69654010Y-70554001D01*
X69654010Y-70574001D01*
X69346010Y-70574001D01*
X69346010Y-70554001D01*
X69326010Y-70554001D01*
X69326010Y-70246001D01*
X69346010Y-70246001D01*
X69346010Y-70226001D01*
X69654010Y-70226001D01*
X69654010Y-70246001D01*
G04 #@! TA.AperFunction,Conductor*
D16*
G36*
X69654010Y-70246001D02*
G01*
X69674010Y-70246001D01*
X69674010Y-70554001D01*
X69654010Y-70554001D01*
X69654010Y-70574001D01*
X69346010Y-70574001D01*
X69346010Y-70554001D01*
X69326010Y-70554001D01*
X69326010Y-70246001D01*
X69346010Y-70246001D01*
X69346010Y-70226001D01*
X69654010Y-70226001D01*
X69654010Y-70246001D01*
G37*
G04 #@! TD.AperFunction*
D15*
X74654010Y-70246001D02*
X74674010Y-70246001D01*
X74674010Y-70554001D01*
X74654010Y-70554001D01*
X74654010Y-70574001D01*
X74346010Y-70574001D01*
X74346010Y-70554001D01*
X74326010Y-70554001D01*
X74326010Y-70246001D01*
X74346010Y-70246001D01*
X74346010Y-70226001D01*
X74654010Y-70226001D01*
X74654010Y-70246001D01*
G04 #@! TA.AperFunction,Conductor*
D16*
G36*
X74654010Y-70246001D02*
G01*
X74674010Y-70246001D01*
X74674010Y-70554001D01*
X74654010Y-70554001D01*
X74654010Y-70574001D01*
X74346010Y-70574001D01*
X74346010Y-70554001D01*
X74326010Y-70554001D01*
X74326010Y-70246001D01*
X74346010Y-70246001D01*
X74346010Y-70226001D01*
X74654010Y-70226001D01*
X74654010Y-70246001D01*
G37*
G04 #@! TD.AperFunction*
D15*
X79654010Y-70246001D02*
X79674010Y-70246001D01*
X79674010Y-70554001D01*
X79654010Y-70554001D01*
X79654010Y-70574001D01*
X79346010Y-70574001D01*
X79346010Y-70554001D01*
X79326010Y-70554001D01*
X79326010Y-70246001D01*
X79346010Y-70246001D01*
X79346010Y-70226001D01*
X79654010Y-70226001D01*
X79654010Y-70246001D01*
G04 #@! TA.AperFunction,Conductor*
D16*
G36*
X79654010Y-70246001D02*
G01*
X79674010Y-70246001D01*
X79674010Y-70554001D01*
X79654010Y-70554001D01*
X79654010Y-70574001D01*
X79346010Y-70574001D01*
X79346010Y-70554001D01*
X79326010Y-70554001D01*
X79326010Y-70246001D01*
X79346010Y-70246001D01*
X79346010Y-70226001D01*
X79654010Y-70226001D01*
X79654010Y-70246001D01*
G37*
G04 #@! TD.AperFunction*
D15*
X82154010Y-70246001D02*
X82174010Y-70246001D01*
X82174010Y-70554001D01*
X82154010Y-70554001D01*
X82154010Y-70574001D01*
X81846010Y-70574001D01*
X81846010Y-70554001D01*
X81826010Y-70554001D01*
X81826010Y-70246001D01*
X81846010Y-70246001D01*
X81846010Y-70226001D01*
X82154010Y-70226001D01*
X82154010Y-70246001D01*
G04 #@! TA.AperFunction,Conductor*
D16*
G36*
X82154010Y-70246001D02*
G01*
X82174010Y-70246001D01*
X82174010Y-70554001D01*
X82154010Y-70554001D01*
X82154010Y-70574001D01*
X81846010Y-70574001D01*
X81846010Y-70554001D01*
X81826010Y-70554001D01*
X81826010Y-70246001D01*
X81846010Y-70246001D01*
X81846010Y-70226001D01*
X82154010Y-70226001D01*
X82154010Y-70246001D01*
G37*
G04 #@! TD.AperFunction*
D15*
X77154010Y-70246001D02*
X77174010Y-70246001D01*
X77174010Y-70554001D01*
X77154010Y-70554001D01*
X77154010Y-70574001D01*
X76846010Y-70574001D01*
X76846010Y-70554001D01*
X76826010Y-70554001D01*
X76826010Y-70246001D01*
X76846010Y-70246001D01*
X76846010Y-70226001D01*
X77154010Y-70226001D01*
X77154010Y-70246001D01*
G04 #@! TA.AperFunction,Conductor*
D16*
G36*
X77154010Y-70246001D02*
G01*
X77174010Y-70246001D01*
X77174010Y-70554001D01*
X77154010Y-70554001D01*
X77154010Y-70574001D01*
X76846010Y-70574001D01*
X76846010Y-70554001D01*
X76826010Y-70554001D01*
X76826010Y-70246001D01*
X76846010Y-70246001D01*
X76846010Y-70226001D01*
X77154010Y-70226001D01*
X77154010Y-70246001D01*
G37*
G04 #@! TD.AperFunction*
D15*
X83154010Y-68946001D02*
X83174010Y-68946001D01*
X83174010Y-69254001D01*
X83154010Y-69254001D01*
X83154010Y-69274001D01*
X82846010Y-69274001D01*
X82846010Y-69254001D01*
X82826010Y-69254001D01*
X82826010Y-68946001D01*
X82846010Y-68946001D01*
X82846010Y-68926001D01*
X83154010Y-68926001D01*
X83154010Y-68946001D01*
G04 #@! TA.AperFunction,Conductor*
D16*
G36*
X83154010Y-68946001D02*
G01*
X83174010Y-68946001D01*
X83174010Y-69254001D01*
X83154010Y-69254001D01*
X83154010Y-69274001D01*
X82846010Y-69274001D01*
X82846010Y-69254001D01*
X82826010Y-69254001D01*
X82826010Y-68946001D01*
X82846010Y-68946001D01*
X82846010Y-68926001D01*
X83154010Y-68926001D01*
X83154010Y-68946001D01*
G37*
G04 #@! TD.AperFunction*
D15*
X70654010Y-68946001D02*
X70674010Y-68946001D01*
X70674010Y-69254001D01*
X70654010Y-69254001D01*
X70654010Y-69274001D01*
X70346010Y-69274001D01*
X70346010Y-69254001D01*
X70326010Y-69254001D01*
X70326010Y-68946001D01*
X70346010Y-68946001D01*
X70346010Y-68926001D01*
X70654010Y-68926001D01*
X70654010Y-68946001D01*
G04 #@! TA.AperFunction,Conductor*
D16*
G36*
X70654010Y-68946001D02*
G01*
X70674010Y-68946001D01*
X70674010Y-69254001D01*
X70654010Y-69254001D01*
X70654010Y-69274001D01*
X70346010Y-69274001D01*
X70346010Y-69254001D01*
X70326010Y-69254001D01*
X70326010Y-68946001D01*
X70346010Y-68946001D01*
X70346010Y-68926001D01*
X70654010Y-68926001D01*
X70654010Y-68946001D01*
G37*
G04 #@! TD.AperFunction*
D15*
X73154010Y-68946001D02*
X73174010Y-68946001D01*
X73174010Y-69254001D01*
X73154010Y-69254001D01*
X73154010Y-69274001D01*
X72846010Y-69274001D01*
X72846010Y-69254001D01*
X72826010Y-69254001D01*
X72826010Y-68946001D01*
X72846010Y-68946001D01*
X72846010Y-68926001D01*
X73154010Y-68926001D01*
X73154010Y-68946001D01*
G04 #@! TA.AperFunction,Conductor*
D16*
G36*
X73154010Y-68946001D02*
G01*
X73174010Y-68946001D01*
X73174010Y-69254001D01*
X73154010Y-69254001D01*
X73154010Y-69274001D01*
X72846010Y-69274001D01*
X72846010Y-69254001D01*
X72826010Y-69254001D01*
X72826010Y-68946001D01*
X72846010Y-68946001D01*
X72846010Y-68926001D01*
X73154010Y-68926001D01*
X73154010Y-68946001D01*
G37*
G04 #@! TD.AperFunction*
D15*
X78154010Y-68946001D02*
X78174010Y-68946001D01*
X78174010Y-69254001D01*
X78154010Y-69254001D01*
X78154010Y-69274001D01*
X77846010Y-69274001D01*
X77846010Y-69254001D01*
X77826010Y-69254001D01*
X77826010Y-68946001D01*
X77846010Y-68946001D01*
X77846010Y-68926001D01*
X78154010Y-68926001D01*
X78154010Y-68946001D01*
G04 #@! TA.AperFunction,Conductor*
D16*
G36*
X78154010Y-68946001D02*
G01*
X78174010Y-68946001D01*
X78174010Y-69254001D01*
X78154010Y-69254001D01*
X78154010Y-69274001D01*
X77846010Y-69274001D01*
X77846010Y-69254001D01*
X77826010Y-69254001D01*
X77826010Y-68946001D01*
X77846010Y-68946001D01*
X77846010Y-68926001D01*
X78154010Y-68926001D01*
X78154010Y-68946001D01*
G37*
G04 #@! TD.AperFunction*
D15*
X80654010Y-68946001D02*
X80674010Y-68946001D01*
X80674010Y-69254001D01*
X80654010Y-69254001D01*
X80654010Y-69274001D01*
X80346010Y-69274001D01*
X80346010Y-69254001D01*
X80326010Y-69254001D01*
X80326010Y-68946001D01*
X80346010Y-68946001D01*
X80346010Y-68926001D01*
X80654010Y-68926001D01*
X80654010Y-68946001D01*
G04 #@! TA.AperFunction,Conductor*
D16*
G36*
X80654010Y-68946001D02*
G01*
X80674010Y-68946001D01*
X80674010Y-69254001D01*
X80654010Y-69254001D01*
X80654010Y-69274001D01*
X80346010Y-69274001D01*
X80346010Y-69254001D01*
X80326010Y-69254001D01*
X80326010Y-68946001D01*
X80346010Y-68946001D01*
X80346010Y-68926001D01*
X80654010Y-68926001D01*
X80654010Y-68946001D01*
G37*
G04 #@! TD.AperFunction*
D15*
X75654010Y-68946001D02*
X75674010Y-68946001D01*
X75674010Y-69254001D01*
X75654010Y-69254001D01*
X75654010Y-69274001D01*
X75346010Y-69274001D01*
X75346010Y-69254001D01*
X75326010Y-69254001D01*
X75326010Y-68946001D01*
X75346010Y-68946001D01*
X75346010Y-68926001D01*
X75654010Y-68926001D01*
X75654010Y-68946001D01*
G04 #@! TA.AperFunction,Conductor*
D16*
G36*
X75654010Y-68946001D02*
G01*
X75674010Y-68946001D01*
X75674010Y-69254001D01*
X75654010Y-69254001D01*
X75654010Y-69274001D01*
X75346010Y-69274001D01*
X75346010Y-69254001D01*
X75326010Y-69254001D01*
X75326010Y-68946001D01*
X75346010Y-68946001D01*
X75346010Y-68926001D01*
X75654010Y-68926001D01*
X75654010Y-68946001D01*
G37*
G04 #@! TD.AperFunction*
D15*
X72154010Y-64246001D02*
X72174010Y-64246001D01*
X72174010Y-64554001D01*
X72154010Y-64554001D01*
X72154010Y-64574001D01*
X71846010Y-64574001D01*
X71846010Y-64554001D01*
X71826010Y-64554001D01*
X71826010Y-64246001D01*
X71846010Y-64246001D01*
X71846010Y-64226001D01*
X72154010Y-64226001D01*
X72154010Y-64246001D01*
G04 #@! TA.AperFunction,Conductor*
D16*
G36*
X72154010Y-64246001D02*
G01*
X72174010Y-64246001D01*
X72174010Y-64554001D01*
X72154010Y-64554001D01*
X72154010Y-64574001D01*
X71846010Y-64574001D01*
X71846010Y-64554001D01*
X71826010Y-64554001D01*
X71826010Y-64246001D01*
X71846010Y-64246001D01*
X71846010Y-64226001D01*
X72154010Y-64226001D01*
X72154010Y-64246001D01*
G37*
G04 #@! TD.AperFunction*
D15*
X69654010Y-64246001D02*
X69674010Y-64246001D01*
X69674010Y-64554001D01*
X69654010Y-64554001D01*
X69654010Y-64574001D01*
X69346010Y-64574001D01*
X69346010Y-64554001D01*
X69326010Y-64554001D01*
X69326010Y-64246001D01*
X69346010Y-64246001D01*
X69346010Y-64226001D01*
X69654010Y-64226001D01*
X69654010Y-64246001D01*
G04 #@! TA.AperFunction,Conductor*
D16*
G36*
X69654010Y-64246001D02*
G01*
X69674010Y-64246001D01*
X69674010Y-64554001D01*
X69654010Y-64554001D01*
X69654010Y-64574001D01*
X69346010Y-64574001D01*
X69346010Y-64554001D01*
X69326010Y-64554001D01*
X69326010Y-64246001D01*
X69346010Y-64246001D01*
X69346010Y-64226001D01*
X69654010Y-64226001D01*
X69654010Y-64246001D01*
G37*
G04 #@! TD.AperFunction*
D15*
X74654010Y-64246001D02*
X74674010Y-64246001D01*
X74674010Y-64554001D01*
X74654010Y-64554001D01*
X74654010Y-64574001D01*
X74346010Y-64574001D01*
X74346010Y-64554001D01*
X74326010Y-64554001D01*
X74326010Y-64246001D01*
X74346010Y-64246001D01*
X74346010Y-64226001D01*
X74654010Y-64226001D01*
X74654010Y-64246001D01*
G04 #@! TA.AperFunction,Conductor*
D16*
G36*
X74654010Y-64246001D02*
G01*
X74674010Y-64246001D01*
X74674010Y-64554001D01*
X74654010Y-64554001D01*
X74654010Y-64574001D01*
X74346010Y-64574001D01*
X74346010Y-64554001D01*
X74326010Y-64554001D01*
X74326010Y-64246001D01*
X74346010Y-64246001D01*
X74346010Y-64226001D01*
X74654010Y-64226001D01*
X74654010Y-64246001D01*
G37*
G04 #@! TD.AperFunction*
D15*
X77154010Y-64246001D02*
X77174010Y-64246001D01*
X77174010Y-64554001D01*
X77154010Y-64554001D01*
X77154010Y-64574001D01*
X76846010Y-64574001D01*
X76846010Y-64554001D01*
X76826010Y-64554001D01*
X76826010Y-64246001D01*
X76846010Y-64246001D01*
X76846010Y-64226001D01*
X77154010Y-64226001D01*
X77154010Y-64246001D01*
G04 #@! TA.AperFunction,Conductor*
D16*
G36*
X77154010Y-64246001D02*
G01*
X77174010Y-64246001D01*
X77174010Y-64554001D01*
X77154010Y-64554001D01*
X77154010Y-64574001D01*
X76846010Y-64574001D01*
X76846010Y-64554001D01*
X76826010Y-64554001D01*
X76826010Y-64246001D01*
X76846010Y-64246001D01*
X76846010Y-64226001D01*
X77154010Y-64226001D01*
X77154010Y-64246001D01*
G37*
G04 #@! TD.AperFunction*
D15*
X79654010Y-64246001D02*
X79674010Y-64246001D01*
X79674010Y-64554001D01*
X79654010Y-64554001D01*
X79654010Y-64574001D01*
X79346010Y-64574001D01*
X79346010Y-64554001D01*
X79326010Y-64554001D01*
X79326010Y-64246001D01*
X79346010Y-64246001D01*
X79346010Y-64226001D01*
X79654010Y-64226001D01*
X79654010Y-64246001D01*
G04 #@! TA.AperFunction,Conductor*
D16*
G36*
X79654010Y-64246001D02*
G01*
X79674010Y-64246001D01*
X79674010Y-64554001D01*
X79654010Y-64554001D01*
X79654010Y-64574001D01*
X79346010Y-64574001D01*
X79346010Y-64554001D01*
X79326010Y-64554001D01*
X79326010Y-64246001D01*
X79346010Y-64246001D01*
X79346010Y-64226001D01*
X79654010Y-64226001D01*
X79654010Y-64246001D01*
G37*
G04 #@! TD.AperFunction*
D15*
X82154010Y-64246001D02*
X82174010Y-64246001D01*
X82174010Y-64554001D01*
X82154010Y-64554001D01*
X82154010Y-64574001D01*
X81846010Y-64574001D01*
X81846010Y-64554001D01*
X81826010Y-64554001D01*
X81826010Y-64246001D01*
X81846010Y-64246001D01*
X81846010Y-64226001D01*
X82154010Y-64226001D01*
X82154010Y-64246001D01*
G04 #@! TA.AperFunction,Conductor*
D16*
G36*
X82154010Y-64246001D02*
G01*
X82174010Y-64246001D01*
X82174010Y-64554001D01*
X82154010Y-64554001D01*
X82154010Y-64574001D01*
X81846010Y-64574001D01*
X81846010Y-64554001D01*
X81826010Y-64554001D01*
X81826010Y-64246001D01*
X81846010Y-64246001D01*
X81846010Y-64226001D01*
X82154010Y-64226001D01*
X82154010Y-64246001D01*
G37*
G04 #@! TD.AperFunction*
D15*
X83154010Y-62946001D02*
X83174010Y-62946001D01*
X83174010Y-63254001D01*
X83154010Y-63254001D01*
X83154010Y-63274001D01*
X82846010Y-63274001D01*
X82846010Y-63254001D01*
X82826010Y-63254001D01*
X82826010Y-62946001D01*
X82846010Y-62946001D01*
X82846010Y-62926001D01*
X83154010Y-62926001D01*
X83154010Y-62946001D01*
G04 #@! TA.AperFunction,Conductor*
D16*
G36*
X83154010Y-62946001D02*
G01*
X83174010Y-62946001D01*
X83174010Y-63254001D01*
X83154010Y-63254001D01*
X83154010Y-63274001D01*
X82846010Y-63274001D01*
X82846010Y-63254001D01*
X82826010Y-63254001D01*
X82826010Y-62946001D01*
X82846010Y-62946001D01*
X82846010Y-62926001D01*
X83154010Y-62926001D01*
X83154010Y-62946001D01*
G37*
G04 #@! TD.AperFunction*
D15*
X80654010Y-62946001D02*
X80674010Y-62946001D01*
X80674010Y-63254001D01*
X80654010Y-63254001D01*
X80654010Y-63274001D01*
X80346010Y-63274001D01*
X80346010Y-63254001D01*
X80326010Y-63254001D01*
X80326010Y-62946001D01*
X80346010Y-62946001D01*
X80346010Y-62926001D01*
X80654010Y-62926001D01*
X80654010Y-62946001D01*
G04 #@! TA.AperFunction,Conductor*
D16*
G36*
X80654010Y-62946001D02*
G01*
X80674010Y-62946001D01*
X80674010Y-63254001D01*
X80654010Y-63254001D01*
X80654010Y-63274001D01*
X80346010Y-63274001D01*
X80346010Y-63254001D01*
X80326010Y-63254001D01*
X80326010Y-62946001D01*
X80346010Y-62946001D01*
X80346010Y-62926001D01*
X80654010Y-62926001D01*
X80654010Y-62946001D01*
G37*
G04 #@! TD.AperFunction*
D15*
X78154010Y-62946001D02*
X78174010Y-62946001D01*
X78174010Y-63254001D01*
X78154010Y-63254001D01*
X78154010Y-63274001D01*
X77846010Y-63274001D01*
X77846010Y-63254001D01*
X77826010Y-63254001D01*
X77826010Y-62946001D01*
X77846010Y-62946001D01*
X77846010Y-62926001D01*
X78154010Y-62926001D01*
X78154010Y-62946001D01*
G04 #@! TA.AperFunction,Conductor*
D16*
G36*
X78154010Y-62946001D02*
G01*
X78174010Y-62946001D01*
X78174010Y-63254001D01*
X78154010Y-63254001D01*
X78154010Y-63274001D01*
X77846010Y-63274001D01*
X77846010Y-63254001D01*
X77826010Y-63254001D01*
X77826010Y-62946001D01*
X77846010Y-62946001D01*
X77846010Y-62926001D01*
X78154010Y-62926001D01*
X78154010Y-62946001D01*
G37*
G04 #@! TD.AperFunction*
D15*
X75654010Y-62946001D02*
X75674010Y-62946001D01*
X75674010Y-63254001D01*
X75654010Y-63254001D01*
X75654010Y-63274001D01*
X75346010Y-63274001D01*
X75346010Y-63254001D01*
X75326010Y-63254001D01*
X75326010Y-62946001D01*
X75346010Y-62946001D01*
X75346010Y-62926001D01*
X75654010Y-62926001D01*
X75654010Y-62946001D01*
G04 #@! TA.AperFunction,Conductor*
D16*
G36*
X75654010Y-62946001D02*
G01*
X75674010Y-62946001D01*
X75674010Y-63254001D01*
X75654010Y-63254001D01*
X75654010Y-63274001D01*
X75346010Y-63274001D01*
X75346010Y-63254001D01*
X75326010Y-63254001D01*
X75326010Y-62946001D01*
X75346010Y-62946001D01*
X75346010Y-62926001D01*
X75654010Y-62926001D01*
X75654010Y-62946001D01*
G37*
G04 #@! TD.AperFunction*
D15*
X73154010Y-62946001D02*
X73174010Y-62946001D01*
X73174010Y-63254001D01*
X73154010Y-63254001D01*
X73154010Y-63274001D01*
X72846010Y-63274001D01*
X72846010Y-63254001D01*
X72826010Y-63254001D01*
X72826010Y-62946001D01*
X72846010Y-62946001D01*
X72846010Y-62926001D01*
X73154010Y-62926001D01*
X73154010Y-62946001D01*
G04 #@! TA.AperFunction,Conductor*
D16*
G36*
X73154010Y-62946001D02*
G01*
X73174010Y-62946001D01*
X73174010Y-63254001D01*
X73154010Y-63254001D01*
X73154010Y-63274001D01*
X72846010Y-63274001D01*
X72846010Y-63254001D01*
X72826010Y-63254001D01*
X72826010Y-62946001D01*
X72846010Y-62946001D01*
X72846010Y-62926001D01*
X73154010Y-62926001D01*
X73154010Y-62946001D01*
G37*
G04 #@! TD.AperFunction*
D15*
X70654010Y-62946001D02*
X70674010Y-62946001D01*
X70674010Y-63254001D01*
X70654010Y-63254001D01*
X70654010Y-63274001D01*
X70346010Y-63274001D01*
X70346010Y-63254001D01*
X70326010Y-63254001D01*
X70326010Y-62946001D01*
X70346010Y-62946001D01*
X70346010Y-62926001D01*
X70654010Y-62926001D01*
X70654010Y-62946001D01*
G04 #@! TA.AperFunction,Conductor*
D16*
G36*
X70654010Y-62946001D02*
G01*
X70674010Y-62946001D01*
X70674010Y-63254001D01*
X70654010Y-63254001D01*
X70654010Y-63274001D01*
X70346010Y-63274001D01*
X70346010Y-63254001D01*
X70326010Y-63254001D01*
X70326010Y-62946001D01*
X70346010Y-62946001D01*
X70346010Y-62926001D01*
X70654010Y-62926001D01*
X70654010Y-62946001D01*
G37*
G04 #@! TD.AperFunction*
D15*
X82614759Y-50405861D02*
X82728556Y-50423898D01*
X82839740Y-50453655D01*
X82947686Y-50495116D01*
X83050288Y-50547370D01*
X83146784Y-50610089D01*
X83236747Y-50682958D01*
X83316372Y-50762192D01*
X83318993Y-50765100D01*
X83389827Y-50853133D01*
X83452643Y-50949824D01*
X83505105Y-51052761D01*
X83545702Y-51157767D01*
X83547224Y-51162463D01*
X83575810Y-51268963D01*
X83576801Y-51273596D01*
X83594110Y-51384705D01*
X83601001Y-51516927D01*
X83601001Y-52371338D01*
X83595011Y-52351818D01*
X83270939Y-51745522D01*
X82812595Y-51405205D01*
X80467799Y-53750001D01*
X82812595Y-56094797D01*
X83270939Y-55754480D01*
X83601001Y-55132165D01*
X83601001Y-57820642D01*
X83592432Y-57804611D01*
X83548695Y-57751316D01*
X83495400Y-57707579D01*
X83434597Y-57675079D01*
X83368622Y-57655066D01*
X83300010Y-57648308D01*
X82797683Y-57648308D01*
X82733848Y-57569845D01*
X82641593Y-57493472D01*
X82536211Y-57436566D01*
X82421751Y-57401311D01*
X82306010Y-57392001D01*
X82154010Y-57544001D01*
X82154010Y-58246001D01*
X82174010Y-58246001D01*
X82174010Y-58554001D01*
X82154010Y-58554001D01*
X82154010Y-58574001D01*
X81846010Y-58574001D01*
X81846010Y-58554001D01*
X81826010Y-58554001D01*
X81826010Y-58246001D01*
X81846010Y-58246001D01*
X81846010Y-57544001D01*
X81694010Y-57392001D01*
X81578269Y-57401311D01*
X81463809Y-57436566D01*
X81358427Y-57493472D01*
X81266172Y-57569845D01*
X81190589Y-57662748D01*
X81134582Y-57768611D01*
X81112574Y-57842293D01*
X81092432Y-57804611D01*
X81048695Y-57751316D01*
X80995400Y-57707579D01*
X80934597Y-57675079D01*
X80868622Y-57655066D01*
X80800010Y-57648308D01*
X80297683Y-57648308D01*
X80233848Y-57569845D01*
X80141593Y-57493472D01*
X80036211Y-57436566D01*
X79921751Y-57401311D01*
X79806010Y-57392001D01*
X79654010Y-57544001D01*
X79654010Y-58246001D01*
X79674010Y-58246001D01*
X79674010Y-58554001D01*
X79654010Y-58554001D01*
X79654010Y-58574001D01*
X79346010Y-58574001D01*
X79346010Y-58554001D01*
X79326010Y-58554001D01*
X79326010Y-58246001D01*
X79346010Y-58246001D01*
X79346010Y-57544001D01*
X79194010Y-57392001D01*
X79078269Y-57401311D01*
X78963809Y-57436566D01*
X78858427Y-57493472D01*
X78766172Y-57569845D01*
X78690589Y-57662748D01*
X78634582Y-57768611D01*
X78612574Y-57842293D01*
X78592432Y-57804611D01*
X78548695Y-57751316D01*
X78495400Y-57707579D01*
X78434597Y-57675079D01*
X78368622Y-57655066D01*
X78300010Y-57648308D01*
X77797683Y-57648308D01*
X77733848Y-57569845D01*
X77641593Y-57493472D01*
X77536211Y-57436566D01*
X77421751Y-57401311D01*
X77306010Y-57392001D01*
X77154010Y-57544001D01*
X77154010Y-58246001D01*
X77174010Y-58246001D01*
X77174010Y-58554001D01*
X77154010Y-58554001D01*
X77154010Y-58574001D01*
X76846010Y-58574001D01*
X76846010Y-58554001D01*
X76826010Y-58554001D01*
X76826010Y-58246001D01*
X76846010Y-58246001D01*
X76846010Y-57544001D01*
X76694010Y-57392001D01*
X76578269Y-57401311D01*
X76463809Y-57436566D01*
X76358427Y-57493472D01*
X76266172Y-57569845D01*
X76190589Y-57662748D01*
X76134582Y-57768611D01*
X76112574Y-57842293D01*
X76092432Y-57804611D01*
X76048695Y-57751316D01*
X75995400Y-57707579D01*
X75934597Y-57675079D01*
X75868622Y-57655066D01*
X75800010Y-57648308D01*
X75297683Y-57648308D01*
X75233848Y-57569845D01*
X75141593Y-57493472D01*
X75036211Y-57436566D01*
X74921751Y-57401311D01*
X74806010Y-57392001D01*
X74654010Y-57544001D01*
X74654010Y-58246001D01*
X74674010Y-58246001D01*
X74674010Y-58554001D01*
X74654010Y-58554001D01*
X74654010Y-58574001D01*
X74346010Y-58574001D01*
X74346010Y-58554001D01*
X74326010Y-58554001D01*
X74326010Y-58246001D01*
X74346010Y-58246001D01*
X74346010Y-57544001D01*
X74194010Y-57392001D01*
X74078269Y-57401311D01*
X73963809Y-57436566D01*
X73858427Y-57493472D01*
X73766172Y-57569845D01*
X73690589Y-57662748D01*
X73634582Y-57768611D01*
X73612574Y-57842293D01*
X73592432Y-57804611D01*
X73548695Y-57751316D01*
X73495400Y-57707579D01*
X73434597Y-57675079D01*
X73368622Y-57655066D01*
X73300010Y-57648308D01*
X72797683Y-57648308D01*
X72733848Y-57569845D01*
X72641593Y-57493472D01*
X72536211Y-57436566D01*
X72421751Y-57401311D01*
X72306010Y-57392001D01*
X72154010Y-57544001D01*
X72154010Y-58246001D01*
X72174010Y-58246001D01*
X72174010Y-58554001D01*
X72154010Y-58554001D01*
X72154010Y-58574001D01*
X71846010Y-58574001D01*
X71846010Y-58554001D01*
X71826010Y-58554001D01*
X71826010Y-58246001D01*
X71846010Y-58246001D01*
X71846010Y-57544001D01*
X71694010Y-57392001D01*
X71578269Y-57401311D01*
X71463809Y-57436566D01*
X71358427Y-57493472D01*
X71266172Y-57569845D01*
X71190589Y-57662748D01*
X71134582Y-57768611D01*
X71112574Y-57842293D01*
X71092432Y-57804611D01*
X71048695Y-57751316D01*
X70995400Y-57707579D01*
X70934597Y-57675079D01*
X70868622Y-57655066D01*
X70800010Y-57648308D01*
X70297683Y-57648308D01*
X70233848Y-57569845D01*
X70141593Y-57493472D01*
X70036211Y-57436566D01*
X69921751Y-57401311D01*
X69806010Y-57392001D01*
X69654010Y-57544001D01*
X69654010Y-58246001D01*
X69674010Y-58246001D01*
X69674010Y-58554001D01*
X69654010Y-58554001D01*
X69654010Y-58574001D01*
X69346010Y-58574001D01*
X69346010Y-58554001D01*
X69326010Y-58554001D01*
X69326010Y-58246001D01*
X69346010Y-58246001D01*
X69346010Y-57544001D01*
X69194010Y-57392001D01*
X69078269Y-57401311D01*
X68963809Y-57436566D01*
X68899049Y-57471536D01*
X68899058Y-56312586D01*
X69905214Y-56312586D01*
X70245531Y-56770930D01*
X70873401Y-57103938D01*
X71554173Y-57308056D01*
X72261686Y-57375441D01*
X72968750Y-57303501D01*
X73648193Y-57095002D01*
X74254489Y-56770930D01*
X74594806Y-56312586D01*
X77905214Y-56312586D01*
X78245531Y-56770930D01*
X78873401Y-57103938D01*
X79554173Y-57308056D01*
X80261686Y-57375441D01*
X80968750Y-57303501D01*
X81648193Y-57095002D01*
X82254489Y-56770930D01*
X82594806Y-56312586D01*
X80250010Y-53967790D01*
X77905214Y-56312586D01*
X74594806Y-56312586D01*
X72250010Y-53967790D01*
X69905214Y-56312586D01*
X68899058Y-56312586D01*
X68899069Y-55128827D01*
X68905009Y-55148184D01*
X69229081Y-55754480D01*
X69687425Y-56094797D01*
X72032221Y-53750001D01*
X72467799Y-53750001D01*
X74812595Y-56094797D01*
X75270939Y-55754480D01*
X75603947Y-55126610D01*
X75808065Y-54445838D01*
X75873225Y-53761677D01*
X76624570Y-53761677D01*
X76696510Y-54468741D01*
X76905009Y-55148184D01*
X77229081Y-55754480D01*
X77687425Y-56094797D01*
X80032221Y-53750001D01*
X77687425Y-51405205D01*
X77229081Y-51745522D01*
X76896073Y-52373392D01*
X76691955Y-53054164D01*
X76624570Y-53761677D01*
X75873225Y-53761677D01*
X75875450Y-53738325D01*
X75803510Y-53031261D01*
X75595011Y-52351818D01*
X75270939Y-51745522D01*
X74812595Y-51405205D01*
X72467799Y-53750001D01*
X72032221Y-53750001D01*
X69687425Y-51405205D01*
X69229081Y-51745522D01*
X68899092Y-52367699D01*
X68899100Y-51510623D01*
X68905898Y-51385140D01*
X68923979Y-51271069D01*
X68953815Y-51159859D01*
X68995079Y-51052414D01*
X69047458Y-50949711D01*
X69110113Y-50853200D01*
X69182903Y-50763409D01*
X69262229Y-50683691D01*
X69265313Y-50680909D01*
X69353209Y-50610124D01*
X69449824Y-50547357D01*
X69552761Y-50494895D01*
X69657767Y-50454298D01*
X69662463Y-50452776D01*
X69768963Y-50424190D01*
X69773596Y-50423199D01*
X69885009Y-50405842D01*
X70010630Y-50399100D01*
X70871077Y-50399093D01*
X70851827Y-50405000D01*
X70245531Y-50729072D01*
X69905214Y-51187416D01*
X72250010Y-53532212D01*
X74594806Y-51187416D01*
X74254489Y-50729072D01*
X73632288Y-50399071D01*
X78871287Y-50399028D01*
X78851827Y-50405000D01*
X78245531Y-50729072D01*
X77905214Y-51187416D01*
X80250010Y-53532212D01*
X82594806Y-51187416D01*
X82254489Y-50729072D01*
X81632166Y-50399006D01*
X82483166Y-50398999D01*
X82614759Y-50405861D01*
G04 #@! TA.AperFunction,Conductor*
D16*
G36*
X82614759Y-50405861D02*
G01*
X82728556Y-50423898D01*
X82839740Y-50453655D01*
X82947686Y-50495116D01*
X83050288Y-50547370D01*
X83146784Y-50610089D01*
X83236747Y-50682958D01*
X83316372Y-50762192D01*
X83318993Y-50765100D01*
X83389827Y-50853133D01*
X83452643Y-50949824D01*
X83505105Y-51052761D01*
X83545702Y-51157767D01*
X83547224Y-51162463D01*
X83575810Y-51268963D01*
X83576801Y-51273596D01*
X83594110Y-51384705D01*
X83601001Y-51516927D01*
X83601001Y-52371338D01*
X83595011Y-52351818D01*
X83270939Y-51745522D01*
X82812595Y-51405205D01*
X80467799Y-53750001D01*
X82812595Y-56094797D01*
X83270939Y-55754480D01*
X83601001Y-55132165D01*
X83601001Y-57820642D01*
X83592432Y-57804611D01*
X83548695Y-57751316D01*
X83495400Y-57707579D01*
X83434597Y-57675079D01*
X83368622Y-57655066D01*
X83300010Y-57648308D01*
X82797683Y-57648308D01*
X82733848Y-57569845D01*
X82641593Y-57493472D01*
X82536211Y-57436566D01*
X82421751Y-57401311D01*
X82306010Y-57392001D01*
X82154010Y-57544001D01*
X82154010Y-58246001D01*
X82174010Y-58246001D01*
X82174010Y-58554001D01*
X82154010Y-58554001D01*
X82154010Y-58574001D01*
X81846010Y-58574001D01*
X81846010Y-58554001D01*
X81826010Y-58554001D01*
X81826010Y-58246001D01*
X81846010Y-58246001D01*
X81846010Y-57544001D01*
X81694010Y-57392001D01*
X81578269Y-57401311D01*
X81463809Y-57436566D01*
X81358427Y-57493472D01*
X81266172Y-57569845D01*
X81190589Y-57662748D01*
X81134582Y-57768611D01*
X81112574Y-57842293D01*
X81092432Y-57804611D01*
X81048695Y-57751316D01*
X80995400Y-57707579D01*
X80934597Y-57675079D01*
X80868622Y-57655066D01*
X80800010Y-57648308D01*
X80297683Y-57648308D01*
X80233848Y-57569845D01*
X80141593Y-57493472D01*
X80036211Y-57436566D01*
X79921751Y-57401311D01*
X79806010Y-57392001D01*
X79654010Y-57544001D01*
X79654010Y-58246001D01*
X79674010Y-58246001D01*
X79674010Y-58554001D01*
X79654010Y-58554001D01*
X79654010Y-58574001D01*
X79346010Y-58574001D01*
X79346010Y-58554001D01*
X79326010Y-58554001D01*
X79326010Y-58246001D01*
X79346010Y-58246001D01*
X79346010Y-57544001D01*
X79194010Y-57392001D01*
X79078269Y-57401311D01*
X78963809Y-57436566D01*
X78858427Y-57493472D01*
X78766172Y-57569845D01*
X78690589Y-57662748D01*
X78634582Y-57768611D01*
X78612574Y-57842293D01*
X78592432Y-57804611D01*
X78548695Y-57751316D01*
X78495400Y-57707579D01*
X78434597Y-57675079D01*
X78368622Y-57655066D01*
X78300010Y-57648308D01*
X77797683Y-57648308D01*
X77733848Y-57569845D01*
X77641593Y-57493472D01*
X77536211Y-57436566D01*
X77421751Y-57401311D01*
X77306010Y-57392001D01*
X77154010Y-57544001D01*
X77154010Y-58246001D01*
X77174010Y-58246001D01*
X77174010Y-58554001D01*
X77154010Y-58554001D01*
X77154010Y-58574001D01*
X76846010Y-58574001D01*
X76846010Y-58554001D01*
X76826010Y-58554001D01*
X76826010Y-58246001D01*
X76846010Y-58246001D01*
X76846010Y-57544001D01*
X76694010Y-57392001D01*
X76578269Y-57401311D01*
X76463809Y-57436566D01*
X76358427Y-57493472D01*
X76266172Y-57569845D01*
X76190589Y-57662748D01*
X76134582Y-57768611D01*
X76112574Y-57842293D01*
X76092432Y-57804611D01*
X76048695Y-57751316D01*
X75995400Y-57707579D01*
X75934597Y-57675079D01*
X75868622Y-57655066D01*
X75800010Y-57648308D01*
X75297683Y-57648308D01*
X75233848Y-57569845D01*
X75141593Y-57493472D01*
X75036211Y-57436566D01*
X74921751Y-57401311D01*
X74806010Y-57392001D01*
X74654010Y-57544001D01*
X74654010Y-58246001D01*
X74674010Y-58246001D01*
X74674010Y-58554001D01*
X74654010Y-58554001D01*
X74654010Y-58574001D01*
X74346010Y-58574001D01*
X74346010Y-58554001D01*
X74326010Y-58554001D01*
X74326010Y-58246001D01*
X74346010Y-58246001D01*
X74346010Y-57544001D01*
X74194010Y-57392001D01*
X74078269Y-57401311D01*
X73963809Y-57436566D01*
X73858427Y-57493472D01*
X73766172Y-57569845D01*
X73690589Y-57662748D01*
X73634582Y-57768611D01*
X73612574Y-57842293D01*
X73592432Y-57804611D01*
X73548695Y-57751316D01*
X73495400Y-57707579D01*
X73434597Y-57675079D01*
X73368622Y-57655066D01*
X73300010Y-57648308D01*
X72797683Y-57648308D01*
X72733848Y-57569845D01*
X72641593Y-57493472D01*
X72536211Y-57436566D01*
X72421751Y-57401311D01*
X72306010Y-57392001D01*
X72154010Y-57544001D01*
X72154010Y-58246001D01*
X72174010Y-58246001D01*
X72174010Y-58554001D01*
X72154010Y-58554001D01*
X72154010Y-58574001D01*
X71846010Y-58574001D01*
X71846010Y-58554001D01*
X71826010Y-58554001D01*
X71826010Y-58246001D01*
X71846010Y-58246001D01*
X71846010Y-57544001D01*
X71694010Y-57392001D01*
X71578269Y-57401311D01*
X71463809Y-57436566D01*
X71358427Y-57493472D01*
X71266172Y-57569845D01*
X71190589Y-57662748D01*
X71134582Y-57768611D01*
X71112574Y-57842293D01*
X71092432Y-57804611D01*
X71048695Y-57751316D01*
X70995400Y-57707579D01*
X70934597Y-57675079D01*
X70868622Y-57655066D01*
X70800010Y-57648308D01*
X70297683Y-57648308D01*
X70233848Y-57569845D01*
X70141593Y-57493472D01*
X70036211Y-57436566D01*
X69921751Y-57401311D01*
X69806010Y-57392001D01*
X69654010Y-57544001D01*
X69654010Y-58246001D01*
X69674010Y-58246001D01*
X69674010Y-58554001D01*
X69654010Y-58554001D01*
X69654010Y-58574001D01*
X69346010Y-58574001D01*
X69346010Y-58554001D01*
X69326010Y-58554001D01*
X69326010Y-58246001D01*
X69346010Y-58246001D01*
X69346010Y-57544001D01*
X69194010Y-57392001D01*
X69078269Y-57401311D01*
X68963809Y-57436566D01*
X68899049Y-57471536D01*
X68899058Y-56312586D01*
X69905214Y-56312586D01*
X70245531Y-56770930D01*
X70873401Y-57103938D01*
X71554173Y-57308056D01*
X72261686Y-57375441D01*
X72968750Y-57303501D01*
X73648193Y-57095002D01*
X74254489Y-56770930D01*
X74594806Y-56312586D01*
X77905214Y-56312586D01*
X78245531Y-56770930D01*
X78873401Y-57103938D01*
X79554173Y-57308056D01*
X80261686Y-57375441D01*
X80968750Y-57303501D01*
X81648193Y-57095002D01*
X82254489Y-56770930D01*
X82594806Y-56312586D01*
X80250010Y-53967790D01*
X77905214Y-56312586D01*
X74594806Y-56312586D01*
X72250010Y-53967790D01*
X69905214Y-56312586D01*
X68899058Y-56312586D01*
X68899069Y-55128827D01*
X68905009Y-55148184D01*
X69229081Y-55754480D01*
X69687425Y-56094797D01*
X72032221Y-53750001D01*
X72467799Y-53750001D01*
X74812595Y-56094797D01*
X75270939Y-55754480D01*
X75603947Y-55126610D01*
X75808065Y-54445838D01*
X75873225Y-53761677D01*
X76624570Y-53761677D01*
X76696510Y-54468741D01*
X76905009Y-55148184D01*
X77229081Y-55754480D01*
X77687425Y-56094797D01*
X80032221Y-53750001D01*
X77687425Y-51405205D01*
X77229081Y-51745522D01*
X76896073Y-52373392D01*
X76691955Y-53054164D01*
X76624570Y-53761677D01*
X75873225Y-53761677D01*
X75875450Y-53738325D01*
X75803510Y-53031261D01*
X75595011Y-52351818D01*
X75270939Y-51745522D01*
X74812595Y-51405205D01*
X72467799Y-53750001D01*
X72032221Y-53750001D01*
X69687425Y-51405205D01*
X69229081Y-51745522D01*
X68899092Y-52367699D01*
X68899100Y-51510623D01*
X68905898Y-51385140D01*
X68923979Y-51271069D01*
X68953815Y-51159859D01*
X68995079Y-51052414D01*
X69047458Y-50949711D01*
X69110113Y-50853200D01*
X69182903Y-50763409D01*
X69262229Y-50683691D01*
X69265313Y-50680909D01*
X69353209Y-50610124D01*
X69449824Y-50547357D01*
X69552761Y-50494895D01*
X69657767Y-50454298D01*
X69662463Y-50452776D01*
X69768963Y-50424190D01*
X69773596Y-50423199D01*
X69885009Y-50405842D01*
X70010630Y-50399100D01*
X70871077Y-50399093D01*
X70851827Y-50405000D01*
X70245531Y-50729072D01*
X69905214Y-51187416D01*
X72250010Y-53532212D01*
X74594806Y-51187416D01*
X74254489Y-50729072D01*
X73632288Y-50399071D01*
X78871287Y-50399028D01*
X78851827Y-50405000D01*
X78245531Y-50729072D01*
X77905214Y-51187416D01*
X80250010Y-53532212D01*
X82594806Y-51187416D01*
X82254489Y-50729072D01*
X81632166Y-50399006D01*
X82483166Y-50398999D01*
X82614759Y-50405861D01*
G37*
G04 #@! TD.AperFunction*
G04 #@! TD*
M02*
