G04 #@! TF.GenerationSoftware,KiCad,Pcbnew,5.1.10*
G04 #@! TF.CreationDate,2021-09-23T13:58:25+02:00*
G04 #@! TF.ProjectId,char-panel,63686172-2d70-4616-9e65-6c2e6b696361,rev?*
G04 #@! TF.SameCoordinates,Original*
G04 #@! TF.FileFunction,Legend,Bot*
G04 #@! TF.FilePolarity,Positive*
%FSLAX46Y46*%
G04 Gerber Fmt 4.6, Leading zero omitted, Abs format (unit mm)*
G04 Created by KiCad (PCBNEW 5.1.10) date 2021-09-23 13:58:25*
%MOMM*%
%LPD*%
G01*
G04 APERTURE LIST*
%ADD10C,0.150000*%
%ADD11C,0.120000*%
%ADD12C,0.100000*%
G04 APERTURE END LIST*
D10*
X77345248Y-83785715D02*
X77107152Y-84452381D01*
X76869057Y-83785715D01*
X76059533Y-84404762D02*
X76154771Y-84452381D01*
X76345248Y-84452381D01*
X76440486Y-84404762D01*
X76488105Y-84357143D01*
X76535724Y-84261905D01*
X76535724Y-83976191D01*
X76488105Y-83880953D01*
X76440486Y-83833334D01*
X76345248Y-83785715D01*
X76154771Y-83785715D01*
X76059533Y-83833334D01*
X75202390Y-84404762D02*
X75297629Y-84452381D01*
X75488105Y-84452381D01*
X75583343Y-84404762D01*
X75630962Y-84357143D01*
X75678581Y-84261905D01*
X75678581Y-83976191D01*
X75630962Y-83880953D01*
X75583343Y-83833334D01*
X75488105Y-83785715D01*
X75297629Y-83785715D01*
X75202390Y-83833334D01*
X76940486Y-87785715D02*
X76940486Y-88595239D01*
X76988105Y-88690477D01*
X77035724Y-88738096D01*
X77130962Y-88785715D01*
X77273819Y-88785715D01*
X77369057Y-88738096D01*
X76940486Y-88404762D02*
X77035724Y-88452381D01*
X77226200Y-88452381D01*
X77321438Y-88404762D01*
X77369057Y-88357143D01*
X77416676Y-88261905D01*
X77416676Y-87976191D01*
X77369057Y-87880953D01*
X77321438Y-87833334D01*
X77226200Y-87785715D01*
X77035724Y-87785715D01*
X76940486Y-87833334D01*
X76464295Y-87785715D02*
X76464295Y-88452381D01*
X76464295Y-87880953D02*
X76416676Y-87833334D01*
X76321438Y-87785715D01*
X76178581Y-87785715D01*
X76083343Y-87833334D01*
X76035724Y-87928572D01*
X76035724Y-88452381D01*
X75130962Y-88452381D02*
X75130962Y-87452381D01*
X75130962Y-88404762D02*
X75226200Y-88452381D01*
X75416676Y-88452381D01*
X75511914Y-88404762D01*
X75559533Y-88357143D01*
X75607152Y-88261905D01*
X75607152Y-87976191D01*
X75559533Y-87880953D01*
X75511914Y-87833334D01*
X75416676Y-87785715D01*
X75226200Y-87785715D01*
X75130962Y-87833334D01*
D11*
X71500010Y-86000001D02*
X70750010Y-86000001D01*
X70750010Y-86000001D02*
X71000010Y-85750001D01*
X71000010Y-85750001D02*
X71000010Y-86250001D01*
X71000010Y-86250001D02*
X70750010Y-86000001D01*
X81750010Y-86000001D02*
X81000010Y-86000001D01*
X81000010Y-86000001D02*
X81250010Y-85750001D01*
X81250010Y-85750001D02*
X81250010Y-86250001D01*
X81250010Y-86250001D02*
X81000010Y-86000001D01*
D12*
X77285724Y-56303572D02*
X77214295Y-56339286D01*
X77071438Y-56339286D01*
X77000010Y-56303572D01*
X76964295Y-56232143D01*
X76964295Y-56196429D01*
X77000010Y-56125001D01*
X77071438Y-56089286D01*
X77178581Y-56089286D01*
X77250010Y-56053572D01*
X77285724Y-55982143D01*
X77285724Y-55946429D01*
X77250010Y-55875001D01*
X77178581Y-55839286D01*
X77071438Y-55839286D01*
X77000010Y-55875001D01*
X76357152Y-56303572D02*
X76428581Y-56339286D01*
X76571438Y-56339286D01*
X76642867Y-56303572D01*
X76678581Y-56232143D01*
X76678581Y-55946429D01*
X76642867Y-55875001D01*
X76571438Y-55839286D01*
X76428581Y-55839286D01*
X76357152Y-55875001D01*
X76321438Y-55946429D01*
X76321438Y-56017858D01*
X76678581Y-56089286D01*
X76000010Y-55839286D02*
X76000010Y-56589286D01*
X76000010Y-55875001D02*
X75928581Y-55839286D01*
X75785724Y-55839286D01*
X75714295Y-55875001D01*
X75678581Y-55910715D01*
X75642867Y-55982143D01*
X75642867Y-56196429D01*
X75678581Y-56267858D01*
X75714295Y-56303572D01*
X75785724Y-56339286D01*
X75928581Y-56339286D01*
X76000010Y-56303572D01*
X75428581Y-55839286D02*
X75142867Y-55839286D01*
X75321438Y-55589286D02*
X75321438Y-56232143D01*
X75285724Y-56303572D01*
X75214295Y-56339286D01*
X75142867Y-56339286D01*
X76928581Y-56839286D02*
X77000010Y-56982143D01*
X76642867Y-56910715D02*
X76607152Y-56875001D01*
X76535724Y-56839286D01*
X76357152Y-56839286D01*
X76285724Y-56875001D01*
X76250010Y-56910715D01*
X76214295Y-56982143D01*
X76214295Y-57053572D01*
X76250010Y-57160715D01*
X76678581Y-57589286D01*
X76214295Y-57589286D01*
X75500010Y-57589286D02*
X75928581Y-57589286D01*
X75714295Y-57589286D02*
X75714295Y-56839286D01*
X75785724Y-56946429D01*
X75857152Y-57017858D01*
X75928581Y-57053572D01*
D10*
X58845239Y-83785715D02*
X58607143Y-84452381D01*
X58369048Y-83785715D01*
X57559524Y-84404762D02*
X57654762Y-84452381D01*
X57845239Y-84452381D01*
X57940477Y-84404762D01*
X57988096Y-84357143D01*
X58035715Y-84261905D01*
X58035715Y-83976191D01*
X57988096Y-83880953D01*
X57940477Y-83833334D01*
X57845239Y-83785715D01*
X57654762Y-83785715D01*
X57559524Y-83833334D01*
X56702381Y-84404762D02*
X56797620Y-84452381D01*
X56988096Y-84452381D01*
X57083334Y-84404762D01*
X57130953Y-84357143D01*
X57178572Y-84261905D01*
X57178572Y-83976191D01*
X57130953Y-83880953D01*
X57083334Y-83833334D01*
X56988096Y-83785715D01*
X56797620Y-83785715D01*
X56702381Y-83833334D01*
X58440477Y-87785715D02*
X58440477Y-88595239D01*
X58488096Y-88690477D01*
X58535715Y-88738096D01*
X58630953Y-88785715D01*
X58773810Y-88785715D01*
X58869048Y-88738096D01*
X58440477Y-88404762D02*
X58535715Y-88452381D01*
X58726191Y-88452381D01*
X58821429Y-88404762D01*
X58869048Y-88357143D01*
X58916667Y-88261905D01*
X58916667Y-87976191D01*
X58869048Y-87880953D01*
X58821429Y-87833334D01*
X58726191Y-87785715D01*
X58535715Y-87785715D01*
X58440477Y-87833334D01*
X57964286Y-87785715D02*
X57964286Y-88452381D01*
X57964286Y-87880953D02*
X57916667Y-87833334D01*
X57821429Y-87785715D01*
X57678572Y-87785715D01*
X57583334Y-87833334D01*
X57535715Y-87928572D01*
X57535715Y-88452381D01*
X56630953Y-88452381D02*
X56630953Y-87452381D01*
X56630953Y-88404762D02*
X56726191Y-88452381D01*
X56916667Y-88452381D01*
X57011905Y-88404762D01*
X57059524Y-88357143D01*
X57107143Y-88261905D01*
X57107143Y-87976191D01*
X57059524Y-87880953D01*
X57011905Y-87833334D01*
X56916667Y-87785715D01*
X56726191Y-87785715D01*
X56630953Y-87833334D01*
D11*
X53000001Y-86000001D02*
X52250001Y-86000001D01*
X52250001Y-86000001D02*
X52500001Y-85750001D01*
X52500001Y-85750001D02*
X52500001Y-86250001D01*
X52500001Y-86250001D02*
X52250001Y-86000001D01*
X63250001Y-86000001D02*
X62500001Y-86000001D01*
X62500001Y-86000001D02*
X62750001Y-85750001D01*
X62750001Y-85750001D02*
X62750001Y-86250001D01*
X62750001Y-86250001D02*
X62500001Y-86000001D01*
D12*
X58785715Y-56303572D02*
X58714286Y-56339286D01*
X58571429Y-56339286D01*
X58500001Y-56303572D01*
X58464286Y-56232143D01*
X58464286Y-56196429D01*
X58500001Y-56125001D01*
X58571429Y-56089286D01*
X58678572Y-56089286D01*
X58750001Y-56053572D01*
X58785715Y-55982143D01*
X58785715Y-55946429D01*
X58750001Y-55875001D01*
X58678572Y-55839286D01*
X58571429Y-55839286D01*
X58500001Y-55875001D01*
X57857143Y-56303572D02*
X57928572Y-56339286D01*
X58071429Y-56339286D01*
X58142858Y-56303572D01*
X58178572Y-56232143D01*
X58178572Y-55946429D01*
X58142858Y-55875001D01*
X58071429Y-55839286D01*
X57928572Y-55839286D01*
X57857143Y-55875001D01*
X57821429Y-55946429D01*
X57821429Y-56017858D01*
X58178572Y-56089286D01*
X57500001Y-55839286D02*
X57500001Y-56589286D01*
X57500001Y-55875001D02*
X57428572Y-55839286D01*
X57285715Y-55839286D01*
X57214286Y-55875001D01*
X57178572Y-55910715D01*
X57142858Y-55982143D01*
X57142858Y-56196429D01*
X57178572Y-56267858D01*
X57214286Y-56303572D01*
X57285715Y-56339286D01*
X57428572Y-56339286D01*
X57500001Y-56303572D01*
X56928572Y-55839286D02*
X56642858Y-55839286D01*
X56821429Y-55589286D02*
X56821429Y-56232143D01*
X56785715Y-56303572D01*
X56714286Y-56339286D01*
X56642858Y-56339286D01*
X58428572Y-56839286D02*
X58500001Y-56982143D01*
X58142858Y-56910715D02*
X58107143Y-56875001D01*
X58035715Y-56839286D01*
X57857143Y-56839286D01*
X57785715Y-56875001D01*
X57750001Y-56910715D01*
X57714286Y-56982143D01*
X57714286Y-57053572D01*
X57750001Y-57160715D01*
X58178572Y-57589286D01*
X57714286Y-57589286D01*
X57000001Y-57589286D02*
X57428572Y-57589286D01*
X57214286Y-57589286D02*
X57214286Y-56839286D01*
X57285715Y-56946429D01*
X57357143Y-57017858D01*
X57428572Y-57053572D01*
D11*
G04 #@! TO.C,C1*
X76511262Y-58515001D02*
X75988758Y-58515001D01*
X76511262Y-59985001D02*
X75988758Y-59985001D01*
G04 #@! TO.C,C2*
X76511262Y-61515001D02*
X75988758Y-61515001D01*
X76511262Y-62985001D02*
X75988758Y-62985001D01*
G04 #@! TO.C,C3*
X76548762Y-64515001D02*
X76026258Y-64515001D01*
X76548762Y-65985001D02*
X76026258Y-65985001D01*
G04 #@! TO.C,C4*
X76548762Y-67515001D02*
X76026258Y-67515001D01*
X76548762Y-68985001D02*
X76026258Y-68985001D01*
G04 #@! TO.C,C5*
X76548762Y-70515001D02*
X76026258Y-70515001D01*
X76548762Y-71985001D02*
X76026258Y-71985001D01*
G04 #@! TO.C,C6*
X76548762Y-73515001D02*
X76026258Y-73515001D01*
X76548762Y-74985001D02*
X76026258Y-74985001D01*
G04 #@! TO.C,C7*
X76548762Y-76515001D02*
X76026258Y-76515001D01*
X76548762Y-77985001D02*
X76026258Y-77985001D01*
G04 #@! TO.C,C8*
X76548762Y-79515001D02*
X76026258Y-79515001D01*
X76548762Y-80985001D02*
X76026258Y-80985001D01*
G04 #@! TO.C,TP1*
X79950010Y-86000001D02*
G75*
G03*
X79950010Y-86000001I-950000J0D01*
G01*
G04 #@! TO.C,TP2*
X74450010Y-86000001D02*
G75*
G03*
X74450010Y-86000001I-950000J0D01*
G01*
G04 #@! TO.C,C1*
X58011253Y-58515001D02*
X57488749Y-58515001D01*
X58011253Y-59985001D02*
X57488749Y-59985001D01*
G04 #@! TO.C,C2*
X58011253Y-61515001D02*
X57488749Y-61515001D01*
X58011253Y-62985001D02*
X57488749Y-62985001D01*
G04 #@! TO.C,C3*
X58048753Y-64515001D02*
X57526249Y-64515001D01*
X58048753Y-65985001D02*
X57526249Y-65985001D01*
G04 #@! TO.C,C4*
X58048753Y-67515001D02*
X57526249Y-67515001D01*
X58048753Y-68985001D02*
X57526249Y-68985001D01*
G04 #@! TO.C,C5*
X58048753Y-70515001D02*
X57526249Y-70515001D01*
X58048753Y-71985001D02*
X57526249Y-71985001D01*
G04 #@! TO.C,C6*
X58048753Y-73515001D02*
X57526249Y-73515001D01*
X58048753Y-74985001D02*
X57526249Y-74985001D01*
G04 #@! TO.C,C7*
X58048753Y-76515001D02*
X57526249Y-76515001D01*
X58048753Y-77985001D02*
X57526249Y-77985001D01*
G04 #@! TO.C,C8*
X58048753Y-79515001D02*
X57526249Y-79515001D01*
X58048753Y-80985001D02*
X57526249Y-80985001D01*
G04 #@! TO.C,TP1*
X61450001Y-86000001D02*
G75*
G03*
X61450001Y-86000001I-950000J0D01*
G01*
G04 #@! TO.C,TP2*
X55950001Y-86000001D02*
G75*
G03*
X55950001Y-86000001I-950000J0D01*
G01*
G04 #@! TD*
M02*
