M48
; DRILL file {KiCad 5.1.10} date Thu Sep 23 13:58:28 2021
; FORMAT={-:-/ absolute / inch / decimal}
; #@! TF.CreationDate,2021-09-23T13:58:28+02:00
; #@! TF.GenerationSoftware,Kicad,Pcbnew,5.1.10
FMAT,2
INCH
T1C0.0079
T2C0.0118
T3C0.1929
T4C0.0197
%
G90
G05
T1
X1.998Y-2.4508
X1.998Y-2.5689
X1.998Y-2.687
X1.998Y-2.8051
X1.998Y-2.9232
X1.998Y-3.0413
X1.998Y-3.1594
X2.0276Y-2.3327
X2.0276Y-2.4508
X2.0276Y-2.5689
X2.0276Y-2.687
X2.0276Y-2.8051
X2.0276Y-2.9232
X2.0276Y-3.0413
X2.0276Y-3.1594
X2.1063Y-3.3858
X2.126Y-2.3327
X2.126Y-2.4508
X2.126Y-2.5689
X2.126Y-2.687
X2.126Y-2.8051
X2.126Y-2.9232
X2.126Y-3.0413
X2.4213Y-2.3327
X2.4213Y-2.4508
X2.4213Y-2.5689
X2.4213Y-2.687
X2.4213Y-2.8051
X2.4213Y-2.9232
X2.4213Y-3.0413
X2.4213Y-3.1594
X2.4409Y-3.3858
X2.5197Y-2.3327
X2.5197Y-2.4508
X2.5197Y-2.5689
X2.5197Y-2.687
X2.5197Y-2.8051
X2.5197Y-2.9232
X2.5197Y-3.0413
X2.5197Y-3.1594
X2.5492Y-2.3327
X2.5492Y-2.4508
X2.5492Y-2.5689
X2.5492Y-2.687
X2.5492Y-2.8051
X2.5492Y-2.9232
X2.5492Y-3.0413
X2.7264Y-2.4508
X2.7264Y-2.5689
X2.7264Y-2.687
X2.7264Y-2.8051
X2.7264Y-2.9232
X2.7264Y-3.0413
X2.7264Y-3.1594
X2.7559Y-2.3327
X2.7559Y-2.4508
X2.7559Y-2.5689
X2.7559Y-2.687
X2.7559Y-2.8051
X2.7559Y-2.9232
X2.7559Y-3.0413
X2.7559Y-3.1594
X2.8346Y-3.3858
X2.8543Y-2.3327
X2.8543Y-2.4508
X2.8543Y-2.5689
X2.8543Y-2.687
X2.8543Y-2.8051
X2.8543Y-2.9232
X2.8543Y-3.0413
X3.1496Y-2.3327
X3.1496Y-2.4508
X3.1496Y-2.5689
X3.1496Y-2.687
X3.1496Y-2.8051
X3.1496Y-2.9232
X3.1496Y-3.0413
X3.1496Y-3.1594
X3.1693Y-3.3858
X3.248Y-2.3327
X3.248Y-2.4508
X3.248Y-2.5689
X3.248Y-2.687
X3.248Y-2.8051
X3.248Y-2.9232
X3.248Y-3.0413
X3.248Y-3.1594
X3.2776Y-2.3327
X3.2776Y-2.4508
X3.2776Y-2.5689
X3.2776Y-2.687
X3.2776Y-2.8051
X3.2776Y-2.9232
X3.2776Y-3.0413
T2
X2.0177Y-2.2441
X2.0768Y-2.3917
X2.0768Y-2.5098
X2.0768Y-2.628
X2.0768Y-2.7461
X2.0768Y-2.8642
X2.0768Y-2.9823
X2.0768Y-3.1004
X2.0866Y-3.3071
X2.0866Y-3.4646
X2.126Y-3.3071
X2.126Y-3.4646
X2.1654Y-3.3071
X2.1654Y-3.4646
X2.1752Y-2.3917
X2.1752Y-2.5098
X2.1752Y-2.628
X2.1752Y-2.7461
X2.1752Y-2.8642
X2.1752Y-2.9823
X2.1752Y-3.1004
X2.2146Y-2.2441
X2.2736Y-2.3917
X2.2736Y-2.5098
X2.2736Y-2.628
X2.2736Y-2.7461
X2.2736Y-2.8642
X2.2736Y-2.9823
X2.2736Y-3.1004
X2.2736Y-3.2382
X2.3327Y-2.2441
X2.372Y-2.3917
X2.372Y-2.5098
X2.372Y-2.628
X2.372Y-2.7461
X2.372Y-2.8642
X2.372Y-2.9823
X2.372Y-3.1004
X2.3819Y-3.3071
X2.3819Y-3.4646
X2.4213Y-3.3071
X2.4213Y-3.4646
X2.4606Y-3.3071
X2.4606Y-3.4646
X2.4705Y-2.3917
X2.4705Y-2.5098
X2.4705Y-2.628
X2.4705Y-2.7461
X2.4705Y-2.8642
X2.4705Y-2.9823
X2.4705Y-3.1004
X2.5295Y-2.2441
X2.7461Y-2.2441
X2.8051Y-2.3917
X2.8051Y-2.5098
X2.8051Y-2.628
X2.8051Y-2.7461
X2.8051Y-2.8642
X2.8051Y-2.9823
X2.8051Y-3.1004
X2.815Y-3.3071
X2.815Y-3.4646
X2.8543Y-3.3071
X2.8543Y-3.4646
X2.8937Y-3.3071
X2.8937Y-3.4646
X2.9035Y-2.3917
X2.9035Y-2.5098
X2.9035Y-2.628
X2.9035Y-2.7461
X2.9035Y-2.8642
X2.9035Y-2.9823
X2.9035Y-3.1004
X2.9429Y-2.2441
X3.002Y-2.3917
X3.002Y-2.5098
X3.002Y-2.628
X3.002Y-2.7461
X3.002Y-2.8642
X3.002Y-2.9823
X3.002Y-3.1004
X3.002Y-3.2382
X3.061Y-2.2441
X3.1004Y-2.3917
X3.1004Y-2.5098
X3.1004Y-2.628
X3.1004Y-2.7461
X3.1004Y-2.8642
X3.1004Y-2.9823
X3.1004Y-3.1004
X3.1102Y-3.3071
X3.1102Y-3.4646
X3.1496Y-3.3071
X3.1496Y-3.4646
X3.189Y-3.3071
X3.189Y-3.4646
X3.1988Y-2.3917
X3.1988Y-2.5098
X3.1988Y-2.628
X3.1988Y-2.7461
X3.1988Y-2.8642
X3.1988Y-2.9823
X3.1988Y-3.1004
X3.2579Y-2.2441
T3
X2.1161Y-2.1161
X2.1161Y-3.6909
X2.4311Y-2.1161
X2.4311Y-3.6909
X2.8445Y-2.1161
X2.8445Y-3.6909
X3.1594Y-2.1161
X3.1594Y-3.6909
T4
X2.5886Y-2.5328
X2.5886Y-2.5722
X2.5886Y-2.6115
X2.5886Y-2.6509
X2.5886Y-3.1562
X2.5886Y-3.1955
X2.5886Y-3.2349
X2.5886Y-3.2743
X2.687Y-3.2743
X2.687Y-3.1562
X2.687Y-3.1955
X2.687Y-3.2349
X2.687Y-2.5722
X2.687Y-2.6115
X2.687Y-2.6509
X2.687Y-2.5328
T0
M30
