G04 #@! TF.GenerationSoftware,KiCad,Pcbnew,5.1.10*
G04 #@! TF.CreationDate,2021-09-23T13:58:25+02:00*
G04 #@! TF.ProjectId,char-panel,63686172-2d70-4616-9e65-6c2e6b696361,rev?*
G04 #@! TF.SameCoordinates,Original*
G04 #@! TF.FileFunction,Soldermask,Bot*
G04 #@! TF.FilePolarity,Negative*
%FSLAX46Y46*%
G04 Gerber Fmt 4.6, Leading zero omitted, Abs format (unit mm)*
G04 Created by KiCad (PCBNEW 5.1.10) date 2021-09-23 13:58:25*
%MOMM*%
%LPD*%
G01*
G04 APERTURE LIST*
%ADD10C,0.100000*%
%ADD11C,0.500000*%
%ADD12C,6.000000*%
%ADD13C,1.500000*%
G04 APERTURE END LIST*
D10*
G36*
X83750010Y-88500001D02*
G01*
X82000010Y-88500001D01*
X82000010Y-87500001D01*
X83750010Y-87500001D01*
X83750010Y-88500001D01*
G37*
X83750010Y-88500001D02*
X82000010Y-88500001D01*
X82000010Y-87500001D01*
X83750010Y-87500001D01*
X83750010Y-88500001D01*
G36*
X83750010Y-86500001D02*
G01*
X82000010Y-86500001D01*
X82000010Y-85500001D01*
X83750010Y-85500001D01*
X83750010Y-86500001D01*
G37*
X83750010Y-86500001D02*
X82000010Y-86500001D01*
X82000010Y-85500001D01*
X83750010Y-85500001D01*
X83750010Y-86500001D01*
G36*
X83750010Y-84500001D02*
G01*
X82000010Y-84500001D01*
X82000010Y-83500001D01*
X83750010Y-83500001D01*
X83750010Y-84500001D01*
G37*
X83750010Y-84500001D02*
X82000010Y-84500001D01*
X82000010Y-83500001D01*
X83750010Y-83500001D01*
X83750010Y-84500001D01*
G36*
X70500010Y-88500001D02*
G01*
X68750010Y-88500001D01*
X68750010Y-87500001D01*
X70500010Y-87500001D01*
X70500010Y-88500001D01*
G37*
X70500010Y-88500001D02*
X68750010Y-88500001D01*
X68750010Y-87500001D01*
X70500010Y-87500001D01*
X70500010Y-88500001D01*
G36*
X70500010Y-84500001D02*
G01*
X68750010Y-84500001D01*
X68750010Y-83500001D01*
X70500010Y-83500001D01*
X70500010Y-84500001D01*
G37*
X70500010Y-84500001D02*
X68750010Y-84500001D01*
X68750010Y-83500001D01*
X70500010Y-83500001D01*
X70500010Y-84500001D01*
G36*
X70500010Y-86500001D02*
G01*
X68750010Y-86500001D01*
X68750010Y-85500001D01*
X70500010Y-85500001D01*
X70500010Y-86500001D01*
G37*
X70500010Y-86500001D02*
X68750010Y-86500001D01*
X68750010Y-85500001D01*
X70500010Y-85500001D01*
X70500010Y-86500001D01*
G36*
X65250001Y-88500001D02*
G01*
X63500001Y-88500001D01*
X63500001Y-87500001D01*
X65250001Y-87500001D01*
X65250001Y-88500001D01*
G37*
X65250001Y-88500001D02*
X63500001Y-88500001D01*
X63500001Y-87500001D01*
X65250001Y-87500001D01*
X65250001Y-88500001D01*
G36*
X65250001Y-86500001D02*
G01*
X63500001Y-86500001D01*
X63500001Y-85500001D01*
X65250001Y-85500001D01*
X65250001Y-86500001D01*
G37*
X65250001Y-86500001D02*
X63500001Y-86500001D01*
X63500001Y-85500001D01*
X65250001Y-85500001D01*
X65250001Y-86500001D01*
G36*
X65250001Y-84500001D02*
G01*
X63500001Y-84500001D01*
X63500001Y-83500001D01*
X65250001Y-83500001D01*
X65250001Y-84500001D01*
G37*
X65250001Y-84500001D02*
X63500001Y-84500001D01*
X63500001Y-83500001D01*
X65250001Y-83500001D01*
X65250001Y-84500001D01*
G36*
X52000001Y-88500001D02*
G01*
X50250001Y-88500001D01*
X50250001Y-87500001D01*
X52000001Y-87500001D01*
X52000001Y-88500001D01*
G37*
X52000001Y-88500001D02*
X50250001Y-88500001D01*
X50250001Y-87500001D01*
X52000001Y-87500001D01*
X52000001Y-88500001D01*
G36*
X52000001Y-84500001D02*
G01*
X50250001Y-84500001D01*
X50250001Y-83500001D01*
X52000001Y-83500001D01*
X52000001Y-84500001D01*
G37*
X52000001Y-84500001D02*
X50250001Y-84500001D01*
X50250001Y-83500001D01*
X52000001Y-83500001D01*
X52000001Y-84500001D01*
G36*
X52000001Y-86500001D02*
G01*
X50250001Y-86500001D01*
X50250001Y-85500001D01*
X52000001Y-85500001D01*
X52000001Y-86500001D01*
G37*
X52000001Y-86500001D02*
X50250001Y-86500001D01*
X50250001Y-85500001D01*
X52000001Y-85500001D01*
X52000001Y-86500001D01*
D11*
G04 #@! TO.C,REF\u002A\u002A*
X68249002Y-83166671D03*
G04 #@! TD*
G04 #@! TO.C,REF\u002A\u002A*
X68249003Y-82166671D03*
G04 #@! TD*
G04 #@! TO.C,REF\u002A\u002A*
X68249003Y-81166671D03*
G04 #@! TD*
G04 #@! TO.C,REF\u002A\u002A*
X68249003Y-80166671D03*
G04 #@! TD*
G04 #@! TO.C,REF\u002A\u002A*
X68249006Y-67333335D03*
G04 #@! TD*
G04 #@! TO.C,REF\u002A\u002A*
X68249006Y-66333335D03*
G04 #@! TD*
G04 #@! TO.C,REF\u002A\u002A*
X68249006Y-65333335D03*
G04 #@! TD*
G04 #@! TO.C,REF\u002A\u002A*
X68249007Y-64333335D03*
G04 #@! TD*
G04 #@! TO.C,REF\u002A\u002A*
X65751000Y-80166671D03*
G04 #@! TD*
G04 #@! TO.C,REF\u002A\u002A*
X65751000Y-81166671D03*
G04 #@! TD*
G04 #@! TO.C,REF\u002A\u002A*
X65751000Y-82166671D03*
G04 #@! TD*
G04 #@! TO.C,REF\u002A\u002A*
X65751000Y-83166671D03*
G04 #@! TD*
G04 #@! TO.C,REF\u002A\u002A*
X65751000Y-64333335D03*
G04 #@! TD*
G04 #@! TO.C,REF\u002A\u002A*
X65751000Y-65333335D03*
G04 #@! TD*
G04 #@! TO.C,REF\u002A\u002A*
X65751000Y-66333335D03*
G04 #@! TD*
G04 #@! TO.C,REF\u002A\u002A*
X65751000Y-67333335D03*
G04 #@! TD*
G04 #@! TO.C,C1*
G36*
G01*
X77875010Y-58775001D02*
X77875010Y-59725001D01*
G75*
G02*
X77625010Y-59975001I-250000J0D01*
G01*
X76950010Y-59975001D01*
G75*
G02*
X76700010Y-59725001I0J250000D01*
G01*
X76700010Y-58775001D01*
G75*
G02*
X76950010Y-58525001I250000J0D01*
G01*
X77625010Y-58525001D01*
G75*
G02*
X77875010Y-58775001I0J-250000D01*
G01*
G37*
G36*
G01*
X75800010Y-58775001D02*
X75800010Y-59725001D01*
G75*
G02*
X75550010Y-59975001I-250000J0D01*
G01*
X74875010Y-59975001D01*
G75*
G02*
X74625010Y-59725001I0J250000D01*
G01*
X74625010Y-58775001D01*
G75*
G02*
X74875010Y-58525001I250000J0D01*
G01*
X75550010Y-58525001D01*
G75*
G02*
X75800010Y-58775001I0J-250000D01*
G01*
G37*
G04 #@! TD*
G04 #@! TO.C,C2*
G36*
G01*
X77875010Y-61775001D02*
X77875010Y-62725001D01*
G75*
G02*
X77625010Y-62975001I-250000J0D01*
G01*
X76950010Y-62975001D01*
G75*
G02*
X76700010Y-62725001I0J250000D01*
G01*
X76700010Y-61775001D01*
G75*
G02*
X76950010Y-61525001I250000J0D01*
G01*
X77625010Y-61525001D01*
G75*
G02*
X77875010Y-61775001I0J-250000D01*
G01*
G37*
G36*
G01*
X75800010Y-61775001D02*
X75800010Y-62725001D01*
G75*
G02*
X75550010Y-62975001I-250000J0D01*
G01*
X74875010Y-62975001D01*
G75*
G02*
X74625010Y-62725001I0J250000D01*
G01*
X74625010Y-61775001D01*
G75*
G02*
X74875010Y-61525001I250000J0D01*
G01*
X75550010Y-61525001D01*
G75*
G02*
X75800010Y-61775001I0J-250000D01*
G01*
G37*
G04 #@! TD*
G04 #@! TO.C,C3*
G36*
G01*
X77912510Y-64775001D02*
X77912510Y-65725001D01*
G75*
G02*
X77662510Y-65975001I-250000J0D01*
G01*
X76987510Y-65975001D01*
G75*
G02*
X76737510Y-65725001I0J250000D01*
G01*
X76737510Y-64775001D01*
G75*
G02*
X76987510Y-64525001I250000J0D01*
G01*
X77662510Y-64525001D01*
G75*
G02*
X77912510Y-64775001I0J-250000D01*
G01*
G37*
G36*
G01*
X75837510Y-64775001D02*
X75837510Y-65725001D01*
G75*
G02*
X75587510Y-65975001I-250000J0D01*
G01*
X74912510Y-65975001D01*
G75*
G02*
X74662510Y-65725001I0J250000D01*
G01*
X74662510Y-64775001D01*
G75*
G02*
X74912510Y-64525001I250000J0D01*
G01*
X75587510Y-64525001D01*
G75*
G02*
X75837510Y-64775001I0J-250000D01*
G01*
G37*
G04 #@! TD*
G04 #@! TO.C,C4*
G36*
G01*
X77912510Y-67775001D02*
X77912510Y-68725001D01*
G75*
G02*
X77662510Y-68975001I-250000J0D01*
G01*
X76987510Y-68975001D01*
G75*
G02*
X76737510Y-68725001I0J250000D01*
G01*
X76737510Y-67775001D01*
G75*
G02*
X76987510Y-67525001I250000J0D01*
G01*
X77662510Y-67525001D01*
G75*
G02*
X77912510Y-67775001I0J-250000D01*
G01*
G37*
G36*
G01*
X75837510Y-67775001D02*
X75837510Y-68725001D01*
G75*
G02*
X75587510Y-68975001I-250000J0D01*
G01*
X74912510Y-68975001D01*
G75*
G02*
X74662510Y-68725001I0J250000D01*
G01*
X74662510Y-67775001D01*
G75*
G02*
X74912510Y-67525001I250000J0D01*
G01*
X75587510Y-67525001D01*
G75*
G02*
X75837510Y-67775001I0J-250000D01*
G01*
G37*
G04 #@! TD*
G04 #@! TO.C,C5*
G36*
G01*
X77912510Y-70775001D02*
X77912510Y-71725001D01*
G75*
G02*
X77662510Y-71975001I-250000J0D01*
G01*
X76987510Y-71975001D01*
G75*
G02*
X76737510Y-71725001I0J250000D01*
G01*
X76737510Y-70775001D01*
G75*
G02*
X76987510Y-70525001I250000J0D01*
G01*
X77662510Y-70525001D01*
G75*
G02*
X77912510Y-70775001I0J-250000D01*
G01*
G37*
G36*
G01*
X75837510Y-70775001D02*
X75837510Y-71725001D01*
G75*
G02*
X75587510Y-71975001I-250000J0D01*
G01*
X74912510Y-71975001D01*
G75*
G02*
X74662510Y-71725001I0J250000D01*
G01*
X74662510Y-70775001D01*
G75*
G02*
X74912510Y-70525001I250000J0D01*
G01*
X75587510Y-70525001D01*
G75*
G02*
X75837510Y-70775001I0J-250000D01*
G01*
G37*
G04 #@! TD*
G04 #@! TO.C,C6*
G36*
G01*
X77912510Y-73775001D02*
X77912510Y-74725001D01*
G75*
G02*
X77662510Y-74975001I-250000J0D01*
G01*
X76987510Y-74975001D01*
G75*
G02*
X76737510Y-74725001I0J250000D01*
G01*
X76737510Y-73775001D01*
G75*
G02*
X76987510Y-73525001I250000J0D01*
G01*
X77662510Y-73525001D01*
G75*
G02*
X77912510Y-73775001I0J-250000D01*
G01*
G37*
G36*
G01*
X75837510Y-73775001D02*
X75837510Y-74725001D01*
G75*
G02*
X75587510Y-74975001I-250000J0D01*
G01*
X74912510Y-74975001D01*
G75*
G02*
X74662510Y-74725001I0J250000D01*
G01*
X74662510Y-73775001D01*
G75*
G02*
X74912510Y-73525001I250000J0D01*
G01*
X75587510Y-73525001D01*
G75*
G02*
X75837510Y-73775001I0J-250000D01*
G01*
G37*
G04 #@! TD*
G04 #@! TO.C,C7*
G36*
G01*
X77912510Y-76775001D02*
X77912510Y-77725001D01*
G75*
G02*
X77662510Y-77975001I-250000J0D01*
G01*
X76987510Y-77975001D01*
G75*
G02*
X76737510Y-77725001I0J250000D01*
G01*
X76737510Y-76775001D01*
G75*
G02*
X76987510Y-76525001I250000J0D01*
G01*
X77662510Y-76525001D01*
G75*
G02*
X77912510Y-76775001I0J-250000D01*
G01*
G37*
G36*
G01*
X75837510Y-76775001D02*
X75837510Y-77725001D01*
G75*
G02*
X75587510Y-77975001I-250000J0D01*
G01*
X74912510Y-77975001D01*
G75*
G02*
X74662510Y-77725001I0J250000D01*
G01*
X74662510Y-76775001D01*
G75*
G02*
X74912510Y-76525001I250000J0D01*
G01*
X75587510Y-76525001D01*
G75*
G02*
X75837510Y-76775001I0J-250000D01*
G01*
G37*
G04 #@! TD*
G04 #@! TO.C,C8*
G36*
G01*
X77912510Y-79775001D02*
X77912510Y-80725001D01*
G75*
G02*
X77662510Y-80975001I-250000J0D01*
G01*
X76987510Y-80975001D01*
G75*
G02*
X76737510Y-80725001I0J250000D01*
G01*
X76737510Y-79775001D01*
G75*
G02*
X76987510Y-79525001I250000J0D01*
G01*
X77662510Y-79525001D01*
G75*
G02*
X77912510Y-79775001I0J-250000D01*
G01*
G37*
G36*
G01*
X75837510Y-79775001D02*
X75837510Y-80725001D01*
G75*
G02*
X75587510Y-80975001I-250000J0D01*
G01*
X74912510Y-80975001D01*
G75*
G02*
X74662510Y-80725001I0J250000D01*
G01*
X74662510Y-79775001D01*
G75*
G02*
X74912510Y-79525001I250000J0D01*
G01*
X75587510Y-79525001D01*
G75*
G02*
X75837510Y-79775001I0J-250000D01*
G01*
G37*
G04 #@! TD*
D12*
G04 #@! TO.C,J1*
X72250010Y-53750001D03*
X80250010Y-53750001D03*
G04 #@! TD*
G04 #@! TO.C,J2*
X72250010Y-93750001D03*
X80250010Y-93750001D03*
G04 #@! TD*
D13*
G04 #@! TO.C,TP1*
X79000010Y-86000001D03*
G04 #@! TD*
G04 #@! TO.C,TP2*
X73500010Y-86000001D03*
G04 #@! TD*
G04 #@! TO.C,C1*
G36*
G01*
X59375001Y-58775001D02*
X59375001Y-59725001D01*
G75*
G02*
X59125001Y-59975001I-250000J0D01*
G01*
X58450001Y-59975001D01*
G75*
G02*
X58200001Y-59725001I0J250000D01*
G01*
X58200001Y-58775001D01*
G75*
G02*
X58450001Y-58525001I250000J0D01*
G01*
X59125001Y-58525001D01*
G75*
G02*
X59375001Y-58775001I0J-250000D01*
G01*
G37*
G36*
G01*
X57300001Y-58775001D02*
X57300001Y-59725001D01*
G75*
G02*
X57050001Y-59975001I-250000J0D01*
G01*
X56375001Y-59975001D01*
G75*
G02*
X56125001Y-59725001I0J250000D01*
G01*
X56125001Y-58775001D01*
G75*
G02*
X56375001Y-58525001I250000J0D01*
G01*
X57050001Y-58525001D01*
G75*
G02*
X57300001Y-58775001I0J-250000D01*
G01*
G37*
G04 #@! TD*
G04 #@! TO.C,C2*
G36*
G01*
X59375001Y-61775001D02*
X59375001Y-62725001D01*
G75*
G02*
X59125001Y-62975001I-250000J0D01*
G01*
X58450001Y-62975001D01*
G75*
G02*
X58200001Y-62725001I0J250000D01*
G01*
X58200001Y-61775001D01*
G75*
G02*
X58450001Y-61525001I250000J0D01*
G01*
X59125001Y-61525001D01*
G75*
G02*
X59375001Y-61775001I0J-250000D01*
G01*
G37*
G36*
G01*
X57300001Y-61775001D02*
X57300001Y-62725001D01*
G75*
G02*
X57050001Y-62975001I-250000J0D01*
G01*
X56375001Y-62975001D01*
G75*
G02*
X56125001Y-62725001I0J250000D01*
G01*
X56125001Y-61775001D01*
G75*
G02*
X56375001Y-61525001I250000J0D01*
G01*
X57050001Y-61525001D01*
G75*
G02*
X57300001Y-61775001I0J-250000D01*
G01*
G37*
G04 #@! TD*
G04 #@! TO.C,C3*
G36*
G01*
X59412501Y-64775001D02*
X59412501Y-65725001D01*
G75*
G02*
X59162501Y-65975001I-250000J0D01*
G01*
X58487501Y-65975001D01*
G75*
G02*
X58237501Y-65725001I0J250000D01*
G01*
X58237501Y-64775001D01*
G75*
G02*
X58487501Y-64525001I250000J0D01*
G01*
X59162501Y-64525001D01*
G75*
G02*
X59412501Y-64775001I0J-250000D01*
G01*
G37*
G36*
G01*
X57337501Y-64775001D02*
X57337501Y-65725001D01*
G75*
G02*
X57087501Y-65975001I-250000J0D01*
G01*
X56412501Y-65975001D01*
G75*
G02*
X56162501Y-65725001I0J250000D01*
G01*
X56162501Y-64775001D01*
G75*
G02*
X56412501Y-64525001I250000J0D01*
G01*
X57087501Y-64525001D01*
G75*
G02*
X57337501Y-64775001I0J-250000D01*
G01*
G37*
G04 #@! TD*
G04 #@! TO.C,C4*
G36*
G01*
X59412501Y-67775001D02*
X59412501Y-68725001D01*
G75*
G02*
X59162501Y-68975001I-250000J0D01*
G01*
X58487501Y-68975001D01*
G75*
G02*
X58237501Y-68725001I0J250000D01*
G01*
X58237501Y-67775001D01*
G75*
G02*
X58487501Y-67525001I250000J0D01*
G01*
X59162501Y-67525001D01*
G75*
G02*
X59412501Y-67775001I0J-250000D01*
G01*
G37*
G36*
G01*
X57337501Y-67775001D02*
X57337501Y-68725001D01*
G75*
G02*
X57087501Y-68975001I-250000J0D01*
G01*
X56412501Y-68975001D01*
G75*
G02*
X56162501Y-68725001I0J250000D01*
G01*
X56162501Y-67775001D01*
G75*
G02*
X56412501Y-67525001I250000J0D01*
G01*
X57087501Y-67525001D01*
G75*
G02*
X57337501Y-67775001I0J-250000D01*
G01*
G37*
G04 #@! TD*
G04 #@! TO.C,C5*
G36*
G01*
X59412501Y-70775001D02*
X59412501Y-71725001D01*
G75*
G02*
X59162501Y-71975001I-250000J0D01*
G01*
X58487501Y-71975001D01*
G75*
G02*
X58237501Y-71725001I0J250000D01*
G01*
X58237501Y-70775001D01*
G75*
G02*
X58487501Y-70525001I250000J0D01*
G01*
X59162501Y-70525001D01*
G75*
G02*
X59412501Y-70775001I0J-250000D01*
G01*
G37*
G36*
G01*
X57337501Y-70775001D02*
X57337501Y-71725001D01*
G75*
G02*
X57087501Y-71975001I-250000J0D01*
G01*
X56412501Y-71975001D01*
G75*
G02*
X56162501Y-71725001I0J250000D01*
G01*
X56162501Y-70775001D01*
G75*
G02*
X56412501Y-70525001I250000J0D01*
G01*
X57087501Y-70525001D01*
G75*
G02*
X57337501Y-70775001I0J-250000D01*
G01*
G37*
G04 #@! TD*
G04 #@! TO.C,C6*
G36*
G01*
X59412501Y-73775001D02*
X59412501Y-74725001D01*
G75*
G02*
X59162501Y-74975001I-250000J0D01*
G01*
X58487501Y-74975001D01*
G75*
G02*
X58237501Y-74725001I0J250000D01*
G01*
X58237501Y-73775001D01*
G75*
G02*
X58487501Y-73525001I250000J0D01*
G01*
X59162501Y-73525001D01*
G75*
G02*
X59412501Y-73775001I0J-250000D01*
G01*
G37*
G36*
G01*
X57337501Y-73775001D02*
X57337501Y-74725001D01*
G75*
G02*
X57087501Y-74975001I-250000J0D01*
G01*
X56412501Y-74975001D01*
G75*
G02*
X56162501Y-74725001I0J250000D01*
G01*
X56162501Y-73775001D01*
G75*
G02*
X56412501Y-73525001I250000J0D01*
G01*
X57087501Y-73525001D01*
G75*
G02*
X57337501Y-73775001I0J-250000D01*
G01*
G37*
G04 #@! TD*
G04 #@! TO.C,C7*
G36*
G01*
X59412501Y-76775001D02*
X59412501Y-77725001D01*
G75*
G02*
X59162501Y-77975001I-250000J0D01*
G01*
X58487501Y-77975001D01*
G75*
G02*
X58237501Y-77725001I0J250000D01*
G01*
X58237501Y-76775001D01*
G75*
G02*
X58487501Y-76525001I250000J0D01*
G01*
X59162501Y-76525001D01*
G75*
G02*
X59412501Y-76775001I0J-250000D01*
G01*
G37*
G36*
G01*
X57337501Y-76775001D02*
X57337501Y-77725001D01*
G75*
G02*
X57087501Y-77975001I-250000J0D01*
G01*
X56412501Y-77975001D01*
G75*
G02*
X56162501Y-77725001I0J250000D01*
G01*
X56162501Y-76775001D01*
G75*
G02*
X56412501Y-76525001I250000J0D01*
G01*
X57087501Y-76525001D01*
G75*
G02*
X57337501Y-76775001I0J-250000D01*
G01*
G37*
G04 #@! TD*
G04 #@! TO.C,C8*
G36*
G01*
X59412501Y-79775001D02*
X59412501Y-80725001D01*
G75*
G02*
X59162501Y-80975001I-250000J0D01*
G01*
X58487501Y-80975001D01*
G75*
G02*
X58237501Y-80725001I0J250000D01*
G01*
X58237501Y-79775001D01*
G75*
G02*
X58487501Y-79525001I250000J0D01*
G01*
X59162501Y-79525001D01*
G75*
G02*
X59412501Y-79775001I0J-250000D01*
G01*
G37*
G36*
G01*
X57337501Y-79775001D02*
X57337501Y-80725001D01*
G75*
G02*
X57087501Y-80975001I-250000J0D01*
G01*
X56412501Y-80975001D01*
G75*
G02*
X56162501Y-80725001I0J250000D01*
G01*
X56162501Y-79775001D01*
G75*
G02*
X56412501Y-79525001I250000J0D01*
G01*
X57087501Y-79525001D01*
G75*
G02*
X57337501Y-79775001I0J-250000D01*
G01*
G37*
G04 #@! TD*
D12*
G04 #@! TO.C,J1*
X53750001Y-53750001D03*
X61750001Y-53750001D03*
G04 #@! TD*
G04 #@! TO.C,J2*
X53750001Y-93750001D03*
X61750001Y-93750001D03*
G04 #@! TD*
D13*
G04 #@! TO.C,TP1*
X60500001Y-86000001D03*
G04 #@! TD*
G04 #@! TO.C,TP2*
X55000001Y-86000001D03*
G04 #@! TD*
M02*
